<?xml version="1.0" standalone="no"?>
<!DOCTYPE svg PUBLIC "-//W3C//DTD SVG 1.1//EN" "http://www.w3.org/Graphics/SVG/1.1/DTD/svg11.dtd" >
<svg xmlns="http://www.w3.org/2000/svg">
<metadata>Generated by IcoMoon</metadata>
<defs>
<font id="mogo-ui-lib-webfont" horiz-adv-x="512">
<font-face units-per-em="512" ascent="480" descent="-32" />
<missing-glyph horiz-adv-x="512" />
<glyph unicode="&#x20;" d="" horiz-adv-x="256" />
<glyph unicode="&#xe000;" d="M483.537 317.69c0-10.272-3.922-20.556-11.764-28.388l-187.381-187.383c-15.675-15.685-41.103-15.685-56.78 0l-187.38 187.383c-15.686 15.665-15.686 41.11 0 56.78 15.675 15.683 41.102 15.683 56.78 0l158.989-158.995 158.993 158.995c15.675 15.683 41.102 15.683 56.777 0 7.842-7.836 11.766-18.118 11.766-28.392z" />
<glyph unicode="&#xe001;" d="M28.466 130.31c0 10.272 3.922 20.556 11.764 28.388l187.38 187.383c15.675 15.685 41.103 15.685 56.78 0l187.38-187.383c15.686-15.665 15.686-41.11 0-56.78-15.675-15.683-41.102-15.683-56.78 0l-158.989 158.995-158.992-158.996c-15.675-15.683-41.102-15.683-56.777 0-7.843 7.835-11.766 18.118-11.766 28.393z" />
<glyph unicode="&#xe002;" d="M162.309 451.535c10.272 0 20.556-3.922 28.388-11.764l187.383-187.381c15.685-15.675 15.685-41.103 0-56.78l-187.383-187.38c-15.665-15.686-41.11-15.686-56.78 0-15.683 15.675-15.683 41.102 0 56.78l158.996 158.99-158.996 158.993c-15.683 15.675-15.683 41.102 0 56.777 7.835 7.842 18.118 11.765 28.392 11.765z" />
<glyph unicode="&#xe003;" d="M349.69-3.535c-10.272 0-20.556 3.922-28.388 11.764l-187.382 187.381c-15.685 15.675-15.685 41.105 0 56.78l187.383 187.381c15.665 15.685 41.11 15.685 56.78 0 15.683-15.676 15.683-41.102 0-56.78l-158.996-158.991 158.995-158.993c15.683-15.675 15.683-41.102 0-56.777-7.834-7.842-18.117-11.765-28.392-11.765z" />
<glyph unicode="&#xe004;" d="M249.385 272.547l145.926 195.284-95.572 2.354-193.769-256.59h164.939l-181.648-233.381 12.535-2.399 320.948 294.732z" />
<glyph unicode="&#xe005;" d="M409.782 378.454l-349.495-58.458 41.919-250.449 349.509 58.468-41.933 250.439zM414.948 175.214c-13.821-2.313-23.185-15.437-20.883-29.248 0.479-2.849 1.432-5.494 2.734-7.9l-245.96-41.157c0.447 2.697 0.486 5.505 0.012 8.353-2.314 13.811-15.436 23.195-29.288 20.868-3.304-0.553-6.341-1.733-9.033-3.386l-25.156 150.298c3.091-0.682 6.355-0.813 9.669-0.257 13.842 2.314 23.19 15.425 20.876 29.279-0.475 2.838-1.428 5.476-2.728 7.877l245.965 41.151c-0.443-2.684-0.485-5.481-0.005-8.311 2.301-13.852 15.41-23.237 29.272-20.911 3.308 0.554 6.349 1.742 9.041 3.389l25.147-150.294c-3.087 0.675-6.351 0.805-9.663 0.249zM271.77 239.505c-23.228 8.255-28.803 9.614-31.496 25.359-1.010 6.080 3.789 10.538 8.978 11.507 5.187 1 10.139-1.917 10.977-7.203l2.198-13.036 34.851 6.707-2.693 15.941c-3.058 18.126-18.618 30.903-39.177 31.494l-2.412 14.111-24.992-4.823 2.39-14.305c-22.518-9.437-31.323-29.609-28.288-47.704 3.036-17.94 13.993-34.066 34.853-43.075 23.29-9.947 33.367-12.895 35.56-25.856 1.166-6.911-1.787-10.936-9.385-12.374-7.597-1.454-12.806 1.979-13.798 7.931l-2.323 13.733-34.831-6.717 3.057-18.093c3.336-19.836 18.039-30.861 39.933-31.085l2.455-14.733 24.84 4.744-2.39 14.186c23.789 8.623 34.017 29.664 30.808 48.76-3.318 19.505-17.716 36.985-39.115 44.531z" />
<glyph unicode="&#xe006;" d="M260.192 104.503l-3.596-3.745-3.597 3.79c-20.513 21.955-42.688 37.952-65.117 50.415-19.935 11.022-40.204 19.333-59.804 26.5l2.724-83.567 125.169-65.98 125.222 66.843 2.628 81.48c-19.16-7.043-38.964-15.2-58.513-25.985-22.406-12.337-44.581-28.159-65.116-49.751zM370.259 294.241l-5.531-0.020h-5.532l6.996 82.858-28.436 1.292 5.746-84.214-7.405-0.042h-7.317l-6.739 98.4-0.302 4.454-38.188-4.132 33.192-98.768-7.878-0.042h-6.822l-1.098-0.024-23.94 71.279-17.844 50.802-124.943-66.842 19.343-55.709-7.933-0.045h-7.944l-13.228-0.065 2.874-87.939c42.461-15.089 88.518-31.731 129.313-73.449 40.297 40.558 85.87 57.24 127.954 72.223l2.952 90.048-17.29-0.065zM273.345 323.091c-1.418-5.231-4.133-9.516-8.137-12.746-1.7-1.377-3.873-2.797-6.523-4.262l2.779-8.243-9.088-3.359-2.666 8.029c-3.404-0.924-6.33-1.377-8.914-1.377-2.606-0.020-5.080 0.408-7.448 1.248-7.039 2.477-12.205 8.116-15.478 16.836l19.482 7.21c1.293-3.228 2.844-5.362 4.692-6.417 1.853-1.055 4.156-1.075 6.76-0.106 2.281 0.818 3.873 2.089 4.887 3.789 0.945 1.745 1.164 3.552 0.474 5.533-0.646 2.002-1.893 3.401-3.703 4.177-1.788 0.797-4.435 1.055-7.965 0.797-5.037-0.367-8.506-0.518-10.377-0.453-6.22 0.042-11.235 1.312-15.003 3.744-3.748 2.455-6.523 6.179-8.227 11.279-1.14 3.424-1.667 6.719-1.571 9.861 0.033 3.144 0.712 6.18 1.961 9.020 1.202 2.907 3.013 5.489 5.338 7.772 2.322 2.301 5.188 4.325 8.609 6.026l-2.604 7.729 9.064 3.359 2.647-7.9c13.926 2.865 23.227-2.477 27.919-15.972l-18.963-6.976c-1.12 2.628-2.455 4.393-4.005 5.231-1.527 0.883-3.356 0.904-5.489 0.106-1.893-0.687-3.208-1.893-4.026-3.53-0.731-1.701-0.797-3.466-0.151-5.338 0.602-1.893 1.7-3.208 3.273-3.895 1.573-0.731 3.962-1.034 7.213-0.861 4.541 0.238 8.416 0.344 11.603 0.302 3.83-0.045 6.909-0.323 9.192-0.928 2.303-0.625 4.454-1.7 6.52-3.293 3.38-2.497 5.815-6.070 7.343-10.611 1.788-5.277 1.96-10.508 0.582-15.781z" />
<glyph unicode="&#xe007;" d="M116.539 240.753h8.924l2.307-33.507h-9.691l-0.964 16.3-6.419-11.747h-9.24l-6.422 11.747-0.961-16.3h-9.695l2.31 33.507h8.92l10.468-19.26 10.463 19.26zM146.244 207.246h-10.269v33.507h10.269v-33.507zM180.129 207.246l-14.696 17.777v-17.777h-10.077v33.507h9.627l14.698-17.784v17.784h10.080v-33.507h-9.632zM209.197 207.246h-10.269v33.507h10.269v-33.507zM263.172 240.753h8.925l2.308-33.507h-9.691l-0.964 16.301-6.418-11.747h-9.249l-6.415 11.747-0.964-16.301h-9.691l2.312 33.507h8.92l10.463-19.261zM297.408 241.394c-11.873 0-18.612-7.895-18.612-17.394 0-9.504 6.739-17.393 18.612-17.393s18.618 7.889 18.618 17.393c0 9.499-6.745 17.394-18.618 17.394zM297.408 214.627c-5.458 0-8.338 4.237-8.338 9.373 0 5.133 2.88 9.372 8.338 9.372s8.348-4.239 8.348-9.372c0-5.138-2.891-9.373-8.348-9.373zM346.528 207.246l-14.697 17.777v-17.777h-10.077v33.507h9.63l14.696-17.785v17.785h10.081v-33.507zM365.26 240.753h24.070v-7.835h-13.8v-4.942h13.228v-7.83h-13.228v-5.075h13.992v-7.825h-24.262zM416.26 240.753h11.362l-12.133-21.76v-11.747h-10.27v11.747l-12.134 21.76h11.364l5.905-12.905z" />
<glyph unicode="&#xe008;" d="M126.272 207.139h-10.269v33.507h10.269v-33.507zM147.322 217.283h-1.667v-10.144h-10.269v33.507h12.517c9.24 0 15.277-3.976 15.277-11.292 0-7.516-6.674-12.071-15.858-12.071zM148.095 233.007h-2.44v-8.535h2.054c3.784 0 5.518 2.054 5.518 4.426-0.001 2.251-1.539 4.109-5.132 4.109zM81.87 240.645h26.703v-7.442l-14.443-17.975h14.763v-8.089h-27.408v7.448l14.379 17.975h-13.994zM204.055 213.38h-13.627l-2.175-6.080h-10.236l13.816 33.398h10.879l13.819-33.398h-10.239l-2.237 6.080zM193.179 220.801h8.188l-4.093 12.412-4.095-12.412zM220.975 240.698h12.223c12.794 0 21.623-6.464 21.623-16.699 0-10.236-8.829-16.699-21.623-16.699h-12.223v33.398zM244.585 223.999c0 5.695-4.031 8.703-10.556 8.703h-2.815v-17.403h2.815c6.525 0 10.556 3.008 10.556 8.7zM278.089 207.3h-10.621l-12.347 33.398h10.684l6.972-22.202 6.976 22.202h10.684l-12.348-33.398zM314.202 213.38h-13.627l-2.176-6.080h-10.236l13.819 33.398h10.876l13.816-33.398h-10.232l-2.24 6.080zM303.325 220.801h8.189l-4.096 12.412-4.093-12.412zM355.812 207.3l-14.648 17.725v-17.725h-10.044v33.398h9.596l14.648-17.723v17.723h10.047v-33.398h-9.599zM400.385 239.354l-1.409-7.421c-2.239 0.831-4.924 1.344-7.804 1.344-6.845 0-9.787-3.711-9.787-9.277 0-5.568 2.943-9.277 9.787-9.277 2.88 0 5.565 0.512 7.804 1.347l1.409-7.421c-2.368-1.153-6.652-1.984-10.748-1.984-12.41 0-18.49 7.547-18.49 17.336 0 9.789 6.080 17.339 18.49 17.339 4.096-0.002 8.38-0.834 10.748-1.986zM406.332 240.698h23.992v-7.804h-13.756v-4.928h13.178v-7.806h-13.178v-5.053h13.947v-7.807h-24.183v33.398z" />
<glyph unicode="&#xe009;" d="M266.036 213.381h-13.627l-2.173-6.080h-10.239l13.821 33.396h10.875l13.821-33.396h-10.237l-2.241 6.080zM255.162 220.803h8.187l-4.092 12.412-4.095-12.412zM282.957 240.698h12.223c12.796 0 21.623-6.463 21.623-16.699s-8.827-16.698-21.623-16.698h-12.223v33.397zM306.564 224c0 5.695-4.031 8.703-10.556 8.703h-2.812v-17.402h2.812c6.525-0.001 10.556 3.007 10.556 8.699zM340.070 207.301h-10.624l-12.347 33.396h10.687l6.972-22.2 6.973 22.2h10.687l-12.348-33.396zM376.18 213.381h-13.623l-2.177-6.080h-10.239l13.823 33.396h10.874l13.821-33.396h-10.239l-2.24 6.080zM365.307 220.803h8.187l-4.093 12.412-4.094-12.412zM417.789 207.301l-14.648 17.724v-17.724h-10.042v33.396h9.594l14.653-17.722v17.722h10.042v-33.396h-9.599zM462.364 239.355l-1.407-7.421c-2.239 0.831-4.927 1.344-7.807 1.344-6.843 0-9.786-3.711-9.786-9.279 0-5.567 2.943-9.277 9.786-9.277 2.88 0 5.568 0.512 7.807 1.347l1.407-7.421c-2.371-1.153-6.655-1.985-10.748-1.985-12.41 0-18.487 7.548-18.487 17.336 0 9.791 6.077 17.339 18.487 17.339 4.092 0.001 8.378-0.832 10.748-1.983zM468.311 240.698h23.992v-7.804h-13.754v-4.927h13.18v-7.807h-13.18v-5.053h13.947v-7.807h-24.186l0.001 33.398zM31.441 217.391h-1.669v-10.145h-10.267v33.504h12.513c9.244 0 15.278-3.976 15.278-11.296 0-7.508-6.676-12.063-15.855-12.063zM32.209 233.114h-2.437v-8.535h2.054c3.786 0 5.519 2.054 5.519 4.429 0.002 2.243-1.537 4.106-5.136 4.106zM69.627 206.606c-11.876 0-18.615 7.895-18.615 17.393 0 9.499 6.739 17.394 18.615 17.394 11.873 0 18.612-7.895 18.612-17.394 0-9.498-6.739-17.393-18.612-17.393zM77.972 224c0 5.138-2.888 9.372-8.346 9.372-5.455 0-8.343-4.234-8.343-9.372 0-5.134 2.888-9.368 8.343-9.368 5.459 0 8.346 4.233 8.346 9.368zM121.866 239.407l-1.409-7.447c-2.248 0.833-4.942 1.347-7.832 1.347-6.867 0-9.819-3.721-9.819-9.307 0-5.582 2.953-9.306 9.819-9.306 2.89 0 5.585 0.512 7.832 1.347l1.409-7.444c-2.373-1.153-6.674-1.989-10.78-1.989-12.452 0-18.55 7.574-18.55 17.393 0 9.821 6.099 17.394 18.55 17.394 4.106-0.001 8.407-0.834 10.78-1.988zM127.826 207.246v33.504h10.272v-15.98l11.553 15.98h11.936l-12.517-16.556 12.902-16.948h-12.387l-11.488 16.303v-16.303h-10.271zM166.976 240.75h24.068v-7.827h-13.801v-4.942h13.225v-7.832h-13.225v-5.070h13.994v-7.832l-24.261-0.001v33.504zM225.061 240.75v-8.084h-9.309v-25.42h-10.269l-0.001 25.42h-9.304v8.084h28.883z" />
<glyph unicode="&#xe00a;" d="M447.753 283.241h-11.556c-0.005 0-0.010-0.001-0.015-0.001l-0.005 0.001c-2.657 0-5.357-2.043-6.090-4.635-0.028-0.095-0.074-0.186-0.097-0.282 0 0-0.244-1.119-0.673-3.073l-16.037-72.691c-0.321-1.42-0.53-2.319-0.599-2.573l0.027-0.037c-0.552-2.514 0.964-4.595 3.444-4.829l0.033-0.046h11.992c2.641 0 5.324 2.025 6.080 4.588 0.033 0.11 0.084 0.215 0.113 0.326l17.315 78.342-0.027 0.008c0.586 2.68-1.14 4.902-3.905 4.902zM469.629 267.292c-0.39-0.106-0.823-0.189-1.294-0.259-0.468-0.068-0.89-0.104-1.253-0.104-1.289 0-2.263 0.347-2.93 1.037-0.668 0.692-0.998 1.796-0.998 3.32v6.684h-1.432v1.779h1.432v3.615h2.111v-3.615h4.364v-1.779h-4.364v-5.728c0-0.659 0.022-1.174 0.046-1.546 0.031-0.37 0.136-0.719 0.316-1.042 0.164-0.302 0.39-0.515 0.678-0.655 0.292-0.141 0.735-0.209 1.325-0.209 0.344 0 0.704 0.052 1.082 0.151 0.372 0.101 0.643 0.187 0.808 0.255h0.109l-0.001-1.904zM490.533 267.181h-2.113v7.155c0 0.539-0.027 1.062-0.079 1.568-0.046 0.5-0.154 0.901-0.306 1.203-0.175 0.32-0.422 0.564-0.745 0.73-0.323 0.166-0.786 0.247-1.394 0.247-0.594 0-1.184-0.146-1.778-0.445-0.594-0.294-1.183-0.672-1.777-1.13 0.022-0.172 0.036-0.372 0.055-0.602 0.018-0.229 0.023-0.456 0.023-0.68v-8.046h-2.113v7.155c0 0.558-0.027 1.083-0.073 1.583-0.052 0.5-0.156 0.896-0.312 1.198-0.175 0.32-0.422 0.562-0.745 0.723s-0.786 0.242-1.394 0.242c-0.58 0-1.152-0.143-1.738-0.426-0.581-0.284-1.158-0.645-1.74-1.091v-9.385h-2.116v12.568h2.116v-1.395c0.662 0.549 1.321 0.977 1.976 1.286 0.663 0.305 1.356 0.458 2.099 0.458 0.855 0 1.581-0.179 2.177-0.539 0.596-0.362 1.041-0.856 1.332-1.498 0.855 0.721 1.636 1.242 2.344 1.556 0.704 0.32 1.457 0.48 2.26 0.48 1.38 0 2.399-0.417 3.058-1.253 0.654-0.838 0.984-2.004 0.984-3.507l0.002-8.155zM403.227 259.895c-4.906 2.737-12.571 4.119-23.067 4.119-5.193 0-10.408-0.416-15.642-1.226-3.844-0.591-4.238-0.687-6.623-1.206-4.914-1.073-5.669-5.987-5.669-5.987l-1.577-6.486c-0.892-4.146 1.468-3.973 2.52-3.653 2.147 0.648 3.308 1.289 7.683 2.281 4.177 0.947 8.595 1.658 12.118 1.629 5.171 0 9.103-0.568 11.715-1.659 2.615-1.138 3.909-3.081 3.909-5.856 0.008-0.662 0.027-1.286-0.214-1.828-0.214-0.509-0.625-1.002-1.864-1.166-7.378-0.44-12.671-1.115-19.048-2.044-6.289-0.884-11.794-2.403-16.397-4.504-4.906-2.177-8.577-5.085-11.109-8.778-2.461-3.707-3.698-8.193-3.706-13.482 0-4.996 1.796-9.074 5.272-12.239 3.515-3.121 8.087-4.668 13.622-4.668 3.455 0.027 6.162 0.274 8.102 0.762 1.92 0.481 4.013 1.171 6.226 2.127 1.651 0.692 3.433 1.69 5.315 2.945 1.885 1.257 3.192 2.15 4.867 3.246l0.060-0.104-0.471-2.081c0-0.020-0.031-0.031-0.031-0.049l0.015-0.038c-0.539-2.505 0.966-4.586 3.447-4.833l0.031-0.041h0.219l0.005-0.013c1.651 0 7.299 0.005 9.94 0.013h1.846c0.119 0 0.133 0.036 0.182 0.063 2.532 0.312 4.959 2.374 5.531 4.851l9.431 40.707c0.214 0.959 0.385 2.065 0.49 3.333 0.116 1.292 0.255 2.346 0.212 3.109 0.025 5.76-2.451 10.019-7.34 12.756zM380.375 211.389c-1.601-1.010-3.293-1.875-5.068-2.61-2.385-0.96-4.645-1.466-6.739-1.466-3.208 0-5.677 0.453-7.342 1.423-1.673 0.922-2.547 2.522-2.516 4.813 0 2.644 0.611 4.696 1.87 6.307 1.276 1.55 3.167 2.797 5.51 3.724 2.332 0.791 5.202 1.443 8.515 1.911 2.945 0.37 8.764 1.039 9.509 1.043 0.748 0.008 1.243 0.42 0.909-1.568-0.146-0.861-1.828-7.761-2.596-10.899-0.227-0.941-1.48-2.309-2.052-2.678zM240.973 263.113c-2.765 0-6.392-2.24-8.111-4.945 0 0-18.506-31.726-20.323-34.897-0.987-1.706-1.989-0.622-2.159 0.013-0.133 0.771-5.733 34.675-5.733 34.675-0.627 2.732-3.482 5.075-7.043 5.062l-11.543-0.018c-2.783 0-4.517-2.226-3.898-4.922 0 0 8.82-49.999 10.543-61.759 0.856-6.502-0.090-7.654-0.090-7.654l-11.437-19.941c-1.674-2.702-0.759-4.919 2.010-4.919l13.372 0.014c2.771 0 6.44 2.203 8.084 4.91l51.444 87.012c0 0 4.924 7.434 0.387 7.369-3.095-0.045-15.503 0-15.503 0zM78.57 245.427c-3.894-2.847-9.289-4.275-16.294-4.275h-3.167c-2.79 0-4.552 2.213-3.937 4.932l3.887 16.753c0.593 2.698 3.377 4.937 6.167 4.914l4.225 0.023c4.938 0 8.69-0.844 11.223-2.525 2.495-1.635 3.762-4.218 3.718-7.692 0.075-5.227-1.908-9.275-5.822-12.13zM106.456 271.247c-1.605 3.132-4.012 5.672-7.081 7.593-3.186 1.966-6.892 3.323-11.21 4.137-4.346 0.778-9.422 1.161-15.245 1.213l-26.958-0.018c-2.802-0.033-5.545-2.231-6.194-4.924l-18.176-79.027c-0.627-2.703 1.124-4.94 3.914-4.94h12.915c2.792 0 5.559 2.179 6.186 4.94l4.452 19.177c0.594 2.682 3.354 4.9 6.153 4.9h3.692c15.795 0.015 28.046 3.247 36.85 9.713 8.791 6.458 13.185 15.012 13.166 25.591 0.020 4.651-0.784 8.536-2.464 11.645zM313.053 245.105c-3.871-2.812-9.302-4.227-16.291-4.227h-3.215c-2.779-0.031-4.575 2.216-3.914 4.908l3.875 16.78c0.575 2.656 3.397 4.911 6.139 4.89l4.244 0.022c4.955-0.022 8.663-0.85 11.223-2.5 2.515-1.669 3.736-4.252 3.756-7.7 0.011-5.252-1.932-9.293-5.817-12.173zM340.927 270.961c-1.61 3.13-4.038 5.65-7.112 7.613-3.149 1.958-6.895 3.325-11.231 4.122-4.285 0.753-9.379 1.185-15.185 1.196l-27.023-0.010c-2.78-0.050-5.51-2.237-6.153-4.927l-18.168-79.052c-0.662-2.684 1.147-4.924 3.881-4.908l12.963 0.023c2.748-0.023 5.551 2.202 6.203 4.884l4.379 19.186c0.614 2.687 3.411 4.938 6.205 4.9h3.685c15.813 0 28.076 3.247 36.855 9.715 8.76 6.502 13.165 15.027 13.165 25.629-0.027 4.635-0.819 8.534-2.464 11.629zM168.705 259.958c-4.904 2.734-12.571 4.114-23.067 4.114-5.193 0-10.406-0.411-15.643-1.224-3.846-0.586-4.234-0.682-6.623-1.203-4.914-1.073-5.669-5.987-5.669-5.987l-1.577-6.488c-0.892-4.146 1.473-3.976 2.52-3.651 2.14 0.645 3.306 1.286 7.683 2.278 4.174 0.948 8.596 1.656 12.118 1.629 5.171 0 9.097-0.564 11.712-1.654 2.614-1.143 3.903-3.086 3.903-5.861 0.018-0.662 0.029-1.286-0.204-1.828-0.216-0.511-0.635-1-1.869-1.164-7.37-0.445-12.663-1.115-19.048-2.044-6.291-0.884-11.793-2.405-16.398-4.504-4.906-2.177-8.572-5.093-11.099-8.781-2.469-3.706-3.706-8.191-3.711-13.485 0-4.993 1.798-9.071 5.27-12.234 3.519-3.123 8.087-4.671 13.62-4.671 3.459 0.024 6.162 0.276 8.109 0.759 1.917 0.489 4.013 1.174 6.216 2.129 1.656 0.694 3.436 1.696 5.321 2.945 1.882 1.258 3.192 2.149 4.873 3.245l0.052-0.101-0.471-2.075c-0.004-0.022-0.031-0.035-0.031-0.058l0.022-0.033c-0.539-2.511 0.961-4.589 3.442-4.831l0.031-0.046h0.216l0.006-0.019c1.651 0 7.304 0.012 9.938 0.019h1.844c0.124 0 0.143 0.038 0.18 0.065 2.541 0.32 4.957 2.38 5.535 4.846l9.431 40.712c0.214 0.954 0.385 2.060 0.483 3.331 0.125 1.289 0.264 2.346 0.225 3.109 0.027 5.763-2.45 10.022-7.34 12.761zM145.855 211.45c-1.601-1.010-3.292-1.87-5.069-2.61-2.383-0.957-4.653-1.466-6.739-1.466-3.201 0-5.674 0.457-7.346 1.423-1.667 0.922-2.546 2.522-2.519 4.814 0 2.641 0.617 4.698 1.88 6.308 1.274 1.55 3.158 2.797 5.503 3.726 2.339 0.794 5.215 1.437 8.517 1.903 2.944 0.372 8.772 1.042 9.514 1.050 0.74 0.005 1.236 0.417 0.904-1.565-0.143-0.861-1.825-7.77-2.597-10.906-0.232-0.943-1.485-2.313-2.048-2.677z" />
<glyph unicode="&#xe00b;" d="M381.044 254.039c-3.067 0.005-6.092-0.183-9.068-0.521l-13.985 71.283c-3.023 15.566-16.655 26.437-31.923 26.591h-0.141c-2.158 0.013-4.349-0.186-6.548-0.62l-240.41-47.101c-15.547-3.039-26.391-16.631-26.58-31.89v-0.261c-0.009-2.138 0.183-4.31 0.608-6.486l27.411-139.858c3.484-17.798 20.826-29.471 38.639-25.971l193.076 37.839c13.422-24.073 39.105-40.394 68.617-40.44 43.329-0.083 78.533 34.874 78.871 78.116l0.003 0.895c-0.173 43.26-35.238 78.341-78.57 78.424zM82.979 283.232l240.398 47.104c4.426 0.856 8.643-0.914 11.382-4.177l-117.605-86.295-143.135 35.264c1.328 3.985 4.535 7.249 8.96 8.104zM115.049 119.672c-6.541-1.315-12.916 2.959-14.203 9.501l-24.271 123.843 145.042-35.721 119.087 87.429 11.037-56.285c-28.982-11.572-49.5-39.854-49.551-72.968-0.017-6.437 0.763-12.691 2.211-18.687l-189.352-37.112zM386.563 134.275l-0.014-6.099c0-2.989-2.505-5.504-5.504-5.489-3.346 0-5.865 2.515-5.865 5.503l0.014 5.975c-9.518 0.865-21.115 4.544-24.887 10.364-0.028 0.041-0.063 0.077-0.086 0.118-0.721 1.176-1.19 2.38-1.19 3.832 0.013 4.424 3.717 7.882 7.91 7.882 1.676-0.014 3.224-0.513 4.662-1.454 2.565-1.775 5.476-3.241 8.676-4.33 1.58-0.539 3.208-1.015 4.945-1.338l0.015 5.069 0.040 13.836c-4.070 1.039-8.241 2.245-12.018 3.96-7.671 3.488-13.681 9.121-13.663 20.019 0.008 7.213 3.442 13.748 9.619 18.22 4.186 3.027 9.619 5.119 16.143 5.788l0.017 6.336c0 1.588 0.728 3.026 1.903 4.036 1.030 0.888 2.405 1.448 3.973 1.44 2.988 0 5.476-2.515 5.476-5.504l-0.013-6.584c7.064-0.828 17.201-3.612 20.704-8.783 0.703-1.051 1.174-2.39 1.174-3.689 0-4.539-4.33-7.776-8.532-7.759-0.707 0-1.425 0.113-2.24 0.358-3.5 0.983-7.412 3.721-11.133 4.564l-0.027-16.873c12.306-3.139 26.067-7.953 26.039-24.201-0.028-13.29-8.673-23.427-26.138-25.197zM386.618 165.253l-0.027-16.029c5.847 1.193 8.864 4.662 8.864 8.356 0.013 3.952-3.693 5.999-8.837 7.673zM366.953 193.521c0-3.471 3.333-5.38 8.352-6.847l0.028 14.632c-5.378-0.734-8.369-3.718-8.38-7.785z" />
<glyph unicode="&#xe00c;" d="M395.352 341.198h-278.702c-20.042 0-36.346-16.253-36.346-36.23v-161.947c0-19.974 16.303-36.22 36.346-36.22h278.702c20.040 0 36.343 16.244 36.343 36.22v161.947c0 19.977-16.303 36.23-36.343 36.23zM413.56 143.021c0-10.022-8.145-18.139-18.208-18.139h-278.702c-10.058 0-18.212 8.116-18.212 18.139v101.312h315.121v-101.312zM413.56 288.969h-315.122v15.999c0 10.033 8.152 18.154 18.212 18.154h278.702c10.062 0 18.208-8.122 18.208-18.154v-15.999zM166.252 157.012c5.609 0 10.73 2.508 14.401 7.131v-0.486c0-3.375 2.708-6.067 6.093-6.067 3.578 0 6.286 2.693 6.286 6.067v53.283c0 3.378-2.708 6.072-6.095 6.072-3.575 0-6.284-2.694-6.284-6.072v-18.209c-3.671 4.721-8.892 7.135-14.401 7.135-11.892 0-20.686-9.252-20.686-24.485 0.001-15.508 8.89-24.369 20.686-24.369zM170.015 194.979c4.159 0 8.612-2.226 10.639-5.308v-16.477c-2.028-3.082-6.481-5.294-10.639-5.294-6.953 0-11.777 5.494-11.777 13.482-0.001 8.103 4.824 13.597 11.777 13.597zM227.188 157.012c6.185 0 18.074 2.211 18.074 7.707 0 2.883-2.61 4.908-5.219 4.908-0.765 0-1.638-0.189-2.406-0.575-2.903-1.544-6.486-2.308-9.093-2.308-7.921 0-12.668 4.909-13.439 10.792h28.812c3.185 0 5.702 2.601 5.702 5.59 0 2.308-0.677 4.909-1.359 7.025-3.281 9.637-11.311 15.715-21.843 15.715-14.214 0-24.166-10.888-24.166-24.385-0.001-14.936 10.733-24.469 24.937-24.469zM226.418 196.133c8.122 0 11.22-5.888 11.501-10.309h-23.003c0.586 4.625 3.867 10.309 11.502 10.309zM264.827 157.59c3.469 0 6.184 2.693 6.184 6.067v0.486c3.672-4.623 8.799-7.131 14.405-7.131 11.782 0 20.686 8.86 20.686 24.369 0 15.233-8.796 24.485-20.686 24.485-5.513 0-10.733-2.414-14.405-7.135v18.317c0 3.27-2.715 5.965-5.994 5.965-3.578 0-6.286-2.694-6.286-5.965v-53.39c0.001-3.375 2.709-6.068 6.096-6.068zM271.012 189.578c2.036 3.082 6.565 5.4 10.533 5.4 7.153 0 11.891-5.494 11.891-13.597 0-8.092-4.739-13.482-11.891-13.482-3.969 0-8.498 2.212-10.533 5.199v16.48zM321.499 209.713c4.063 0 7.348 3.282 7.348 7.334 0 4.036-3.286 7.226-7.348 7.226-3.964 0-7.354-3.19-7.354-7.226 0-4.052 3.39-7.334 7.354-7.334zM321.693 205.285c-3.583 0-6.28-2.702-6.28-5.972v-35.654c0-3.375 2.697-6.067 6.085-6.067 3.476 0 6.19 2.693 6.19 6.067v35.654c0.001 3.27-2.713 5.972-5.995 5.972zM339.291 194.013h2.989v-24.293c0-8.285 4.652-12.709 13.247-12.709 8.029 0 9.861 2.508 9.861 5.59 0 2.973-1.925 5.297-5.412 5.297h-1.060c-1.934 0-4.262 1.448-4.262 5.108v21.006h4.846c2.794 0 5.215 2.4 5.215 5.299 0 2.989-2.422 5.4-5.215 5.4h-4.846v7.227c0 3.364-2.702 6.061-6.080 6.061-3.575 0-6.294-2.697-6.294-6.061v-7.227h-2.989c-2.902 0-5.322-2.412-5.322-5.215 0-3.083 2.421-5.483 5.322-5.483z" />
<glyph unicode="&#xe00d;" d="M408.421 363.816h-234.425c-1.123 0-2.226-0.227-3.237-0.672l-33.304-14.522c-3.014-1.32-4.956-4.307-4.956-7.636v-56.192c0-0.020 0.009-0.020 0.009-0.038v-3.162c-0.054-16.344-1.121-97.463-17.485-143.953-1.306-3.745 0.275-7.661 3.437-9.695 0.516-0.306 0.952-0.718 1.54-0.932 4.283-1.558 8.974 0.714 10.487 5.043 0.703 2.012 1.371 4.152 2.021 6.299 3.384 10.927 6.076 23.112 8.2 35.708 6.807 40.251 8.004 84.283 8.182 102.419h196.851v-32.54c-1.568-47.456-8.864-111.284-31.796-131.561l-210.362 0.001c-4.531 0-8.204-3.726-8.204-8.311 0-4.589 3.672-8.31 8.204-8.31h28.925v-3.268c0-4.59 3.672-8.311 8.2-8.311h213.239c0.695 0 1.399 0.086 2.083 0.276l54.474 14.524c3.608 0.954 6.118 4.265 6.118 8.029v248.493c-0.001 4.585-3.677 8.311-8.201 8.311zM400.215 113.42l-38.068-10.148v136.469c0.577 16.613 0.419 30.476 0.205 38.708l37.864 10.088-0.001-175.117zM226.15 156.84c-15.849-0.151-22.732 4.975-29.702 11.971-1.266 1.166-2.351 1.664-4.070 1.664-3.868-0.065-8.012-2.836-8.621-9.156-0.298-3.049 1.046-5.603 2.337-7.29 9.425-10.433 25.381-15.045 41.242-14.958 27.862-0.282 51.313 12.338 55.203 35.255 2.653 15.672-4.826 24.722-19.768 28.787 15.256 6.691 20.239 16.49 21.193 25.234 0.652 19.373-14.109 30.586-37.309 30.586-7.21 0-16.179-1.082-23.37-3.62-5.992-2.163-15.332-6.035-15.607-13.933-0.161-4.612 2.351-8.616 7.931-8.635 3.882 0.018 6.874 1.862 10.373 3.525 4.763 2.253 11.226 4.159 18.821 4.242 11.314 0.151 18.659-4.499 17.787-14.24-1.612-9.846-9.485-16.644-27.003-16.797l-7.881 0.026c-5.505 0.083-10.332-3.813-11.848-8.724-1.37-4.416 0.781-8.832 6.090-8.873l9.804-0.044c19.322 0.083 28.786-4.998 25.649-16.6-2.751-12.036-15.388-18.66-31.251-18.42z" />
<glyph unicode="&#xe00e;" d="M263.172 447.564l17.17 25.224 14.313-69.512 25.071 36.924 9.505-158.882-17.881 118.651-21.488-37.17zM208.443-15.156c-2.459 2.966-0.32 7.962 4.864 11.308 8.623 5.54 10.052 6.871 11.777 11.044 0.997 2.349 1.637 5.371 1.428 6.744-0.358 2.31-0.805 2.157-6.104-1.88l-5.729-4.394-7.476 15.532c-10.405 21.542-19.232 37.057-32.756 57.491l-11.569 17.489 1.35 9.108c1.505 10.051 4.791 20.732 9.262 29.994 1.577 3.287 2.438 5.972 1.893 5.972-0.541 0-6.705-1.952-13.652-4.356-13.9-4.809-20.924-8.468-25.302-13.146-2.665-2.839-2.758-3.456-1.39-7.758 3.324-10.294 13.204-32.701 23.421-52.987 5.938-11.761 10.784-21.786 10.784-22.259 0.018-0.49-2.161-1.537-4.829-2.326l-4.846-1.467 0.133-7.438c0.055-4.113-0.265-9.202-0.713-11.308-0.809-3.569-1.279-3.85-7.212-4.467-5.507-0.566-6.765-0.282-9.261 2.179l-2.912 2.796-3.512-3.981c-7.119-8.11-12.771-8.357-28.268-1.24-5.597 2.574-7.041 3.794-7.041 6.049 0 4.676 3.192 6.18 13.277 6.18 9.092 0 9.24 0.038 12.041 4.169 1.539 2.294 2.685 4.284 2.515 4.434-0.166 0.154-3.492-0.298-7.361-0.997-3.849-0.712-7.251-1.087-7.515-0.806-0.28 0.303-1.407 8.228-2.514 17.638-1.125 9.427-3.683 28.963-5.711 43.42-1.99 14.446-3.699 31.5-3.772 37.906-0.247 22.858 5.426 29.244 51.311 57.964 6.236 3.887 11.325 7.793 11.325 8.673 0 0.867-1.935 4.471-4.317 8.001-4.173 6.18-4.246 6.479-2.144 8.81 3.269 3.628 20.758 14.99 41.677 27.177 18.614 10.801 18.747 10.917 23.593 19.177 2.668 4.586 8.154 12.152 12.207 16.828l7.327 8.53-4.621 3.158c-12.582 8.602-31.461 10.118-59.895 4.859-23.592-4.356-21.508-4.561-22.787 2.199-0.602 3.231-1.615 5.823-2.234 5.823-0.64 0-3.286-1.108-5.898-2.438-3.567-1.824-5.801-4.323-8.827-9.974-2.217-4.152-4.566-7.608-5.162-7.665-0.622-0.059-1.731 2.327-2.442 5.311-0.733 2.971-1.935 5.6-2.668 5.843-1.504 0.49-5.239-7.156-6.479-13.277-0.585-2.839-1.599-4.212-3.363-4.472-1.99-0.282-2.95 0.827-4.659 5.26-2.854 7.438-1.786 10.967 5.371 17.897 5.503 5.299 26.202 16.96 30.126 16.96 0.942 0 3.214 1.673 5.016 3.721 3.739 4.169 11.325 6.721 23.626 7.923 19.457 1.919 70.156-6.31 89.684-14.518 4.151-1.748 4.641-1.764 4.020-0.133-0.393 1.014-3.832 11.871-7.643 24.136-3.794 12.246-7.025 22.446-7.174 22.633-0.154 0.169-2.122-8.003-4.394-18.143-2.706-12.174-4.416-17.732-5-16.229-1.219 3.078-22.143 120.3-21.58 120.883 0.247 0.224 5.6-16.869 11.892-38.054 6.309-21.148 11.607-38.354 11.773-38.147 0.17 0.187 3.197 7.231 6.708 15.628 3.492 8.415 6.721 15.681 7.173 16.172 0.452 0.507 4.317-20.285 8.602-46.168 6.479-39.048 8.133-47.030 9.765-47.030 2.762 0.036 13.393 5.257 18.465 9.091l4.284 3.229 0.788-2.817c0.43-1.522 0.844-6.65 0.92-11.345l0.133-8.562 9.467-2.822c5.199-1.539 10.664-3.116 12.113-3.469 2.103-0.529 4.434 1.235 11.607 8.861 4.94 5.221 9.952 10.501 11.137 11.722 1.164 1.219 3.756 2.216 5.768 2.216 2.796 0 3.811-0.658 4.356-2.875 0.676-2.628 1.279-2.836 7.398-2.499 3.661 0.207 7.156 0.659 7.74 1.034 1.147 0.714 2.554-2.067 2.554-5.014 0-0.996 2.2-6.294 4.901-11.813 6.518-13.28 9.202-31.235 6.143-41.208-0.937-3.022-0.937-3.022-2.834 1.22l-1.882 4.266-0.827-4.884c-0.452-2.669-1.257-6.236-1.802-7.927l-0.978-3.062-1.239 3.062-1.24 3.043-0.9-3.452c-0.657-2.557-1.185-3.066-1.935-1.841-0.732 1.125-1.052 0.64-1.071-1.655-0.037-6.593-3.229-5.335-4.978 1.952-0.658 2.779-0.937 3.062-1.033 1.108-0.209-4.731-2.385-4.279-3.923 0.809-0.812 2.702-1.937 4.936-2.52 4.936-4.151 0 6.199-19.232 21.073-39.158 36.27-48.499 50.225-76.088 48.328-95.569-0.805-8.524-4.129-16.033-6.648-15.098-0.992 0.394-3.265-0.732-5.128-2.497-2.95-2.817-3.64-3.009-5.916-1.56-3.077 1.919-3.247 5.823-0.732 16.305 0.979 4.019 1.786 8.392 1.806 9.709 0.018 2.084-0.434 1.937-3.665-1.164-5.371-5.148-6.684-3.099-4.996 7.758 1.787 11.569 1.787 11.585-1.407 10.801-2.276-0.547-3.7 0.635-8.265 6.889-3.026 4.151-15.158 19.666-26.956 34.465-11.795 14.821-24.905 31.465-29.092 37.002-4.207 5.563-8.038 10.089-8.529 10.089-2.515 0-31.141-7.796-41.413-11.27l-11.889-4.003-6.427-11.026c-5.915-10.179-6.401-11.606-6.478-19.080-0.035-4.47 1.051-14.577 2.426-22.483 1.368-7.907 2.348-14.538 2.139-14.726-0.209-0.223-3.396 0.658-7.080 1.935-10.029 3.457-11.005 3.194-16.512-4.488-6.534-9.126-21.295-23.081-33.413-31.571l-9.897-6.953 9.428-11.834c10.519-13.199 25.865-35.574 35.724-52.042l6.516-10.856-2.966-2.272c-1.615-1.24-3.342-2.276-3.871-2.292-2.179-0.078-0.58-2.481 3.231-4.847 4.228-2.589 8.095-8.904 8.095-13.183 0-2.63-7.923-7.665-12.054-7.665-2.591 0-7.442-6.257-9.207-11.831-1.389-4.34-3.249-5.036-16.078-5.939-10.661-0.748-12.485-0.597-13.968 1.189z" />
<glyph unicode="&#xe00f;" d="M238.632 112.215c-4.312-5.928-12.623-7.163-18.47-2.738l-80.663 61.012c-5.846 4.422-7.013 12.827-2.591 18.675l12.826 16.963c4.421 5.847 12.824 7.014 18.671 2.592l52.558-37.933 115.505 157.58c4.308 5.93 12.691 7.256 18.623 2.948l17.206-12.504c5.933-4.31 7.258-12.69 2.948-18.62l-136.613-187.975z" />
<glyph unicode="&#xe010;" d="M264.433 241.521c-35.406 12.668-45.478 18.523-45.478 33.765 0 14.93 15.588 21.42 40.927 21.42 19.137 0 30.528-5.213 46.749-11.686 2.28-0.98 3.88-1.3 7.119-1.3 10.387 0 14.94 7.772 14.94 15.922 0 12.013-17.862 20.447-31.808 24.339-7.793 1.938-15.583 3.578-22.702 4.219v23.676c0 8.133-6.515 14.967-14.943 14.967-8.431 0-14.947-6.835-14.947-14.967v-23.676c-39.281-3.579-62.661-21.74-62.661-52.914 0-32.147 19.502-49.672 69.812-65.898 29.857-9.748 44.44-18.18 44.44-34.405 0-14.309-12.947-23.698-37.285-23.698-25.336 0-38.964 8.434-54.868 17.823-2.597 1.641-5.874 2.278-9.389 2.278-9.432 0-15.268-5.838-15.268-15.227 0-13.947 18.463-24.055 33.731-29.53 11.347-3.597 20.78-5.837 30.212-6.794v-23.736c0-8.114 6.472-14.947 14.904-14.947 8.472 0 14.948 6.833 14.948 14.947v24.015c40.884 5.836 60.060 28.895 60.060 57.787-0.001 35.064-27.25 49.031-68.493 63.62zM256 433.727c-115.631 0-209.723-94.077-209.723-209.732 0-115.638 94.090-209.722 209.723-209.722s209.722 94.084 209.722 209.722c0.001 115.654-94.089 209.732-209.722 209.732zM256 55.196c-93.071 0-168.801 75.729-168.801 168.799 0 93.084 75.73 168.815 168.801 168.815s168.801-75.731 168.801-168.815c0.002-93.070-75.728-168.799-168.801-168.799z" />
<glyph unicode="&#xe011;" d="M454.738 368.37h-394.916c-20.543 0-37.272-16.709-37.272-37.248v-232.201c0-20.503 16.73-37.211 37.272-37.211h394.915c20.543 0 37.272 16.709 37.272 37.252v232.16c0.001 20.539-16.73 37.248-37.271 37.248zM59.822 338.257h394.915c3.924 0 7.154-3.231 7.154-7.133v-35.304l-409.223-0.038v35.34c0 3.903 3.231 7.135 7.154 7.135zM454.738 91.823h-394.916c-3.923 0-7.154 3.195-7.154 7.137v134.762h409.222v-134.76c0.002-3.944-3.228-7.139-7.152-7.139z" />
<glyph unicode="&#xe012;" d="M255.999 437.718c-118.034 0-213.716-95.683-213.716-213.716 0-118.025 95.683-213.719 213.716-213.719 118.026 0 213.719 95.694 213.719 213.719 0 118.033-95.693 213.716-213.719 213.716zM150.104 176.076v-7.114c0-3.488-2.934-6.422-6.422-6.422-3.912 0-6.84 2.934-6.84 6.422v6.981c-11.172 0.977-24.844 5.304-29.171 12.146-0.841 1.385-1.399 2.784-1.399 4.463 0 5.16 4.332 9.206 9.219 9.206 1.952 0 3.761-0.559 5.439-1.672 4.468-3.067 9.765-5.445 15.913-6.559l-0.001 22.051c-14.376 3.625-30.012 8.933-30.012 27.912 0 14.1 11.172 26.102 30.012 28.055v7.397c0 3.489 2.929 6.422 6.84 6.422 3.488 0 6.422-2.932 6.422-6.422v-7.681c8.227-0.978 20.091-4.18 24.138-10.179 0.837-1.266 1.398-2.798 1.398-4.334 0-5.307-5.023-9.069-9.912-9.069-0.841 0-1.669 0.137-2.646 0.421-4.046 1.115-8.658 4.317-12.978 5.297v-19.671c14.373-3.638 30.422-9.215 30.422-28.192-0.001-15.491-10.047-27.355-30.422-29.458zM344.467 150.604c0-45.147-23.804-70.954-67.338-70.954-43.574 0-67.343 25.807-67.343 70.954v146.796c0 45.148 23.77 70.958 67.343 70.958 43.535 0 67.338-25.809 67.338-70.958v-146.796zM150.104 212.228v-18.698c6.83 1.388 10.319 5.445 10.319 9.764-0.001 4.614-4.319 6.974-10.319 8.934zM277.129 328.037c-14.12 0-22.988-7.652-22.988-27.811v-152.447c0-20.163 8.868-27.811 22.988-27.811 14.116 0 22.982 7.648 22.982 27.811v152.449c0 20.159-8.866 27.809-22.982 27.809zM127.067 245.169c0-4.046 3.909-6.286 9.775-7.953v17.021c-6.283-0.841-9.775-4.332-9.775-9.068z" />
<glyph unicode="&#xe013;" d="M341.239 250.698h-1.754c-3.926 0-7.094-0.584-9.114-4.312-2.189-4.055-2.204-8.849-2.204-13.344 0-4.5-0.052-9.521 2.141-13.592 1.788-3.31 4.63-4.453 8.205-4.453h3.7c3.587 0 6.414 1.143 8.204 4.453 2.214 4.072 2.149 9.096 2.149 13.592 0 4.498-0.027 9.288-2.204 13.344-2.005 3.731-5.191 4.312-9.123 4.312zM261.6 247.822c-2.487-3.708-3.031-7.094-3.031-13.12 0-5.053-0.376-12.296 3.031-16.701 2.241-2.903 4.975-3.002 6.788-3.002h12.536v35.704h-12.536c-2.812-0.002-5.377-0.763-6.788-2.881zM200.056 250.698h-1.74c-3.933-0.003-7.101-0.584-9.12-4.312-2.19-4.055-2.205-8.849-2.205-13.344 0-4.5-0.058-9.521 2.144-13.592 1.777-3.31 4.625-4.453 8.204-4.453h3.692c3.592 0 6.426 1.143 8.216 4.453 2.209 4.072 2.148 9.096 2.148 13.592 0 4.498-0.020 9.288-2.204 13.344-2.018 3.731-5.197 4.312-9.135 4.312zM434.445 214.287c-3.529 0-5.773-1.588-5.773-4.111 0-2.522 2.45-4.115 5.773-4.115 3.38 0 6.056 1.802 6.056 4.115-0.001 2.235-2.676 4.111-6.056 4.111zM503.217 155.489l-22.895 137.025c-1.277 7.653-8.68 13.911-16.431 13.911l-443.323-0.002c-7.754 0-13.062-6.258-11.782-13.911l22.894-137.025c1.276-7.654 8.676-13.912 16.429-13.912h443.323c7.758 0.002 13.054 6.26 11.785 13.914zM160.897 205.345c-0.065-1.317-0.714-4.609-5.404-4.703h-10.349c-4.687 0.095-5.33 3.386-5.39 4.703v34.446c0 4.012-0.072 6.892-1.356 8.467-1.48 1.789-3.832 2.438-8.771 2.438h-7.099v-45.35c-0.067-1.317-0.717-4.609-5.403-4.703h-8.832c-4.692 0.095-5.331 3.386-5.403 4.703v34.446c0 4.012-0.137 6.753-1.501 8.467-1.391 1.719-3.887 2.438-8.623 2.438l-7.088 0.001v-45.35c0-1.34-0.717-4.609-5.403-4.703h-10.268c-4.036 0.078-5.336 2.482-5.336 4.023v54.794c0 4.7 3.369 5.395 4.708 5.395l65.836 0.005c5.644 0 10.254-0.937 13.825-2.817 3.574-1.885 6.646-4.622 8.671-7.725 1.768-2.719 2.808-6.332 2.963-8.717 0.141-2.381 0.223-5.375 0.223-8.974l0.004-31.284zM231.862 223.57c-1.207-9.708-7.158-18.775-16.785-21.832-5.037-1.603-9.501-1.508-15.884-1.508s-10.857-0.095-15.901 1.508c-9.617 3.055-15.571 12.12-16.78 21.832-0.657 5.294-0.643 10.758-0.102 16.060 0.502 4.95 1.6 9.896 4.353 14.107 4.913 7.52 13.391 11.118 22.104 11.118h12.625c8.737 0 17.208-3.599 22.129-11.118 2.753-4.211 3.835-9.161 4.339-14.107 0.555-5.302 0.569-10.766-0.098-16.060zM302.080 199.731c0-8.187-1.171-14.538-6.65-20.032-4.92-4.909-12.069-5.875-17.825-5.875h-32.698c-1.093 0-2.033 0.672-2.427 1.628-0.123 0.31-0.198 0.654-0.198 1.005 0 0.68 0.274 1.303 0.696 1.768l7.132 6.665c2.479 2.542 5.938 4.125 9.768 4.125h11.978c3.749 0 6.769 0.407 7.887 2.272 1.108 1.875 1.179 4.225 1.179 9.348h-18.874c-4.131 0-7.837 0.906-11.104 2.734-3.276 1.833-5.869 4.147-7.777 6.958-1.916 2.458-3.325 5.313-4.224 8.548-0.916 3.229-1.367 7.907-1.367 13.139 0 5.236 0.413 9.324 1.213 13.071 0.81 3.741 2.214 6.977 4.23 9.701 2.001 2.643 4.727 4.98 8.157 7.021 3.419 2.044 7.644 3.064 12.685 3.064h32.812c4.694-0.106 5.338-3.386 5.405-4.71l0.002-60.43zM356.26 201.742c-5.042-1.603-9.51-1.508-15.885-1.508-6.382 0-10.86-0.095-15.901 1.508-9.619 3.055-15.566 12.12-16.773 21.832-0.668 5.294-0.652 10.758-0.109 16.060 0.5 4.95 1.6 9.896 4.349 14.107 4.92 7.52 13.398 11.118 22.121 11.118h12.612c8.737 0 17.21-3.599 22.13-11.118 2.747-4.211 3.835-9.161 4.346-14.107 0.543-5.302 0.558-10.765-0.105-16.060-1.211-9.712-7.16-18.779-16.785-21.832zM377.084 200.657c-2.732 0-4.899 2.235-4.899 4.98 0 2.73 2.17 4.899 4.899 4.899 2.737 0 4.975-2.171 4.975-4.899 0.001-2.745-2.238-4.98-4.975-4.98zM402.588 207.652c3.1 0 5.051 1.439 6.198 2.308 0.797 0.576 1.522 0.867 2.68 0.867 2.004 0 3.375-1.371 3.375-3.32 0-1.228-0.424-2.090-1.216-2.954-2.098-2.308-5.984-4.251-11.11-4.251-10.454 0-17.005 7.283-17.005 16.507 0 9.23 6.55 16.511 17.005 16.511 5.126 0 9.012-1.947 11.11-4.256 0.792-0.867 1.216-1.727 1.216-2.963 0-1.943-1.372-3.311-3.375-3.311-1.158 0-1.88 0.296-2.68 0.868-1.147 0.864-3.096 2.303-6.198 2.303-5.556 0-8.431-4.329-8.431-9.152s2.875-9.157 8.431-9.157zM449.151 204.911c0-2.376-1.737-4.323-4.255-4.323-2.449 0-4.253 1.947-4.253 4.323v0.146c-2.019-3.247-5.326-4.756-9.297-4.756-6.929 0-11.249 4.177-11.249 9.875 0 6.557 5.050 9.875 11.676 9.878 3.313 0 6.644-1.085 8.727-3.32v2.31c0 4.829-1.736 6.917-7.348 6.917-4.119 0-6.644-1.587-8.588-1.587-2.098 0-3.681 1.512-3.681 3.537 0 4.678 9.674 5.405 13.051 5.405 9.806 0 15.218-4.762 15.218-13.7v-14.705z" />
<glyph unicode="&#xe014;" d="M255.999 437.715c-118.034 0-213.716-95.68-213.716-213.715 0-118.022 95.683-213.715 213.716-213.715 118.026 0 213.719 95.693 213.719 213.715 0 118.035-95.693 213.715-213.719 213.715zM375.432 301.093c-0.104-0.495-0.433-1.238-0.73-1.647l-135.529-186.486c-0.298-0.41-0.902-0.95-1.343-1.201l-16.771-2.484c-0.494 0.111-1.229 0.453-1.633 0.759l-79.192 59.9c-0.404 0.306-0.933 0.92-1.176 1.364l-2.354 16.968c0.113 0.495 0.454 1.23 0.76 1.633l11.713 15.493c0.306 0.403 0.919 0.933 1.364 1.178l16.964 2.355c0.494-0.113 1.235-0.448 1.646-0.744l51.063-36.855c0.411-0.296 0.992-0.204 1.293 0.205l114.415 156.093c0.3 0.408 0.905 0.948 1.345 1.201l16.92 2.678c0.497-0.104 1.238-0.431 1.647-0.73l15.716-11.42c0.41-0.298 0.951-0.902 1.202-1.341l2.68-16.919z" />
<glyph unicode="&#xe015;" d="M279.197 115.799v84.769h84.774c12.269 0.003 22.396 10.143 22.396 22.399 0 13.866-10.127 24.003-22.396 24l-84.774-0.003-0.003 84.248c0.005 12.799-10.131 22.927-22.927 22.925-13.327 0-23.466-10.129-23.469-22.927l0.003-84.246h-84.244c-12.799-0.003-22.927-10.136-22.93-22.93 0.003-13.331 10.13-23.469 22.93-23.466h84.246l-0.003-84.772c0-12.275 10.136-22.401 22.399-22.399 13.86-0.004 23.996 10.127 23.998 22.402z" />
<glyph unicode="&#xe016;" d="M407.117 374.889c-83.462 83.462-218.775 83.465-302.24 0-83.457-83.457-83.46-218.775 0.003-302.237 83.457-83.46 218.783-83.462 302.24-0.005 83.464 83.464 83.453 218.786-0.003 302.242zM364.813 200.947c-0.462-0.209-1.254-0.38-1.761-0.38h-82.932c-0.507 0-0.922-0.415-0.922-0.922v-82.926c0-0.507-0.172-1.299-0.38-1.761 0 0-9.759-21.567-23.62-21.562-12.262-0.003-22.019 21.559-22.019 21.559-0.209 0.462-0.38 1.254-0.38 1.761l0.003 82.929c0 0.507-0.415 0.922-0.922 0.922h-82.402c-0.507 0-1.302 0.168-1.765 0.372 0 0-22.084 9.763-22.086 23.094 0.003 12.794 22.086 22.557 22.086 22.557 0.463 0.205 1.258 0.372 1.765 0.372h82.401c0.507 0 0.922 0.415 0.922 0.922l-0.003 82.401c0 0.507 0.168 1.302 0.374 1.765 0 0 9.769 22.084 23.095 22.084 12.796 0.003 22.555-22.081 22.555-22.081 0.205-0.463 0.372-1.258 0.372-1.765l0.003-82.404c0-0.507 0.415-0.922 0.922-0.922l82.932 0.003c0.507 0 1.299-0.172 1.761-0.38 0 0 21.556-9.755 21.556-23.62 0.001-12.255-21.555-22.018-21.555-22.018z" />
<glyph unicode="&#xe017;" d="M469.711 223.771c0 118.033-95.68 213.715-213.715 213.715-118.026 0-213.713-95.683-213.713-213.715-0.001-118.028 95.685-213.719 213.713-213.719 118.037 0 213.715 95.693 213.715 213.719zM316.803 130.689c-0.475 0.179-1.156 0.618-1.514 0.977l-58.642 58.642c-0.358 0.357-0.945 0.357-1.304 0l-58.637-58.638c-0.358-0.357-1.039-0.797-1.514-0.977 0 0-22.15-8.349-31.948 1.455-8.672 8.668-0.325 30.813-0.325 30.813 0.179 0.475 0.618 1.156 0.977 1.514l58.639 58.638c0.358 0.358 0.358 0.945 0 1.304l-58.267 58.267c-0.358 0.358-0.801 1.039-0.984 1.512 0 0-8.713 22.519 0.712 31.948 9.048 9.043 31.569 0.333 31.569 0.333 0.472-0.183 1.152-0.626 1.512-0.984l58.267-58.267c0.358-0.358 0.945-0.358 1.304 0l58.266 58.268c0.357 0.358 1.038 0.801 1.512 0.984 0 0 22.524 8.708 31.948-0.716 9.048-9.046 0.334-31.562 0.334-31.562-0.183-0.472-0.626-1.152-0.984-1.512l-58.267-58.271c-0.357-0.358-0.357-0.945 0-1.304l58.643-58.641c0.357-0.357 0.797-1.039 0.977-1.514 0 0 8.346-22.14-1.459-31.944-8.669-8.664-30.815-0.325-30.815-0.325z" />
<glyph unicode="&#xe018;" d="M196.056 131.016l59.941 59.941 59.945-59.945c8.677-8.673 23.009-8.666 31.675 0.001 9.805 9.805 9.811 24.133 1.134 32.808l-59.946 59.944 59.57 59.574c9.053 9.046 9.048 23.375-0.001 32.422-9.423 9.423-23.756 9.431-32.806 0.383l-59.57-59.572-59.571 59.571c-9.052 9.048-23.38 9.044-32.428 0-9.425-9.428-9.432-23.758-0.379-32.806l59.571-59.571-59.944-59.941c-8.68-8.678-8.672-23.008 0-31.676 9.797-9.807 24.128-9.81 32.809-1.133z" />
<glyph unicode="&#xe019;" d="M255.999 437.715c-118.034 0-213.715-95.681-213.715-213.715 0-118.028 95.681-213.715 213.715-213.715 118.026 0 213.718 95.688 213.718 213.715-0.001 118.034-95.692 213.715-213.718 213.715zM253.172 81.222c-17.769 0-32.718 14.941-32.718 32.719 0 17.77 14.949 32.71 32.718 32.71 17.772 0 32.713-14.94 32.713-32.71 0-17.777-14.941-32.719-32.713-32.719zM270.54 198.35c0-5.252 1.211-6.861 1.211-10.906 0-10.098-7.674-21.407-22.615-21.407-15.35 0-28.682 12.929-28.682 37.567 0 48.060 58.967 53.718 58.967 81.583 0 12.522-9.288 23.021-31.501 23.021-12.115 0-23.421-4.038-33.121-10.499-4.846-3.233-10.906-4.851-16.96-4.851-12.925 0-23.831 8.89-23.831 23.43 0 4.036 0.808 7.668 2.424 10.903 10.907 21.407 51.7 31.905 77.548 31.905 52.099 0 84.010-26.25 84.010-63.814 0.002-58.967-67.45-63.41-67.45-96.932z" />
<glyph unicode="&#xe01a;" d="M255.796 96.084c-16.477 0-29.957 13.87-29.957 29.96 0 16.493 13.48 30.34 29.957 30.34 16.494 0 30.346-13.847 30.346-30.34 0.001-16.089-13.851-29.96-30.346-29.96zM277.528 199.479c-0.37-11.629-9.736-20.607-22.102-20.607-11.606 0-20.974 8.978-21.341 20.607-1.869 41.546-6.004 117.588-6.004 125.087 0 15.355 11.994 27.333 28.104 27.333 15.355 0 26.962-11.977 26.962-27.333 0.001-7.498-3.749-83.541-5.619-125.087zM255.978 10.284c-117.853 0-213.713 95.86-213.713 213.716 0 117.834 95.859 213.716 213.713 213.716s213.755-95.882 213.755-213.716c0-117.856-95.9-213.716-213.755-213.716zM255.978 396.008c-94.84 0-172.006-77.164-172.006-172.008 0-94.861 77.166-172.004 172.006-172.004 94.865 0 172.049 77.143 172.049 172.004 0 94.844-77.183 172.008-172.049 172.008z" />
<glyph unicode="&#xe01b;" d="M472.214 126.272l-10.717 18.437c-35.708 61.85-94.143 162.991-129.852 224.841l-10.723 18.531c-35.709 61.852-94.14 61.832-129.85-0.017l-10.712-18.57c-35.711-61.846-94.144-163.061-129.854-224.91l-10.717-18.56c-35.709-61.852-6.492-112.195 64.925-112.195l21.438 0.251c71.421 0 188.287 0 259.706 0h21.43c71.417 0 100.631 50.342 64.926 112.192zM256.227 361.9c17.978 0 31.567-14.025 31.567-31.999 0-8.774-4.39-97.798-6.578-146.437-0.433-13.613-11.4-24.125-25.875-24.125-13.59 0-24.558 10.513-24.986 24.125-2.186 48.639-7.027 137.661-7.027 146.437 0.001 17.974 14.040 31.999 32.899 31.999zM255.773 62.423c-19.29 0-35.072 16.238-35.072 35.075 0 19.308 15.782 35.516 35.072 35.516 19.308 0 35.525-16.209 35.525-35.516 0.001-18.838-16.217-35.075-35.525-35.075z" />
<glyph unicode="&#xe01c;" d="M429.253 364.963c-0.046 0.484-0.14 0.951-0.205 1.43-0.096 0.687-0.175 1.377-0.312 2.060-0.115 0.562-0.269 1.11-0.408 1.661-0.146 0.591-0.271 1.179-0.449 1.76-0.166 0.541-0.37 1.065-0.562 1.596-0.202 0.581-0.396 1.165-0.635 1.734-0.202 0.484-0.44 0.951-0.659 1.427-0.279 0.594-0.547 1.19-0.854 1.77-0.238 0.438-0.503 0.849-0.758 1.276-0.342 0.59-0.677 1.179-1.060 1.752-0.3 0.443-0.632 0.856-0.951 1.289-0.378 0.513-0.739 1.041-1.146 1.539-0.526 0.639-1.093 1.231-1.656 1.83-0.244 0.26-0.461 0.536-0.717 0.791-0.242 0.242-0.503 0.445-0.748 0.677-0.612 0.577-1.229 1.158-1.88 1.695-0.468 0.385-0.963 0.723-1.45 1.085-0.458 0.339-0.906 0.7-1.388 1.015-0.531 0.357-1.087 0.669-1.629 0.995-0.466 0.276-0.923 0.568-1.402 0.828-0.531 0.284-1.080 0.524-1.623 0.781-0.529 0.247-1.041 0.511-1.582 0.732-0.507 0.211-1.027 0.378-1.539 0.567-0.6 0.216-1.19 0.443-1.802 0.627-0.493 0.146-0.992 0.255-1.489 0.383-0.644 0.164-1.276 0.338-1.933 0.471-0.548 0.106-1.098 0.166-1.651 0.25-0.609 0.093-1.219 0.209-1.838 0.265-0.909 0.091-1.821 0.118-2.735 0.141-0.27 0.005-0.529 0.040-0.796 0.040h-229.743c-19.903 0-36.038-16.136-36.038-36.037 0-19.901 16.136-36.037 36.038-36.037h142.737l-213.269-213.269c-14.075-14.076-14.075-36.891 0-50.967 7.037-7.034 16.261-10.554 25.484-10.554 9.225 0 18.446 3.52 25.486 10.554l213.268 213.267v-142.734c0-19.904 16.133-36.040 36.037-36.040 19.901 0 36.037 16.136 36.037 36.040l0.001 229.719c0.001 1.198-0.062 2.399-0.181 3.591z" />
<glyph unicode="&#xe01d;" d="M63.82 388.662h384.346c17.375 0 31.46-14.068 31.46-31.444 0-17.341-14.085-31.441-31.46-31.441h-384.346c-17.358 0-31.444 14.1-31.444 31.441-0.001 17.374 14.087 31.444 31.444 31.444zM63.82 255.443h384.346c17.375 0 31.46-14.068 31.46-31.444 0-17.341-14.085-31.441-31.46-31.441h-384.346c-17.358 0-31.444 14.1-31.444 31.441-0.001 17.376 14.087 31.444 31.444 31.444zM63.82 123.466h384.346c17.375 0 31.46-14.068 31.46-31.444 0-17.343-14.085-31.442-31.46-31.442h-384.346c-17.358 0-31.444 14.1-31.444 31.442-0.001 17.376 14.087 31.444 31.444 31.444z" />
<glyph unicode="&#xe01e;" d="M53.527 207.45c-0.001-0.065-0.001-0.142-0.001-0.219 0-26.507 21.487-47.994 47.994-47.994 26.275 0 47.619 21.115 47.989 47.302 0.005 0.976 0.005 1.053 0.005 1.13 0 26.506-21.488 47.994-47.994 47.994-26.275 0-47.619-21.114-47.989-47.302zM208.005 207.45c-0-0.065-0-0.142-0-0.219 0-26.507 21.488-47.994 47.994-47.994 26.275 0 47.619 21.115 47.989 47.302 0.005 0.976 0.005 1.053 0.005 1.13 0 26.506-21.488 47.994-47.994 47.994-26.275 0-47.619-21.114-47.989-47.302zM362.484 207.45c0-26.507 21.488-47.994 47.994-47.994s47.994 21.488 47.994 47.994c0 26.506-21.488 47.994-47.994 47.994-26.507 0-47.994-21.488-47.994-47.994z" />
<glyph unicode="&#xe01f;" d="M352 160c-32-32-32-64-64-64s-64 32-96 64-64 64-64 96 32 32 64 64-64 128-96 128-96-96-96-96c0-64 65.75-193.75 128-256s192-128 256-128c0 0 96 64 96 96s-96 128-128 96z" />
<glyph unicode="&#xe020;" d="M384 480h-288c-17.6 0-32-14.399-32-32v-448c0-17.6 14.399-32 32-32h288c17.6 0 32 14.4 32 32v448c0 17.601-14.4 32-32 32zM240-8.891c-13.746 0-24.891 11.145-24.891 24.891s11.145 24.891 24.891 24.891 24.891-11.145 24.891-24.891-11.145-24.891-24.891-24.891zM384 64h-288v352h288v-352z" />
<glyph unicode="&#xe021;" d="M320 192c52.935 0 100.935-21.533 135.701-56.299l-45.234-45.234c-23.177 23.178-55.178 37.533-90.467 37.533s-67.289-14.355-90.467-37.533l-45.234 45.234c34.766 34.766 82.766 56.299 135.701 56.299zM93.726 226.274c60.44 60.44 140.799 93.726 226.274 93.726s165.834-33.286 226.275-93.726l-45.255-45.254c-48.353 48.352-112.64 74.98-181.020 74.98-68.381 0-132.667-26.628-181.019-74.981l-45.255 45.255zM494.392 412.781c53.351-22.566 101.258-54.864 142.391-95.998v0l-45.254-45.254c-72.528 72.528-168.96 112.471-271.529 112.471-102.57 0-199-39.943-271.529-112.471l-45.255 45.255c41.134 41.133 89.041 73.431 142.392 95.997 55.252 23.369 113.926 35.219 174.392 35.219 60.466 0 119.139-11.85 174.392-35.219zM288 32c0-17.673 14.327-32 32-32s32 14.327 32 32c0 17.673-14.327 32-32 32-17.673 0-32-14.327-32-32z" horiz-adv-x="640" />
<glyph unicode="&#xe600;" d="M218.503 70.919c0-37.534-23.195-67.196-88.879-69.588-38.492 21.893-70.745 53.476-93.454 91.433 11.845 29.248 48.846 51.523 91.158 51.057 12.011-0.126 23.205-2.057 33.372-5.35 27.954-19.433 50.5-31.576 56.162-53.724 1.057-4.482 1.641-9.103 1.641-13.828zM256 480c-73.97 0-140.598-31.385-187.333-81.549 18.467 10.226 40.269 16.319 63.451 16.319 33.534 0 128.219 0 128.219 0l-28.652-30.070h-33.655c23.748-13.606 36.376-41.624 36.376-72.506 0-28.346-15.708-51.19-37.89-68.529-21.64-16.901-25.746-23.983-25.746-38.367 0-12.271 25.861-30.549 37.75-39.468 41.409-31.056 49.789-50.592 49.789-89.435 0-39.363-34.468-78.552-92.933-91.871 28.174-10.669 58.713-16.524 90.624-16.524 141.385 0 256 114.615 256 256s-114.615 256-256 256zM384 288v-64h-32v64h-64v32h64v64h32v-64h64v-32h-64zM182.884 310.264c5.961-45.388-13.923-74.595-48.467-73.567-34.563 1.041-67.403 32.746-73.37 78.121-5.964 45.394 17.209 80.127 51.765 79.098 34.545-1.037 64.11-38.271 70.072-83.652zM110.443 158.966c-37.34 0-69.064-12.884-91.421-31.932-12.251 29.91-19.022 62.645-19.022 96.966 0 28.383 4.628 55.684 13.156 81.198 3.687-49.721 38.676-88.096 96.485-88.096 4.257 0 8.382 0.221 12.437 0.511-3.975-7.615-6.811-16.095-6.811-24.991 0-14.985 8.244-23.535 18.434-33.447-7.701 0-15.135-0.209-23.258-0.209z" />
<glyph unicode="&#xe601;" d="M256.024 475.043c-138.444 0-251.067-112.614-251.067-251.048s112.624-251.048 251.067-251.048c138.434 0 251.058 112.614 251.058 251.048s-112.624 251.048-251.058 251.048zM256.024 23.248c-110.706 0-200.775 90.051-200.775 200.747 0 110.706 90.071 200.766 200.775 200.766 110.696 0 200.766-90.061 200.766-200.766 0-110.696-90.070-200.747-200.766-200.747zM331.527 169.459c-20.141-20.132-46.958-31.223-75.532-31.223-28.554 0-55.362 11.091-75.504 31.233-8.584 8.556-23.541 8.556-32.069-0.010-4.302-4.292-6.666-10.009-6.657-16.067 0-6.058 2.374-11.747 6.657-16.020 28.688-28.697 66.9-44.508 107.6-44.508 40.69 0 78.903 15.801 107.562 44.48 4.301 4.264 6.675 9.962 6.685 16.020 0.010 6.087-2.355 11.794-6.657 16.096-8.556 8.556-23.389 8.613-32.087 0zM172.297 234.118c21.518 0 39.019 17.501 39.019 39.019s-17.501 39.019-39.019 39.019c-21.518 0-39.019-17.502-39.019-39.019 0-21.508 17.501-39.019 39.019-39.019zM339.731 312.167c-21.518 0-39.019-17.502-39.019-39.019 0-21.518 17.511-39.020 39.019-39.020s39.019 17.501 39.019 39.020c0.010 21.508-17.502 39.019-39.019 39.019z" />
<glyph unicode="&#xe602;" d="M256.024 475.043c-138.444 0-251.067-112.614-251.067-251.048s112.624-251.048 251.067-251.048c138.434 0 251.058 112.614 251.058 251.048s-112.624 251.048-251.058 251.048zM256.024 23.248c-110.706 0-200.775 90.051-200.775 200.747 0 110.706 90.071 200.766 200.775 200.766 110.696 0 200.766-90.061 200.766-200.766 0-110.696-90.070-200.747-200.766-200.747zM256.033 182.459c-43.464 0-84.353-14.168-115.102-39.893-4.833-3.998-7.607-9.705-7.625-15.668-0.010-5.973 2.754-11.728 7.597-15.783 8.765-7.322 23.399-7.378 32.344 0 22.012 18.394 51.422 28.517 82.815 28.517 31.394 0 60.775-10.123 82.778-28.526 4.406-3.675 10.151-5.688 16.172-5.688 6.039 0 11.775 2.022 16.163 5.707 4.834 4.046 7.597 9.781 7.597 15.745-0.010 5.954-2.783 11.671-7.597 15.668-30.777 25.744-71.667 39.921-115.14 39.921zM172.297 291.589c21.518 0 39.019 17.502 39.019 39.019s-17.501 39.019-39.019 39.019c-21.518 0-39.019-17.502-39.019-39.019 0-21.518 17.501-39.019 39.019-39.019zM339.731 291.589c21.518 0 39.019 17.502 39.019 39.019s-17.511 39.019-39.019 39.019-39.019-17.502-39.019-39.019c0-21.518 17.511-39.019 39.019-39.019z" />
<glyph unicode="&#xe603;" d="M135.69 204.026c-5.887 0-10.834 4.965-10.834 10.835v65.017l-11.591-11.922c-1.709-1.71-3.888-2.481-6.053-2.481-4.796 0-9.139 4.023-9.139 9.138 0 2.315 0.954 4.645 2.799 6.492l23.832 24.147c2.316 2.348 5.719 3.722 9.275 3.722 6.96 0 12.846-5.582 12.846-12.558v-81.558c0.001-5.87-4.932-10.834-11.135-10.834zM205.006 203.103c-29.566 0-42.732 26.767-42.732 53.382 0 26.633 13.165 53.262 42.731 53.262 29.4 0 42.73-26.631 42.73-53.262 0-26.615-13.33-53.382-42.73-53.382zM205.006 290.243c-14.858 0-20.443-14.723-20.443-33.757 0-19.019 5.583-33.878 20.443-33.878 14.693 0 20.275 14.857 20.275 33.878 0 19.035-5.582 33.757-20.275 33.757zM300.937 203.103c-29.551 0-42.715 26.767-42.715 53.382 0 26.633 13.163 53.262 42.715 53.262 29.401 0 42.715-26.631 42.715-53.262 0.002-26.615-13.315-53.382-42.715-53.382zM300.937 290.243c-14.873 0-20.443-14.723-20.443-33.757 0-19.019 5.57-33.878 20.443-33.878 14.707 0 20.276 14.857 20.276 33.878 0 19.035-5.568 33.757-20.276 33.757zM255.407-13.787c-130.975 0-237.543 106.57-237.543 237.545s106.569 237.529 237.543 237.529c130.976 0 237.545-106.555 237.545-237.529s-106.569-237.545-237.545-237.545zM255.407 430.298c-113.893 0-206.555-92.648-206.555-206.54s92.663-206.555 206.555-206.555 206.556 92.663 206.556 206.555-92.663 206.54-206.556 206.54zM255.407 66.74c-56.924 0-109.732 28.402-141.234 75.975-4.721 7.127-2.77 16.735 4.373 21.469 7.142 4.738 16.734 2.786 21.471-4.373 25.737-38.873 68.878-62.082 115.389-62.082 46.498 0 89.637 23.21 115.391 62.098 4.721 7.142 14.329 9.094 21.486 4.357 7.126-4.735 9.079-14.342 4.357-21.485-31.531-47.557-84.324-75.959-141.232-75.959zM370.421 259.375c-10.94 0-18.127 7.612-18.127 17.568 0 10.093 7.187 18.053 18.127 18.053 11.046 0 18.233-7.96 18.233-18.053 0-9.956-7.186-17.568-18.233-17.568zM370.421 267.743c4.933 0 8.474 3.632 8.474 9.2 0 6.023-3.542 9.58-8.474 9.58-4.827 0-8.458-3.557-8.458-9.58-0.002-5.568 3.63-9.2 8.458-9.2zM372.13 223.227c-0.636-0.967-1.71-1.513-2.769-1.513-1.952 0-3.556 1.513-3.556 3.342 0 0.622 0.211 1.273 0.546 1.817l42.262 66.167c0.635 0.968 1.726 1.513 2.8 1.513 1.817 0 3.526-1.602 3.526-3.435 0-0.543-0.212-1.165-0.546-1.692l-42.263-66.199zM409.791 221.065c-10.955 0-18.142 7.73-18.142 17.718 0 10.093 7.187 18.005 18.142 18.005 10.94 0 18.233-7.913 18.233-18.005 0.002-9.988-7.292-17.718-18.233-17.718zM409.791 229.433c4.933 0 8.579 3.541 8.579 9.351 0 5.886-3.647 9.532-8.579 9.532s-8.458-3.648-8.458-9.532c0-5.81 3.526-9.351 8.458-9.351z" />
<glyph unicode="&#xe604;" d="M246.72 6.775c24.654 9.748 48.73 28.976 64.638 54.764 16.197 25.655 23.787 56.536 23.935 85.882 0.281 29.539-6.404 57.588-16.241 82.813-1.201 3.136-2.787 6.678-4.188 10l-3.558 7.872-3.084 6.441-2.313 5.411c-2.957 7.168-5.293 14.24-6.99 21.059-3.373 13.691-4.070 26.44-2.357 38.59 1.712 12.112 6.004 23.78 12.705 34.187 3.247 5.278 7.168 10.192 11.556 14.462 4.314 4.425 9.065 8.436 14.135 11.675 5.011 3.454 10.325 6.279 15.759 8.443 5.404 2.409 10.949 3.981 16.426 5.1 10.971 2.401 21.719 2.483 30.873 1.579 9.184-0.882 16.834-2.765 22.030-4.091 5.36-1.542 8.206-2.365 8.206-2.365l-0.304 0.623c-21.889 22.734-48.13 40.947-77.091 53.541-1.505 0.23-2.891 0.601-4.433 0.785-9.584 0.927-19.991 1.038-30.792-0.415-10.733-1.608-21.956-4.403-33.060-8.962-11.015-4.678-22.082-10.8-32.452-18.702-20.696-15.752-38.694-38.798-49.153-66.276-10.615-27.382-13.321-58.537-8.776-87.557 2.127-14.565 6.13-28.568 11.096-41.881 5.167-13.721 11.4-25.091 13.491-30.733 6.59-15.67 10.881-31.044 12.542-45.002 1.645-13.995 0.682-26.448-2.735-37.344-3.417-10.874-9.399-20.563-18.198-28.605-4.351-4.055-9.444-7.479-14.914-10.57-5.537-2.95-11.512-5.189-17.686-7.094-12.387-3.521-25.462-4.685-37.619-4.418-12.164 0.341-23.364 2.031-32.771 3.914-9.37 1.957-16.99 4.003-22.23 5.463-3.432 0.993-5.707 1.646-6.968 2.002 27.523-31.533 63.007-55.454 102.716-69.055 20.162-2.668 43.927-1.171 67.802 8.465z" />
<glyph unicode="&#xe605;" d="M396.207 125.884c0-77.427-62.776-140.22-140.228-140.22-77.427 0-140.203 62.784-140.203 140.22 0 77.452 140.203 336.452 140.203 336.452s140.228-259 140.228-336.452z" />
<glyph unicode="&#xe606;" d="M505.039 223.943l-219.255 219.44-0.015-116.966h-278.808v-204.691h278.781l-0.015-117.108z" />
<glyph unicode="&#xe607;" d="M9.664 97.921v115.601h81.803v-21.666h-57.193v-24.437h55.981v-21.666h-55.981v-47.831h-24.61zM207.925 97.921l-22.706 41.073h-18.025v-41.073h-24.611v115.601h54.073c24.091 0 38.822-15.776 38.822-37.268 0-20.448-12.825-31.369-25.302-34.315l25.996-44.018h-28.249zM210.351 176.255c0 9.711-7.452 15.601-17.333 15.601h-25.823v-31.195h25.823c9.881 0 17.333 5.89 17.333 15.594zM287.704 97.921v115.601h81.803v-21.666h-57.192v-24.437h55.978v-21.666h-55.978v-26.168h57.192v-21.663h-81.803zM424.18 97.921v115.601h81.803v-21.666h-57.191v-24.437h55.977v-21.666h-55.977v-26.168h57.191v-21.663h-81.803zM34.956 25.752v-8.059c0-9.7-4.852-15.243-14.206-15.243-9.357 0-14.208 5.544-14.208 15.243v31.536c0 9.7 4.851 15.243 14.208 15.243 9.355 0 14.206-5.544 14.206-15.243v-5.894h-9.010v6.495c0 4.334-1.904 5.981-4.937 5.981-3.031 0-4.938-1.648-4.938-5.981v-32.74c0-4.334 1.907-5.894 4.938-5.894 3.032 0 4.937 1.56 4.937 5.894v8.661h9.010zM73.221 3.142c-0.519 1.56-0.866 2.512-0.866 7.451v9.528c0 5.631-1.906 7.709-6.237 7.709h-3.291v-24.688h-9.529v60.639h14.38c9.876 0 14.121-4.589 14.121-13.95v-4.764c0-6.233-1.992-10.305-6.237-12.298 4.764-1.995 6.325-6.583 6.325-12.907v-9.358c0-2.945 0.086-5.11 1.039-7.364h-9.704zM62.828 55.121v-18.626h3.725c3.55 0 5.718 1.555 5.718 6.411v5.974c0 4.33-1.472 6.24-4.852 6.24h-4.591zM110.501 38.226h13.081v-8.661h-13.081v-17.762h16.459v-8.661h-25.989v60.639h25.989v-8.661h-16.459v-16.894zM145.345 63.781h15.074c9.528 0 14.207-5.286 14.207-14.985v-30.669c0-9.704-4.679-14.985-14.207-14.985h-15.074v60.639zM154.874 55.121v-43.317h5.371c3.031 0 4.85 1.56 4.85 5.89v31.536c0 4.33-1.819 5.89-4.85 5.89h-5.371zM193.261 63.781h9.53v-60.639h-9.53v60.639zM220.277 63.781h29.454v-8.661h-9.962v-51.979h-9.53v51.979h-9.962v8.661zM306.144 64.474c9.269 0 14.033-5.544 14.033-15.243v-1.91h-9.011v2.512c0 4.334-1.735 5.981-4.764 5.981-3.037 0-4.764-1.648-4.764-5.981 0-12.473 18.623-14.81 18.623-32.138 0-9.7-4.848-15.243-14.208-15.243-9.353 0-14.202 5.544-14.202 15.243v3.728h9.003v-4.33c0-4.334 1.91-5.894 4.938-5.894 3.037 0 4.94 1.56 4.94 5.894 0 12.473-18.623 14.81-18.623 32.138 0.001 9.7 4.764 15.243 14.034 15.243zM366.464 25.752v-8.059c0-9.7-4.848-15.243-14.209-15.243-9.353 0-14.2 5.544-14.2 15.243v31.536c0 9.7 4.848 15.243 14.2 15.243 9.361 0 14.209-5.544 14.209-15.243v-5.894h-9.011v6.495c0 4.334-1.902 5.981-4.933 5.981-3.036 0-4.938-1.648-4.938-5.981v-32.74c0-4.334 1.902-5.894 4.938-5.894 3.029 0 4.933 1.56 4.933 5.894v8.661h9.011zM384.424 49.231c0 9.7 5.114 15.243 14.467 15.243s14.467-5.544 14.467-15.243v-31.536c0-9.7-5.114-15.243-14.467-15.243s-14.467 5.544-14.467 15.243v31.536zM393.952 17.092c0-4.334 1.91-5.981 4.938-5.981s4.938 1.648 4.938 5.981v32.74c0 4.334-1.91 5.981-4.938 5.981s-4.938-1.648-4.938-5.981v-32.74zM451.973 3.142c-0.517 1.56-0.868 2.512-0.868 7.451v9.528c0 5.631-1.901 7.709-6.233 7.709h-3.295v-24.688h-9.529v60.639h14.384c9.871 0 14.117-4.589 14.117-13.95v-4.764c0-6.233-1.993-10.305-6.24-12.298 4.764-1.995 6.325-6.583 6.325-12.907v-9.358c0-2.945 0.091-5.11 1.043-7.364h-9.704zM441.577 55.121v-18.626h3.728c3.546 0 5.716 1.555 5.716 6.411v5.974c0 4.33-1.476 6.24-4.856 6.24h-4.589zM489.256 38.226h13.075v-8.661h-13.075v-17.762h16.454v-8.661h-25.983v60.639h25.983v-8.661h-16.454v-16.894zM136.453 293.685l-11.544 15.692 116.308 85.559 31.59-42.941 114.752 84.411 11.545-15.692-130.445-95.956-31.591 42.941zM394.385 370.788l-19.261 2.933 7.112 46.676-46.678 7.109 2.938 19.262 65.933-10.044zM4.837 264.633h502.327v-7.793h-502.327v7.793z" />
<glyph unicode="&#xe608;" d="M103.317 70.099c-1.243 0-2.486 0.502-3.371 1.41-0.909 0.885-1.41 2.104-1.41 3.373 0 1.24 0.501 2.483 1.41 3.369 1.791 1.794 4.948 1.794 6.74 0.026 0.909-0.911 1.41-2.151 1.41-3.392 0-1.269-0.501-2.488-1.41-3.373-0.883-0.911-2.103-1.413-3.369-1.413zM421.862 88.695c-2.081 1.625-2.439 4.638-0.817 6.719v0c1.627 2.079 4.64 2.437 6.719 0.812v0c2.079-1.651 2.437-4.638 0.812-6.719v0c-0.956-1.219-2.34-1.839-3.776-1.839v0c-1.029 0-2.079 0.332-2.938 1.026zM83.835 89.938v0 0c-1.627 2.079-1.269 5.067 0.812 6.693v0c2.081 1.625 5.092 1.267 6.719-0.815v0c1.624-2.079 1.243-5.090-0.835-6.719v0c-0.862-0.666-1.912-1.003-2.917-1.003v0c-1.439 0.002-2.849 0.624-3.778 1.844zM435.964 107.986c-2.246 1.387-2.94 4.325-1.551 6.573v0c1.387 2.246 4.348 2.938 6.596 1.554v0c2.246-1.387 2.938-4.327 1.551-6.573v0c-0.909-1.483-2.486-2.272-4.087-2.272v0c-0.86 0.002-1.721 0.216-2.51 0.718zM69.899 109.994c-1.386 2.248-0.671 5.187 1.578 6.573v0c2.248 1.387 5.189 0.671 6.573-1.577v0c1.386-2.246 0.671-5.187-1.575-6.575v0c-0.788-0.478-1.65-0.692-2.486-0.692v0c-1.629 0-3.18 0.812-4.090 2.272zM447.843 128.71c-2.392 1.149-3.418 3.99-2.269 6.382v0c1.123 2.392 3.969 3.392 6.358 2.272v0c2.392-1.123 3.416-3.99 2.269-6.358v0c-0.815-1.742-2.533-2.75-4.327-2.75v0c-0.668 0-1.363 0.144-2.031 0.454zM58.281 131.483c0 0 0 0 0.023 0v0c-1.147 2.392-0.117 5.236 2.272 6.358v0c2.392 1.125 5.259 0.096 6.383-2.296v0c1.123-2.392 0.070-5.236-2.319-6.358v0c-0.645-0.311-1.34-0.454-2.008-0.454v0c-1.818 0-3.536 1.029-4.351 2.75zM457.333 150.656c-2.507 0.86-3.849 3.562-2.988 6.072v0c0.857 2.507 3.562 3.825 6.072 2.988v0c2.486-0.857 3.823-3.583 2.988-6.072v0c-0.692-1.985-2.557-3.249-4.541-3.249v0c-0.502-0.002-1.026 0.092-1.53 0.262zM49.175 154.145c-0.861 2.486 0.478 5.212 2.987 6.046v0c2.486 0.861 5.21-0.478 6.048-2.988v0c0.859-2.51-0.478-5.212-2.987-6.072v0c-0.502-0.167-1.029-0.24-1.53-0.24v0c-1.987 0.002-3.849 1.243-4.517 3.253zM464.289 173.529c-2.582 0.551-4.233 3.108-3.659 5.69v0c0.575 2.582 3.131 4.204 5.714 3.635v0c2.582-0.551 4.207-3.11 3.635-5.692v0c-0.504-2.22-2.462-3.752-4.661-3.752v0c-0.334 0.002-0.695 0.050-1.029 0.12zM42.649 177.666v0 0c-0.575 2.58 1.076 5.139 3.633 5.69v0c2.583 0.572 5.142-1.076 5.714-3.659v0c0.548-2.582-1.076-5.115-3.656-5.69v0c-0.358-0.070-0.692-0.094-1.029-0.094v0c-2.199 0-4.186 1.53-4.662 3.752zM468.616 197.029c-2.63 0.287-4.517 2.627-4.257 5.26v0c0.287 2.627 2.63 4.515 5.257 4.254v0c2.632-0.285 4.543-2.63 4.257-5.257v0c-0.262-2.462-2.317-4.277-4.735-4.277v0c-0.163-0.002-0.332-0.002-0.522 0.021zM38.797 201.784v0 0c-0.261 2.63 1.651 4.972 4.257 5.236v0c2.63 0.287 4.972-1.625 5.26-4.254v0c0.264-2.632-1.651-4.972-4.28-5.26v0c-0.167 0-0.334-0.026-0.478-0.026v0c-2.437 0-4.492 1.841-4.758 4.303zM465.533 225.616c-0.024 2.653 2.104 4.805 4.736 4.828v0c2.651 0 4.803-2.128 4.826-4.758v0c0-2.653-2.126-4.805-4.758-4.805v0c-0.024 0-0.024 0-0.047 0v0c-2.604 0.002-4.758 2.107-4.758 4.734zM42.385 221.362c-2.63 0.024-4.758 2.175-4.734 4.808v0c0.026 2.653 2.175 4.781 4.828 4.756v0c2.63-0.024 4.758-2.199 4.732-4.828v0c-0.023-2.63-2.151-4.735-4.782-4.735v0c-0.021 0-0.021 0-0.044 0zM464.099 248.923c-0.311 2.63 1.577 4.995 4.183 5.306v0c2.627 0.311 4.993-1.554 5.306-4.184v0c0.311-2.627-1.579-4.995-4.183-5.306v0c-0.19-0.024-0.384-0.024-0.575-0.024v0c-2.392 0-4.445 1.794-4.732 4.207zM43.364 245.218c-2.606 0.311-4.471 2.701-4.184 5.333v0c0 0 0 0 0.023 0v0c0.311 2.604 2.676 4.469 5.306 4.16v0c2.604-0.311 4.494-2.679 4.184-5.306v0c-0.287-2.436-2.366-4.207-4.758-4.207v0c-0.188-0.002-0.382-0.002-0.572 0.021zM460.082 271.945v0c-0.598 2.556 1.003 5.139 3.583 5.737v0c2.559 0.598 5.142-1.003 5.74-3.586v0 0 0c0.598-2.557-1.005-5.139-3.586-5.737v0c-0.358-0.071-0.716-0.118-1.076-0.118v0c-2.175-0.002-4.134 1.479-4.661 3.703zM46.997 268.837c-2.556 0.598-4.16 3.18-3.562 5.76v0c0.596 2.557 3.178 4.16 5.737 3.536v0c2.58-0.598 4.184-3.155 3.562-5.737v0c-0.502-2.199-2.46-3.682-4.638-3.682v0c-0.358 0-0.739 0.026-1.099 0.122zM453.534 294.342c-0.883 2.486 0.431 5.21 2.917 6.095v0c2.486 0.885 5.21-0.405 6.095-2.894v0c0.885-2.486-0.431-5.21-2.914-6.095v0c-0.527-0.193-1.053-0.287-1.603-0.287v0c-1.961 0-3.8 1.219-4.494 3.18zM53.238 291.904c-2.486 0.883-3.776 3.632-2.894 6.119v0c0.908 2.486 3.633 3.776 6.121 2.893v0c2.486-0.883 3.776-3.632 2.894-6.118v0c-0.692-1.961-2.533-3.181-4.494-3.181v0c-0.551 0-1.078 0.096-1.627 0.287zM444.498 315.879c-1.149 2.366-0.167 5.236 2.199 6.382v0c2.392 1.173 5.238 0.167 6.408-2.201v0c1.147-2.366 0.167-5.236-2.223-6.406v0c-0.668-0.311-1.387-0.478-2.081-0.478v0c-1.771 0.002-3.467 1.005-4.303 2.702zM62.057 314.132c-2.392 1.147-3.371 4.017-2.199 6.382v0c1.172 2.392 4.017 3.347 6.406 2.201v0c2.366-1.173 3.346-4.040 2.175-6.406v0c-0.812-1.697-2.533-2.676-4.303-2.676v0c-0.692 0-1.408 0.167-2.079 0.499zM433.12 336.245c-1.413 2.246-0.765 5.187 1.483 6.596v0c2.22 1.41 5.161 0.765 6.596-1.457v0c1.413-2.249 0.739-5.189-1.483-6.599v0c-0.788-0.527-1.674-0.765-2.557-0.765v0c-1.579 0.003-3.131 0.791-4.040 2.225zM73.293 335.216c-2.249 1.433-2.894 4.374-1.483 6.596v0c0 0 0 0 0.026 0v0c1.41 2.222 4.372 2.894 6.597 1.457v0c2.225-1.41 2.87-4.372 1.46-6.596v0c-0.909-1.433-2.463-2.199-4.040-2.199v0c-0.888 0.002-1.77 0.24-2.559 0.741zM419.541 355.248h-0.026c-1.646 2.055-1.313 5.069 0.741 6.716v0c2.055 1.651 5.067 1.316 6.719-0.739v0 0 0c1.648-2.055 1.335-5.069-0.718-6.719v0c-0.885-0.716-1.938-1.053-2.99-1.053v0c-1.406 0.002-2.792 0.622-3.726 1.794zM86.799 354.914c-2.055 1.674-2.366 4.685-0.718 6.743v0c1.65 2.055 4.662 2.366 6.719 0.718v0c2.055-1.674 2.389-4.685 0.716-6.74v0c-0.933-1.173-2.319-1.768-3.706-1.768v0c-1.076-0.004-2.128 0.353-3.011 1.048zM403.909 372.601c-1.865 1.865-1.865 4.901 0 6.766v0c1.865 1.864 4.875 1.888 6.764 0.023v0c1.865-1.864 1.865-4.901 0-6.766v0c-0.933-0.933-2.149-1.41-3.392-1.41v0c-1.219 0.002-2.439 0.457-3.371 1.387zM102.408 373.010c-1.841 1.865-1.841 4.899 0.047 6.764v0c1.865 1.841 4.901 1.841 6.766-0.050v0c1.841-1.864 1.841-4.899-0.049-6.74v0c-0.933-0.933-2.151-1.387-3.346-1.387v0c-1.243 0-2.463 0.454-3.418 1.412zM386.483 388.139c-2.079 1.65-2.413 4.661-0.763 6.719v0c1.625 2.079 4.635 2.413 6.716 0.765v0c2.058-1.651 2.413-4.638 0.765-6.719v0c-0.956-1.196-2.342-1.791-3.755-1.791v0c-1.053 0-2.081 0.334-2.964 1.026zM119.954 389.24c-1.648 2.079-1.316 5.092 0.765 6.716v0c2.081 1.65 5.092 1.29 6.719-0.786v0c1.65-2.058 1.29-5.069-0.788-6.693v-0.023c-0.859-0.692-1.912-1.029-2.941-1.029v0c-1.412-0.002-2.823 0.619-3.755 1.815zM367.407 401.647c-2.22 1.41-2.914 4.351-1.507 6.597v0c1.413 2.222 4.351 2.893 6.599 1.506v0 0 0c2.22-1.41 2.914-4.374 1.507-6.596v0c-0.909-1.457-2.465-2.249-4.065-2.249v0c-0.86 0-1.745 0.238-2.533 0.742zM139.148 403.439c-1.387 2.246-0.715 5.187 1.53 6.573v0c2.249 1.41 5.189 0.718 6.596-1.507v0c1.387-2.246 0.718-5.186-1.528-6.596v0c-0.788-0.478-1.674-0.718-2.533-0.718v0c-1.579 0-3.157 0.788-4.065 2.248zM346.97 412.928v0c-2.392 1.147-3.373 4.017-2.224 6.382v0c1.125 2.389 3.99 3.393 6.358 2.246v0c2.392-1.147 3.392-4.017 2.248-6.383v0c-0.838-1.721-2.536-2.7-4.303-2.7v0c-0.718 0-1.41 0.144-2.079 0.454zM159.825 415.391c-1.147 2.389-0.118 5.257 2.249 6.382v0c2.392 1.147 5.236 0.144 6.382-2.249v0c1.147-2.389 0.12-5.233-2.246-6.382v0c-0.671-0.311-1.363-0.455-2.058-0.455v0c-1.794 0-3.515 1.005-4.327 2.703zM325.385 421.87v0c-2.488 0.861-3.802 3.609-2.943 6.095v0c0.885 2.486 3.611 3.8 6.098 2.941v0c2.488-0.883 3.8-3.609 2.94-6.095v0c-0.695-1.984-2.533-3.204-4.517-3.204v0c-0.525 0-1.053 0.073-1.577 0.264zM181.721 424.975c-0.885 2.51 0.454 5.236 2.94 6.095v0c2.486 0.862 5.21-0.454 6.095-2.964v0c0.859-2.486-0.454-5.212-2.964-6.072v0c-0.501-0.193-1.053-0.263-1.554-0.263v0c-1.984 0.002-3.847 1.245-4.518 3.204zM302.94 428.323c-2.582 0.575-4.183 3.157-3.611 5.714v0c0.598 2.583 3.157 4.207 5.74 3.609v0c2.582-0.598 4.181-3.155 3.606-5.712v0c-0.525-2.223-2.486-3.729-4.659-3.729v0c-0.36 0-0.718 0.047-1.076 0.118zM204.524 432.052c-0.572 2.559 1.053 5.115 3.632 5.713v0 0 0c2.583 0.572 5.115-1.052 5.714-3.632v0c0.575-2.556-1.053-5.115-3.609-5.714v0c-0.358-0.070-0.718-0.12-1.053-0.12v0c-2.196 0-4.181 1.53-4.685 3.752zM279.918 432.221v0c-2.627 0.285-4.517 2.653-4.207 5.283v0c0.287 2.63 2.656 4.517 5.283 4.207v0c2.604-0.287 4.494-2.653 4.209-5.283v0c-0.264-2.439-2.345-4.231-4.735-4.231v0c-0.193-0.002-0.36-0.002-0.551 0.024zM227.998 436.496c-0.285 2.63 1.627 4.998 4.231 5.285v0 0 0c2.63 0.285 4.998-1.627 5.283-4.231v0c0.287-2.63-1.601-4.998-4.231-5.285v0c-0.167-0.023-0.36-0.023-0.528-0.023v0c-2.413 0-4.492 1.817-4.756 4.254zM251.832 438.314c0 2.629 2.128 4.781 4.781 4.781v0c2.63 0 4.779-2.151 4.779-4.805v0c0-2.63-2.149-4.758-4.779-4.758v0c-2.653 0.002-4.781 2.13-4.781 4.781zM408.834 69.502c-1.267 0-2.486 0.502-3.392 1.41-0.885 0.885-1.387 2.126-1.387 3.373 0 1.24 0.502 2.483 1.387 3.392 1.794 1.768 4.995 1.768 6.764 0 0.885-0.911 1.413-2.151 1.413-3.392 0-1.245-0.527-2.488-1.413-3.373-0.887-0.909-2.13-1.41-3.371-1.41zM256.366-24.589c-137.276 0-248.958 111.679-248.958 248.955 0 137.274 111.681 248.955 248.958 248.955s248.957-111.681 248.957-248.955c0-137.274-111.681-248.955-248.957-248.955zM256.366 463.76c-132.002 0-239.394-107.392-239.394-239.394 0-132.001 107.392-239.395 239.394-239.395 132 0 239.394 107.394 239.394 239.394 0 132.002-107.394 239.394-239.394 239.394zM120.286 57.902c4.471 6.102 11.938 6.584 17.579 2.45 4.018-2.943 5.052-6.813 4.824-10.156l-4.769 0.65c0.132 1.994-0.671 4.358-2.724 5.862-3.499 2.566-8.016 1.74-10.686-1.904-2.672-3.647-2.095-8.197 1.403-10.764 1.704-1.248 3.875-1.685 5.186-1.533l1.695 2.314-5.090 3.729 2.63 3.588 9.198-6.743-5.424-7.401c-3.578-0.758-7.388-0.195-10.886 2.37-5.643 4.139-7.388 11.462-2.936 17.536zM150.815 34.382l6.375 12.889 4.629-2.291-6.295-12.727c-1.478-2.99-0.758-5.904 2.552-7.541 3.31-1.639 6.031-0.424 7.507 2.566l6.295 12.727 4.659-2.305-6.358-12.858c-2.642-5.334-7.585-7.409-14.109-4.178-6.524 3.226-7.863 8.447-5.255 13.718zM197.071 5.547l-0.233 4.301-9.815 2.974-2.615-3.444-5.56 1.683 15.782 20.211 6.107-1.848 1.895-25.558-5.56 1.681zM196.209 25.474l-6.552-8.769 7.138-2.161-0.586 10.93zM231.018-0.875l-3.546 9.036-3.696 0.488-1.111-8.421-5.050 0.666 3.129 23.709 11.090-1.462c4.941-0.65 7.536-4.284 6.952-8.694-0.553-4.193-3.477-6.091-6.116-6.354l4.138-9.73-5.792 0.763zM233.636 15.124c0.262 1.994-1.104 3.399-3.131 3.67l-5.297 0.699-0.845-6.399 5.297-0.699c2.027-0.266 3.713 0.737 3.976 2.728zM269.656-1.767l-1.587 4.012-10.25-0.287-1.394-4.094-5.805-0.16 8.579 24.163 6.382 0.182 9.878-23.652-5.803-0.163zM262.531 16.866l-3.44-10.392 7.456 0.209-4.017 10.182zM306.762 3.363l-14.231 13.068 3.048-15.296-4.993-0.998-4.671 23.455 5.13 1.024 13.803-12.569-2.935 14.735 4.993 0.993 4.673-23.45-4.817-0.963zM333.733 11.454l-6.834 18.191-6.545-2.458-1.575 4.193 17.856 6.709 1.575-4.19-6.512-2.446 6.834-18.195-4.8-1.803zM359.714 22.728l-11.663 20.88 14.771 8.252 2.187-3.915-10.331-5.768 2.467-4.414 10.111 5.647 2.187-3.911-10.111-5.65 2.639-4.725 10.328 5.768 2.187-3.915-14.772-8.249zM388.564 40.387l-14.639 18.913 13.382 10.356 2.743-3.546-9.356-7.239 3.094-4 9.158 7.086 2.748-3.543-9.163-7.089 3.313-4.28 9.358 7.241 2.743-3.543-13.379-10.358zM256.368 37.661c-102.95 0-186.705 83.755-186.705 186.705s83.756 186.702 186.705 186.702c102.947 0 186.702-83.753 186.702-186.702s-83.755-186.705-186.702-186.705zM256.368 406.288c-100.313 0-181.923-81.611-181.923-181.922 0-100.313 81.611-181.922 181.923-181.922 100.31 0 181.919 81.608 181.919 181.922 0 100.311-81.608 181.922-181.919 181.922zM161.133 319.064c11.5 0 14.073 5.544 16.369 11.905h10.007v-94.691h-14.879v72.234h-11.5v10.551zM231.341 308.244c0 15.147 7.981 23.808 22.591 23.808s22.591-8.661 22.591-23.808v-49.243c0-15.149-7.983-23.808-22.591-23.808-14.61 0-22.591 8.659-22.591 23.808v49.243zM246.22 258.055c0-6.766 2.976-9.332 7.71-9.332s7.712 2.566 7.712 9.332v51.136c0 6.763-2.978 9.332-7.713 9.332s-7.71-2.569-7.71-9.332v-51.136zM311.961 308.244c0 15.147 7.981 23.808 22.594 23.808 14.606 0 22.594-8.661 22.594-23.808v-49.243c0-15.149-7.988-23.808-22.594-23.808-14.613 0-22.594 8.659-22.594 23.808v49.243zM326.841 258.055c0-6.766 2.978-9.332 7.712-9.332 4.732 0 7.707 2.566 7.707 9.332v51.136c0 6.763-2.978 9.332-7.707 9.332-4.736 0-7.712-2.569-7.712-9.332v-51.136zM153.761 211.375h23.54c14.883 0 22.181-8.254 22.181-23.406v-47.887c0-15.151-7.3-23.401-22.181-23.401h-23.54v94.694zM168.642 197.844v-67.634h8.391c4.732 0 7.576 2.435 7.576 9.198v49.243c0 6.762-2.844 9.193-7.576 9.193h-8.391zM284.031 116.683h-15.020l-2.571 17.181h-18.262l-2.571-17.181h-13.664l15.154 94.695h21.779l15.154-94.695zM250.076 146.715h14.337l-7.171 47.889-7.166-47.889zM325.288 148.068l-18.803 63.307h15.552l11.366-43.155 11.364 43.155h14.205l-18.803-63.307v-31.387h-14.881z" />
<glyph unicode="&#xe609;" d="M449.248 480l33.622-285.78-37.74-4.44-30.026 255.22h-318.208l-30.026-255.22-37.74 4.44 33.621 285.78zM128 416h256v-32h-256zM128 352h256v-32h-256zM128 288h256v-32h-256zM128 224h256v-32h-256zM496 160h-480c-8.8 0-13.723-6.83-10.94-15.179l53.88-161.642c2.783-8.349 12.26-15.179 21.060-15.179h352c8.8 0 18.276 6.83 21.060 15.179l53.881 161.643c2.783 8.348-2.141 15.178-10.941 15.178zM320 96h-128v32h128v-32z" />
<glyph unicode="&#xe60a;" d="M48 256c-36.5 0-16 96 16 96-16 0 0 80 32 80 0 32 32 48 64 48 135.176 0 87.632-33.825 224-48v-256c-120.461-36.134-240-126.712-240-208-26.5 0-96 32 0 192 0 0-80 0-96 0-48 0-32 96 0 96zM416 176v256h-32v16h64c17.6 0 32-21.6 32-48v-192c0-26.4-14.4-48-32-48h-64v16h32z" />
<glyph unicode="&#xe60b;" d="M0 224c0-141.385 114.615-256 256-256 141.386 0 256 114.615 256 256s-114.614 256-256 256c-141.385 0-256-114.615-256-256zM448 224c0-36.618-10.256-70.84-28.044-99.956l-263.911 263.912c29.115 17.789 63.337 28.044 99.955 28.044 106.038 0 192-85.961 192-192zM64 224c0 36.618 10.256 70.839 28.045 99.956l263.911-263.912c-29.117-17.789-63.338-28.044-99.956-28.044-106.038 0-192 85.961-192 192z" />
<glyph unicode="&#xe60c;" d="M224 122.667c0-14.72 11.947-26.667 26.667-26.667s26.667 11.947 26.667 26.667-11.947 26.666-26.667 26.666-26.667-11.946-26.667-26.666zM42.667 480c-23.574 0-42.667-19.093-42.667-42.667v-426.667c0-23.573 19.093-42.667 42.667-42.667h426.667c23.573 0 42.667 19.093 42.667 42.667l-0.001 363.521c0 14.293-5.643 26.987-14.72 36.16l-54.187 53.973c-9.589 9.707-23.040 15.68-37.76 15.68h-362.666zM76.8 426.667h29.867v-83.2c0-13.013 10.453-23.467 23.467-23.467h27.733c13.013 0 23.467 10.453 23.467 23.467l-0.001 83.2h200.533c13.014 0 23.467-10.454 23.467-23.467v-102.4c0-13.013-10.453-23.467-23.467-23.467h-305.066c-13.013 0-23.467 10.454-23.467 23.467v102.4c0 13.013 10.454 23.467 23.467 23.467zM181.333 122.667c0 38.293 31.040 69.333 69.333 69.333s69.333-31.040 69.333-69.333-31.039-69.334-69.332-69.334-69.334 31.040-69.334 69.334z" />
<glyph unicode="&#xe800;" d="M378.952 158.976h46.080v-99.328c0-16.896-13.312-30.208-30.208-30.208h-365.056c-16.896 0-30.72 13.312-30.72 30.208v257.536c0 17.408 14.336 30.72 30.72 30.72h117.248v-46.080h-101.888v-225.792h333.312v83.456zM144.456 144.64s0.512 197.632 145.408 197.632l-17.408 75.776 169.472-119.296-169.472-120.832 18.432 84.992s-127.488-0.512-127.488-118.272h-19.456z" horiz-adv-x="442" />
<glyph unicode="&#xe801;" d="M253.952 141.568l33.28 33.28-43.52 43.52-33.28-33.28v-15.872h27.648v-27.648h15.872zM379.904 347.392q-4.608 4.608-9.216-0.512l-99.84-99.84q-4.608-4.608-0.512-9.216t9.216 0.512l99.84 99.84q4.608 4.608 0.512 9.216zM402.944 177.92v-54.272q0-33.792-24.064-58.368t-58.368-24.064h-237.568q-33.792 0-58.368 24.064t-24.064 58.368v237.568q0 33.792 24.064 58.368t58.368 24.064h237.568q17.92 0 33.28-7.168 4.096-2.048 5.12-6.656t-2.56-8.192l-13.824-13.824q-4.096-4.096-9.216-2.048-6.656 1.536-12.8 1.536h-237.568q-18.944 0-32.256-13.312t-13.312-32.256v-237.568q0-18.944 13.312-32.256t32.256-13.312h237.568q18.944 0 32.256 13.312t13.312 32.256v35.84q0 3.584 2.56 6.144l18.432 18.432q4.096 4.096 10.24 2.048t5.632-8.192zM375.296 388.864l82.432-82.432-192-192h-82.432v82.432zM502.272 350.976l-26.112-26.112-82.432 82.432 26.112 26.112q8.192 8.192 19.456 8.192t19.456-8.192l43.52-43.52q8.192-8.192 8.192-19.456t-8.192-19.456z" />
<glyph unicode="&#xe802;" d="M603 241.901q0-64.443-40.405-119.679t-109.962-86.947-151.389-31.71q-62.397 0-119.679 19.947l1.023-1.534-182.588-54.725q22.504 30.176 36.313 64.954t16.366 54.214l2.046 19.435q-54.214 61.374-54.214 136.046 0 64.443 40.405 119.168t109.962 86.435 151.389 31.71 151.389-31.71 109.962-86.435 40.405-119.168z" horiz-adv-x="603" />
<glyph unicode="&#xe803;" d="M381.952 151.808l130.048-130.56-53.76-53.76-130.048 130.048q-54.272-36.864-118.784-36.864-86.528 0-147.968 61.44t-61.44 147.968 61.44 147.968 147.968 61.44 147.968-61.44 61.44-147.968q0-65.024-36.864-118.272zM348.672 270.080q0 57.856-40.96 98.816t-98.816 40.96-98.816-40.96-40.96-98.816 40.96-98.816 98.816-40.96 98.816 40.96 40.96 98.816z" />
<glyph unicode="&#xe80c;" d="M292.066 278.784q0-7.68-5.632-12.8l-128-128q-5.632-5.632-12.8-5.632t-12.8 5.632l-128 128q-5.632 5.632-5.632 12.8t5.632 12.8 12.8 5.632h256q7.68 0 12.8-5.632t5.632-12.8z" horiz-adv-x="292" />
<glyph unicode="&#xe80d;" d="M292.066 132.352q0-7.68-5.632-12.8t-12.8-5.632h-256q-7.68 0-12.8 5.632t-5.632 12.8 5.632 12.8l128 128q5.632 5.632 12.8 5.632t12.8-5.632l128-128q5.632-5.632 5.632-12.8z" horiz-adv-x="292" />
<glyph unicode="&#xe80e;" d="M182.355 352v-256q0-7.68-5.632-12.8t-12.8-5.632-12.8 5.632l-128 128q-5.632 5.632-5.632 12.8t5.632 12.8l128 128q5.632 5.632 12.8 5.632t12.8-5.632 5.632-12.8z" horiz-adv-x="182" />
<glyph unicode="&#xe80f;" d="M163.923 224q0-7.68-5.632-12.8l-128-128q-5.632-5.632-12.8-5.632t-12.8 5.632-5.632 12.8v256q0 7.68 5.632 12.8t12.8 5.632 12.8-5.632l128-128q5.632-5.632 5.632-12.8z" horiz-adv-x="182" />
<glyph unicode="&#xe810;" d="M14.96 344.832q-16.384 9.216-14.336 20.48 1.024 7.168 13.312 7.168h433.152q19.456 0 10.24-16.384-4.096-7.168-12.288-11.264-7.168-3.072-98.304-52.224t-93.184-50.176q-8.192-5.12-23.552-5.12-14.336 0-23.552 5.12-2.048 1.024-93.184 50.176t-98.304 52.224zM450.16 293.632q10.24 5.12 10.24-5.12v-188.416q0-8.192-8.704-16.384t-16.896-8.192h-409.6q-8.192 0-16.896 8.192t-8.704 16.384v188.416q0 10.24 10.24 5.12l196.608-102.4q9.216-5.12 23.552-5.12t23.552 5.12z" horiz-adv-x="460" />
<glyph unicode="&#xe811;" d="M327.48 288.512q10.24 0 20.48-9.728t10.24-20.992v-199.68q0-24.576-24.576-33.792l-30.72-9.216q-21.504-8.192-49.152-8.192h-148.48q-28.672 0-50.176 8.192l-30.72 9.216q-24.576 9.216-24.576 33.792v199.68q0 11.264 7.68 20.992t17.92 9.728h51.2v35.84q0 56.32 26.112 87.040t76.288 30.72 76.288-30.72 26.112-87.040v-35.84h46.080zM127.8 334.592v-46.080h102.4v46.080q0 26.624-13.824 41.472t-37.376 14.848-37.376-14.848-13.824-41.472z" horiz-adv-x="358" />
<glyph unicode="&#xe812;" d="M327.48 275.2q10.24 0 20.48-10.24t10.24-20.48v-199.68q0-10.24-7.168-19.968t-17.408-12.8l-30.72-10.24q-26.624-8.192-49.152-8.192h-148.48q-23.552 0-50.176 8.192l-30.72 10.24q-10.24 3.072-17.408 12.8t-7.168 19.968v199.68q0 11.264 7.68 20.992t17.92 9.728h204.8v71.68q0 56.32-51.2 56.32t-51.2-56.32v-20.48h-51.2v10.24q0 56.32 26.112 87.040t76.288 30.72q102.4 0 102.4-117.76v-61.44h46.080z" horiz-adv-x="358" />
<glyph unicode="&#xe813;" d="M225 449.28l61.44-172.032h163.84l-134.144-100.352 48.128-178.176-139.264 106.496-139.264-106.496 48.128 178.176-134.144 100.352h163.84z" horiz-adv-x="450" />
<glyph unicode="&#xe814;" d="M450.28 277.248l-134.144-100.352 48.128-178.176-139.264 106.496-139.264-106.496 48.128 178.176-134.144 100.352h163.84l61.44 172.032 61.44-172.032h163.84zM225 155.392l76.8-63.488-31.744 91.136 73.728 58.368-90.112-2.048-28.672 103.424-27.648-103.424-90.112 2.048 72.704-58.368-31.744-91.136z" horiz-adv-x="450" />
<glyph unicode="&#xe815;" d="M376.692 110.336q104.448-36.864 104.448-62.464v-54.272h-481.28v54.272q0 25.6 104.448 62.464 48.128 17.408 65.536 35.328t17.408 48.64q0 11.264-11.264 25.088t-16.384 37.376q-1.024 6.144-4.608 9.216t-7.168 4.096-7.168 8.704-4.608 22.016q0 8.192 2.56 13.312t4.608 6.144l2.048 2.048q-4.096 25.6-6.144 45.056-2.048 27.648 20.992 57.344t80.384 29.696 80.896-29.696 20.48-57.344l-6.144-45.056q9.216-4.096 9.216-21.504-1.024-14.336-4.608-22.016t-7.168-8.704-7.168-4.096-4.608-9.216q-4.096-24.576-15.872-37.888t-11.776-24.576q0-30.72 17.92-48.64t65.024-35.328z" horiz-adv-x="481" />
<glyph unicode="&#xe816;" d="M332.6 249.6q11.264 0 18.432-7.68t7.168-17.92-7.68-17.92-17.92-7.68h-307.2q-10.24 0-17.92 7.68t-7.68 17.92 7.168 17.92 18.432 7.68h307.2zM25.4 300.8q-10.24 0-17.92 7.68t-7.68 17.92 7.168 17.92 18.432 7.68h307.2q11.264 0 18.432-7.68t7.168-17.92-7.68-17.92-17.92-7.68h-307.2zM332.6 147.2q11.264 0 18.432-7.68t7.168-17.92-7.68-17.92-17.92-7.68h-307.2q-10.24 0-17.92 7.68t-7.68 17.92 7.168 17.92 18.432 7.68h307.2z" horiz-adv-x="358" />
<glyph unicode="&#xe817;" d="M383.7 454.4q11.264 0 18.432-7.68t7.168-17.92v-435.2h-102.4v435.2q0 25.6 20.48 25.6h56.32zM230.1 300.8q11.264 0 18.432-7.68t7.168-17.92v-281.6h-102.4v281.6q0 25.6 20.48 25.6h56.32zM76.5 147.2q11.264 0 18.432-7.68t7.168-17.92v-128h-102.4v128q0 25.6 20.48 25.6h56.32z" horiz-adv-x="409" />
<glyph unicode="&#xe818;" d="M256 374.528h-72.704q-7.168 0-12.8-7.68t-5.632-18.944v-52.224h91.136v-75.776h-91.136v-226.304h-87.040v226.304h-77.824v75.776h77.824v44.032q0 48.128 30.208 81.408t75.264 33.28h72.704v-79.872z" horiz-adv-x="256" />
<glyph unicode="&#xe819;" d="M471.020 370.432q-18.432-27.648-48.128-50.176v-12.288q0-66.56-30.72-128t-95.232-103.936-148.48-42.496q-81.92 0-148.48 43.008 7.168-1.024 23.552-1.024 67.584 0 119.808 40.96-31.744 1.024-56.32 19.456t-33.792 48.128q5.12-2.048 17.408-2.048 13.312 0 25.6 3.072-33.792 7.168-55.296 33.792t-21.504 61.44v1.024q18.432-10.24 43.008-12.288-43.008 29.696-43.008 80.896 0 24.576 13.312 48.128 78.848-96.256 199.68-100.352-3.072 9.216-3.072 21.504 0 39.936 28.16 68.096t69.12 28.16q41.984 0 69.632-29.696 30.72 6.144 61.44 22.528-10.24-33.792-41.984-53.248 28.672 4.096 55.296 15.36z" horiz-adv-x="471" />
<glyph unicode="&#xe81a;" d="M163.672 142.080q-13.312-66.56-29.696-108.032t-49.152-66.048q-3.072 37.888-3.584 61.44t5.632 56.32 11.264 53.248 13.312 50.688 12.288 50.688q-12.288 26.624-9.728 59.392t24.576 54.272 50.688 10.24q20.48-8.192 22.528-30.208t-6.656-48.64-16.384-52.736-2.048-46.080 32.256-25.088q34.816-7.168 61.952 19.456t37.888 67.072 5.632 83.456-27.648 65.536q-31.744 32.768-77.312 35.84t-83.456-16.896-61.44-59.904-16.384-87.040q2.048-11.264 11.264-26.624t10.752-24.064-8.704-34.304q-74.752 17.408-71.68 117.76 2.048 70.656 53.76 119.808t119.296 57.344q83.968 9.216 148.48-29.184t73.728-112.128q13.312-90.112-33.792-162.304t-129.024-66.048q-11.264 1.024-21.504 4.608t-15.36 6.656-15.872 10.752-15.872 10.752z" horiz-adv-x="398" />
<glyph unicode="&#xe81b;" d="M353.12 224q0 13.312-3.072 25.6h90.112v-176.128q0-28.672-19.968-49.152t-48.64-20.48h-303.104q-28.672 0-48.64 20.48t-19.968 49.152v176.128h89.088q-2.048-16.384-2.048-25.6 0-54.272 38.912-93.696t94.208-39.424q54.272 0 93.696 39.424t39.424 93.696zM371.552 444.16q28.672 0 48.64-19.968t19.968-48.64v-74.752h-111.616q-39.936 56.32-108.544 56.32-70.656 0-108.544-56.32h-111.616v74.752q0 28.672 19.968 48.64t48.64 19.968h303.104zM404.32 359.168v36.864q0 12.288-12.288 12.288h-36.864q-12.288 0-12.288-12.288v-36.864q0-4.096 3.584-8.192t8.704-4.096h36.864q12.288 0 12.288 12.288zM301.92 224q0-33.792-24.064-57.856t-57.856-24.064-57.856 24.064-24.064 57.856q0 34.816 24.064 58.368t57.856 23.552 57.856-23.552 24.064-58.368z" horiz-adv-x="440" />
<glyph unicode="&#xe81c;" d="M233.256 294.144q0 48.64-34.304 82.432t-82.944 33.792-82.432-33.792-33.792-82.432q0-70.656 46.592-117.248 18.432-18.432 65.536-53.248t83.968-60.416l37.888-25.6q143.872 97.28 186.368 139.776 46.592 46.592 46.592 117.248 0 48.64-33.792 82.432t-82.432 33.792-82.432-33.792-33.792-82.432z" horiz-adv-x="466" />
<glyph unicode="&#xe81d;" d="M259.756 11.287q-8.181 0-14.829 4.602-13.295 9.204-42.952 29.657t-78.745 57.78-68.518 55.735q-54.201 54.201-54.201 134.991 0 59.314 41.929 101.243t101.243 41.929q73.12 0 116.583-60.337 19.942 28.123 50.622 43.974t65.962 15.851q59.314 0 101.243-41.929t41.418-101.243q0-80.79-54.201-134.991-19.431-19.431-68.007-55.735t-79.256-57.78-42.952-29.657q-6.647-4.602-15.34-4.602zM143.173 384.047q-37.327 0-63.405-26.078t-26.589-63.916q0-58.292 38.861-97.153 40.395-40.395 167.716-126.81 127.321 86.415 167.716 126.81 38.861 38.861 38.861 97.153 0 37.838-26.078 63.916t-63.405 26.078q-37.838 0-63.916-26.078t-26.078-63.916q0-10.738-8.181-18.408t-18.919-7.67-18.408 7.67-7.67 18.408q0 37.838-26.589 63.916t-63.405 26.078z" horiz-adv-x="519" />
<glyph unicode="&#xe81e;" d="M454.256 216.832q8.192-8.192 5.632-13.824t-13.824-5.632h-43.008v-158.72q0-7.168-0.512-10.752t-4.096-6.656-11.776-3.072h-104.448v158.72h-104.448v-158.72h-99.328q-14.336 0-17.92 5.12t-3.584 15.36v158.72h-43.008q-11.264 0-13.824 5.632t5.632 13.824l204.8 205.824q8.192 8.192 19.456 8.192t19.456-8.192z" horiz-adv-x="460" />
<glyph unicode="&#xe81f;" d="M383.9 321.28q20.48 0 35.84-14.848t15.36-36.352v-148.48q0-20.48-15.36-35.84t-35.84-15.36h-353.28v71.68h332.8v107.52h-256v-56.32l-107.52 92.16 107.52 92.16v-56.32h276.48z" horiz-adv-x="435" />
<glyph unicode="&#xe820;" d="M466.364 452.864l-199.68-228.352 85.504-57.344-343.040-171.52 200.192 171.52-86.016 57.344z" horiz-adv-x="475" />
<glyph unicode="&#xe821;" d="M324.028 452.864q59.392 0 100.864-41.984t41.984-100.864-41.984-101.376-101.376-41.984q-14.336 0-26.112 2.56l-2.56-2.56v-57.344h-57.344v-56.832h-56.832v-57.344h-171.52v114.176l174.080 174.080q-2.56 11.776-2.56 26.624 0 58.88 41.984 100.864t101.376 41.984zM324.028 281.344q11.776 0 19.968 8.704t8.704 20.992-8.704 20.48-20.48 8.192q-12.288 0-20.48-8.704t-8.192-19.968q0-12.288 8.704-20.992t20.48-8.704z" horiz-adv-x="475" />
<glyph unicode="&#xe822;" d="M466.364 195.84l-68.096-28.672q-4.096-11.264-6.144-15.872l28.16-68.096-40.448-39.936-69.12 26.624q-4.608-2.048-15.872-6.144l-28.16-68.096h-57.344l-28.672 67.584q-5.632 2.048-16.896 6.656l-67.584-27.648-39.936 39.936 27.136 68.608q-0.512 1.536-2.56 5.12t-3.072 6.144-2.048 5.632l-67.072 28.16v57.344l67.072 28.672 7.168 16.896-27.648 67.584 39.936 40.448 68.096-27.648q11.264 4.608 16.896 6.656l28.16 67.584h57.344l28.672-67.584q7.168-2.56 15.872-6.656l68.096 28.16 40.96-40.448-27.648-69.12q3.072-6.144 6.144-15.36l68.096-28.672v-57.344zM236.988 139.008q35.84 0 60.928 25.088t25.088 60.416-25.088 60.928-60.928 25.6-60.928-25.6-25.088-60.928 25.088-60.416 60.928-25.088z" horiz-adv-x="475" />
<glyph unicode="&#xe823;" d="M460.732 372.48q5.632-18.944 5.632-33.792 0-47.616-33.792-80.896t-80.896-33.28q-26.112 0-49.152 11.264l-228.864-228.864q-10.752-11.264-27.136-11.264-15.36 0-26.624 11.264t-11.264 27.136 11.264 27.136l228.864 228.864q-11.776 23.040-11.776 49.152 0 47.104 33.792 80.896t81.408 33.792q15.872 0 32.256-5.12l-70.656-71.168v-76.288h75.264z" horiz-adv-x="475" />
<glyph unicode="&#xe824;" d="M252.928 480c-136.192 0-246.784-107.52-252.928-242.176-0.512-9.216 6.656-9.728 6.656-9.728h43.008c8.192 0 9.728 4.608 10.24 9.216 4.608 101.888 89.6 183.296 193.024 183.296 55.296 0 104.96-23.040 140.288-60.416l-30.208-29.184c-5.12-6.144-5.12-13.824 2.56-16.384l126.464-25.6c10.752-2.56 23.552 5.632 19.456 22.528l-29.696 116.736c-0.512 4.608-8.192 11.264-14.848 6.144l-32.768-30.72c-46.080 47.104-110.080 75.776-180.736 75.776zM462.848 219.392c-8.192 0-9.728-4.608-10.24-9.216-4.608-101.888-89.6-183.296-193.024-183.296-55.296 0-104.96 23.040-140.288 60.416l30.208 29.184c5.12 6.144 5.12 13.824-2.56 16.384l-126.464 25.6c-10.752 2.56-23.552-5.632-19.456-22.528l29.696-116.736c0.512-4.608 8.192-11.264 14.848-6.144l32.768 30.72c46.080-47.104 110.080-75.776 180.736-75.776 136.192 0 246.784 107.52 252.928 242.176 0.512 9.216-6.656 9.728-6.656 9.728h-43.008z" />
<glyph unicode="&#xf000;" d="M0 480l512-512h-512z" />
</font>
</defs>
</svg>
