<?xml version="1.0" standalone="no"?>
<!DOCTYPE svg PUBLIC "-//W3C//DTD SVG 1.1//EN" "http://www.w3.org/Graphics/SVG/1.1/DTD/svg11.dtd" >
<svg xmlns="http://www.w3.org/2000/svg">
<metadata>Generated by IcoMoon</metadata>
<defs>
<font id="MogoUI" horiz-adv-x="1024">
<font-face units-per-em="1024" ascent="960" descent="-64" />
<missing-glyph horiz-adv-x="1024" />
<glyph unicode="&#x20;" d="" horiz-adv-x="512" />
<glyph unicode="&#xe000;" d="M967.074 635.38c0-20.544-7.844-41.112-23.528-56.776l-374.762-374.766c-31.35-31.37-82.206-31.37-113.56 0l-374.76 374.766c-31.372 31.33-31.372 82.22 0 113.56 31.35 31.366 82.204 31.366 113.56 0l317.978-317.99 317.986 317.99c31.35 31.366 82.204 31.366 113.554 0 15.684-15.672 23.532-36.236 23.532-56.784z" />
<glyph unicode="&#xe001;" d="M56.932 260.62c0 20.544 7.844 41.112 23.528 56.776l374.76 374.766c31.35 31.37 82.206 31.37 113.56 0l374.76-374.766c31.372-31.33 31.372-82.22 0-113.56-31.35-31.366-82.204-31.366-113.56 0l-317.978 317.99-317.984-317.992c-31.35-31.366-82.204-31.366-113.554 0-15.686 15.67-23.532 36.236-23.532 56.786z" />
<glyph unicode="&#xe002;" d="M324.618 903.070c20.544 0 41.112-7.844 56.776-23.528l374.766-374.762c31.37-31.35 31.37-82.206 0-113.56l-374.766-374.76c-31.33-31.372-82.22-31.372-113.56 0-31.366 31.35-31.366 82.204 0 113.56l317.992 317.98-317.992 317.986c-31.366 31.35-31.366 82.204 0 113.554 15.67 15.684 36.236 23.53 56.784 23.53z" />
<glyph unicode="&#xe003;" d="M699.38-7.070c-20.544 0-41.112 7.844-56.776 23.528l-374.764 374.762c-31.37 31.35-31.37 82.21 0 113.56l374.766 374.762c31.33 31.37 82.22 31.37 113.56 0 31.366-31.352 31.366-82.204 0-113.56l-317.992-317.982 317.99-317.986c31.366-31.35 31.366-82.204 0-113.554-15.668-15.684-36.234-23.53-56.784-23.53z" />
<glyph unicode="&#xe004;" d="M498.77 545.094l291.852 390.568-191.144 4.708-387.538-513.18h329.878l-363.296-466.762 25.070-4.798 641.896 589.464z" />
<glyph unicode="&#xe005;" d="M819.564 756.908l-698.99-116.916 83.838-500.898 699.018 116.936-83.866 500.878zM829.896 350.428c-27.642-4.626-46.37-30.874-41.766-58.496 0.958-5.698 2.864-10.988 5.468-15.8l-491.92-82.314c0.894 5.394 0.972 11.010 0.024 16.706-4.628 27.622-30.872 46.39-58.576 41.736-6.608-1.106-12.682-3.466-18.066-6.772l-50.312 300.596c6.182-1.364 12.71-1.626 19.338-0.514 27.684 4.628 46.38 30.85 41.752 58.558-0.95 5.676-2.856 10.952-5.456 15.754l491.93 82.302c-0.886-5.368-0.97-10.962-0.010-16.622 4.602-27.704 30.82-46.474 58.544-41.822 6.616 1.108 12.698 3.484 18.082 6.778l50.294-300.588c-6.174 1.35-12.702 1.61-19.326 0.498zM543.54 479.010c-46.456 16.51-57.606 19.228-62.992 50.718-2.020 12.16 7.578 21.076 17.956 23.014 10.374 2 20.278-3.834 21.954-14.406l4.396-26.072 69.702 13.414-5.386 31.882c-6.116 36.252-37.236 61.806-78.354 62.988l-4.824 28.222-49.984-9.646 4.78-28.61c-45.036-18.874-62.646-59.218-56.576-95.408 6.072-35.88 27.986-68.132 69.706-86.15 46.58-19.894 66.734-25.79 71.12-51.712 2.332-13.822-3.574-21.872-18.77-24.748-15.194-2.908-25.612 3.958-27.596 15.862l-4.646 27.466-69.662-13.434 6.114-36.186c6.672-39.672 36.078-61.722 79.866-62.17l4.91-29.466 49.68 9.488-4.78 28.372c47.578 17.246 68.034 59.328 61.616 97.52-6.636 39.010-35.432 73.97-78.23 89.062z" />
<glyph unicode="&#xe006;" d="M520.384 209.006l-7.192-7.49-7.194 7.58c-41.026 43.91-85.376 75.904-130.234 100.83-39.87 22.044-80.408 38.666-119.608 53l5.448-167.134 250.338-131.96 250.444 133.686 5.256 162.96c-38.32-14.086-77.928-30.4-117.026-51.97-44.812-24.674-89.162-56.318-130.232-99.502zM740.518 588.482l-11.062-0.040h-11.064l13.992 165.716-56.872 2.584 11.492-168.428-14.81-0.084h-14.634l-13.478 196.8-0.604 8.908-76.376-8.264 66.384-197.536-15.756-0.084h-13.644l-2.196-0.048-47.88 142.558-35.688 101.604-249.886-133.684 38.686-111.418-15.866-0.090h-15.888l-26.456-0.13 5.748-175.878c84.922-30.178 177.036-63.462 258.626-146.898 80.594 81.116 171.74 114.48 255.908 144.446l5.904 180.096-34.58-0.13zM546.69 646.182c-2.836-10.462-8.266-19.032-16.274-25.492-3.4-2.754-7.746-5.594-13.046-8.524l5.558-16.486-18.176-6.718-5.332 16.058c-6.808-1.848-12.66-2.754-17.828-2.754-5.212-0.040-10.16 0.816-14.896 2.496-14.078 4.954-24.41 16.232-30.956 33.672l38.964 14.42c2.586-6.456 5.688-10.724 9.384-12.834 3.706-2.11 8.312-2.15 13.52-0.212 4.562 1.636 7.746 4.178 9.774 7.578 1.89 3.49 2.328 7.104 0.948 11.066-1.292 4.004-3.786 6.802-7.406 8.354-3.576 1.594-8.87 2.11-15.93 1.594-10.074-0.734-17.012-1.036-20.754-0.906-12.44 0.084-22.47 2.624-30.006 7.488-7.496 4.91-13.046 12.358-16.454 22.558-2.28 6.848-3.334 13.438-3.142 19.722 0.066 6.288 1.424 12.36 3.922 18.040 2.404 5.814 6.026 10.978 10.676 15.544 4.644 4.602 10.376 8.65 17.218 12.052l-5.208 15.458 18.128 6.718 5.294-15.8c27.852 5.73 46.454-4.954 55.838-31.944l-37.926-13.952c-2.24 5.256-4.91 8.786-8.010 10.462-3.054 1.766-6.712 1.808-10.978 0.212-3.786-1.374-6.416-3.786-8.052-7.060-1.462-3.402-1.594-6.932-0.302-10.676 1.204-3.786 3.4-6.416 6.546-7.79 3.146-1.462 7.924-2.068 14.426-1.722 9.082 0.476 16.832 0.688 23.206 0.604 7.66-0.090 13.818-0.646 18.384-1.856 4.606-1.25 8.908-3.4 13.040-6.586 6.76-4.994 11.63-12.14 14.686-21.222 3.576-10.554 3.92-21.016 1.164-31.562z" />
<glyph unicode="&#xe007;" d="M233.078 481.506h17.848l4.614-67.014h-19.382l-1.928 32.6-12.838-23.494h-18.48l-12.844 23.494-1.922-32.6h-19.39l4.62 67.014h17.84l20.936-38.52 20.926 38.52zM292.488 414.492h-20.538v67.014h20.538v-67.014zM360.258 414.492l-29.392 35.554v-35.554h-20.154v67.014h19.254l29.396-35.568v35.568h20.16v-67.014h-19.264zM418.394 414.492h-20.538v67.014h20.538v-67.014zM526.344 481.506h17.85l4.616-67.014h-19.382l-1.928 32.602-12.836-23.494h-18.498l-12.83 23.494-1.928-32.602h-19.382l4.624 67.014h17.84l20.926-38.522zM594.816 482.788c-23.746 0-37.224-15.79-37.224-34.788 0-19.008 13.478-34.786 37.224-34.786s37.236 15.778 37.236 34.786c0 18.998-13.49 34.788-37.236 34.788zM594.816 429.254c-10.916 0-16.676 8.474-16.676 18.746 0 10.266 5.76 18.744 16.676 18.744s16.696-8.478 16.696-18.744c0-10.276-5.782-18.746-16.696-18.746zM693.056 414.492l-29.394 35.554v-35.554h-20.154v67.014h19.26l29.392-35.57v35.57h20.162v-67.014zM730.52 481.506h48.14v-15.67h-27.6v-9.884h26.456v-15.66h-26.456v-10.15h27.984v-15.65h-48.524zM832.52 481.506h22.724l-24.266-43.52v-23.494h-20.54v23.494l-24.268 43.52h22.728l11.81-25.81z" />
<glyph unicode="&#xe008;" d="M252.544 414.278h-20.538v67.014h20.538v-67.014zM294.644 434.566h-3.334v-20.288h-20.538v67.014h25.034c18.48 0 30.554-7.952 30.554-22.584 0-15.032-13.348-24.142-31.716-24.142zM296.19 466.014h-4.88v-17.070h4.108c7.568 0 11.036 4.108 11.036 8.852-0.002 4.502-3.078 8.218-10.264 8.218zM163.74 481.29h53.406v-14.884l-28.886-35.95h29.526v-16.178h-54.816v14.896l28.758 35.95h-27.988zM408.11 426.76h-27.254l-4.35-12.16h-20.472l27.632 66.796h21.758l27.638-66.796h-20.478l-4.474 12.16zM386.358 441.602h16.376l-8.186 24.824-8.19-24.824zM441.95 481.396h24.446c25.588 0 43.246-12.928 43.246-33.398 0-20.472-17.658-33.398-43.246-33.398h-24.446v66.796zM489.17 447.998c0 11.39-8.062 17.406-21.112 17.406h-5.63v-34.806h5.63c13.050 0 21.112 6.016 21.112 17.4zM556.178 414.6h-21.242l-24.694 66.796h21.368l13.944-44.404 13.952 44.404h21.368l-24.696-66.796zM628.404 426.76h-27.254l-4.352-12.16h-20.472l27.638 66.796h21.752l27.632-66.796h-20.464l-4.48 12.16zM606.65 441.602h16.378l-8.192 24.824-8.186-24.824zM711.624 414.6l-29.296 35.45v-35.45h-20.088v66.796h19.192l29.296-35.446v35.446h20.094v-66.796h-19.198zM800.77 478.708l-2.818-14.842c-4.478 1.662-9.848 2.688-15.608 2.688-13.69 0-19.574-7.422-19.574-18.554 0-11.136 5.886-18.554 19.574-18.554 5.76 0 11.13 1.024 15.608 2.694l2.818-14.842c-4.736-2.306-13.304-3.968-21.496-3.968-24.82 0-36.98 15.094-36.98 34.672s12.16 34.678 36.98 34.678c8.192-0.004 16.76-1.668 21.496-3.972zM812.664 481.396h47.984v-15.608h-27.512v-9.856h26.356v-15.612h-26.356v-10.106h27.894v-15.614h-48.366v66.796z" />
<glyph unicode="&#xe009;" d="M532.072 426.762h-27.254l-4.346-12.16h-20.478l27.642 66.792h21.75l27.642-66.792h-20.474l-4.482 12.16zM510.324 441.606h16.374l-8.184 24.824-8.19-24.824zM565.914 481.396h24.446c25.592 0 43.246-12.926 43.246-33.398s-17.654-33.396-43.246-33.396h-24.446v66.794zM613.128 448c0 11.39-8.062 17.406-21.112 17.406h-5.624v-34.804h5.624c13.050-0.002 21.112 6.014 21.112 17.398zM680.14 414.602h-21.248l-24.694 66.792h21.374l13.944-44.4 13.946 44.4h21.374l-24.696-66.792zM752.36 426.762h-27.246l-4.354-12.16h-20.478l27.646 66.792h21.748l27.642-66.792h-20.478l-4.48 12.16zM730.614 441.606h16.374l-8.186 24.824-8.188-24.824zM835.578 414.602l-29.296 35.448v-35.448h-20.084v66.792h19.188l29.306-35.444v35.444h20.084v-66.792h-19.198zM924.728 478.71l-2.814-14.842c-4.478 1.662-9.854 2.688-15.614 2.688-13.686 0-19.572-7.422-19.572-18.558 0-11.134 5.886-18.554 19.572-18.554 5.76 0 11.136 1.024 15.614 2.694l2.814-14.842c-4.742-2.306-13.31-3.97-21.496-3.97-24.82 0-36.974 15.096-36.974 34.672 0 19.582 12.154 34.678 36.974 34.678 8.184 0.002 16.756-1.664 21.496-3.966zM936.622 481.396h47.984v-15.608h-27.508v-9.854h26.36v-15.614h-26.36v-10.106h27.894v-15.614h-48.372l0.002 66.796zM62.882 434.782h-3.338v-20.29h-20.534v67.008h25.026c18.488 0 30.556-7.952 30.556-22.592 0-15.016-13.352-24.126-31.71-24.126zM64.418 466.228h-4.874v-17.070h4.108c7.572 0 11.038 4.108 11.038 8.858 0.004 4.486-3.074 8.212-10.272 8.212zM139.254 413.212c-23.752 0-37.23 15.79-37.23 34.786 0 18.998 13.478 34.788 37.23 34.788 23.746 0 37.224-15.79 37.224-34.788 0-18.996-13.478-34.786-37.224-34.786zM155.944 448c0 10.276-5.776 18.744-16.692 18.744-10.91 0-16.686-8.468-16.686-18.744 0-10.268 5.776-18.736 16.686-18.736 10.918 0 16.692 8.466 16.692 18.736zM243.732 478.814l-2.818-14.894c-4.496 1.666-9.884 2.694-15.664 2.694-13.734 0-19.638-7.442-19.638-18.614 0-11.164 5.906-18.612 19.638-18.612 5.78 0 11.17 1.024 15.664 2.694l2.818-14.888c-4.746-2.306-13.348-3.978-21.56-3.978-24.904 0-37.1 15.148-37.1 34.786 0 19.642 12.198 34.788 37.1 34.788 8.212-0.002 16.814-1.668 21.56-3.976zM255.652 414.492v67.008h20.544v-31.96l23.106 31.96h23.872l-25.034-33.112 25.804-33.896h-24.774l-22.976 32.606v-32.606h-20.542zM333.952 481.5h48.136v-15.654h-27.602v-9.884h26.45v-15.664h-26.45v-10.14h27.988v-15.664l-48.522-0.002v67.008zM450.122 481.5v-16.168h-18.618v-50.84h-20.538l-0.002 50.84h-18.608v16.168h57.766z" />
<glyph unicode="&#xe00a;" d="M895.506 566.482h-23.112c-0.010 0-0.020-0.002-0.030-0.002l-0.010 0.002c-5.314 0-10.714-4.086-12.18-9.27-0.056-0.19-0.148-0.372-0.194-0.564 0 0-0.488-2.238-1.346-6.146l-32.074-145.382c-0.642-2.84-1.060-4.638-1.198-5.146l0.054-0.074c-1.104-5.028 1.928-9.19 6.888-9.658l0.066-0.092h23.984c5.282 0 10.648 4.050 12.16 9.176 0.066 0.22 0.168 0.43 0.226 0.652l34.63 156.684-0.054 0.016c1.172 5.36-2.28 9.804-7.81 9.804zM939.258 534.584c-0.78-0.212-1.646-0.378-2.588-0.518-0.936-0.136-1.78-0.208-2.506-0.208-2.578 0-4.526 0.694-5.86 2.074-1.336 1.384-1.996 3.592-1.996 6.64v13.368h-2.864v3.558h2.864v7.23h4.222v-7.23h8.728v-3.558h-8.728v-11.456c0-1.318 0.044-2.348 0.092-3.092 0.062-0.74 0.272-1.438 0.632-2.084 0.328-0.604 0.78-1.030 1.356-1.31 0.584-0.282 1.47-0.418 2.65-0.418 0.688 0 1.408 0.104 2.164 0.302 0.744 0.202 1.286 0.374 1.616 0.51h0.218l-0.002-3.808zM981.066 534.362h-4.226v14.31c0 1.078-0.054 2.124-0.158 3.136-0.092 1-0.308 1.802-0.612 2.406-0.35 0.64-0.844 1.128-1.49 1.46s-1.572 0.494-2.788 0.494c-1.188 0-2.368-0.292-3.556-0.89-1.188-0.588-2.366-1.344-3.554-2.26 0.044-0.344 0.072-0.744 0.11-1.204 0.036-0.458 0.046-0.912 0.046-1.36v-16.092h-4.226v14.31c0 1.116-0.054 2.166-0.146 3.166-0.104 1-0.312 1.792-0.624 2.396-0.35 0.64-0.844 1.124-1.49 1.446s-1.572 0.484-2.788 0.484c-1.16 0-2.304-0.286-3.476-0.852-1.162-0.568-2.316-1.29-3.48-2.182v-18.77h-4.232v25.136h4.232v-2.79c1.324 1.098 2.642 1.954 3.952 2.572 1.326 0.61 2.712 0.916 4.198 0.916 1.71 0 3.162-0.358 4.354-1.078 1.192-0.724 2.082-1.712 2.664-2.996 1.71 1.442 3.272 2.484 4.688 3.112 1.408 0.64 2.914 0.96 4.52 0.96 2.76 0 4.798-0.834 6.116-2.506 1.308-1.676 1.968-4.008 1.968-7.014l0.004-16.31zM806.454 519.79c-9.812 5.474-25.142 8.238-46.134 8.238-10.386 0-20.816-0.832-31.284-2.452-7.688-1.182-8.476-1.374-13.246-2.412-9.828-2.146-11.338-11.974-11.338-11.974l-3.154-12.972c-1.784-8.292 2.936-7.946 5.040-7.306 4.294 1.296 6.616 2.578 15.366 4.562 8.354 1.894 17.19 3.316 24.236 3.258 10.342 0 18.206-1.136 23.43-3.318 5.23-2.276 7.818-6.162 7.818-11.712 0.016-1.324 0.054-2.572-0.428-3.656-0.428-1.018-1.25-2.004-3.728-2.332-14.756-0.88-25.342-2.23-38.096-4.088-12.578-1.768-23.588-4.806-32.794-9.008-9.812-4.354-17.154-10.17-22.218-17.556-4.922-7.414-7.396-16.386-7.412-26.964 0-9.992 3.592-18.148 10.544-24.478 7.030-6.242 16.174-9.336 27.244-9.336 6.91 0.054 12.324 0.548 16.204 1.524 3.84 0.962 8.026 2.342 12.452 4.254 3.302 1.384 6.866 3.38 10.63 5.89 3.77 2.514 6.384 4.3 9.734 6.492l0.12-0.208-0.942-4.162c0-0.040-0.062-0.062-0.062-0.098l0.030-0.076c-1.078-5.010 1.932-9.172 6.894-9.666l0.062-0.082h0.438l0.010-0.026c3.302 0 14.598 0.010 19.88 0.026h3.692c0.238 0 0.266 0.072 0.364 0.126 5.064 0.624 9.918 4.748 11.062 9.702l18.862 81.414c0.428 1.918 0.77 4.13 0.98 6.666 0.232 2.584 0.51 4.692 0.424 6.218 0.050 11.52-4.902 20.038-14.68 25.512zM760.75 422.778c-3.202-2.020-6.586-3.75-10.136-5.22-4.77-1.92-9.29-2.932-13.478-2.932-6.416 0-11.354 0.906-14.684 2.846-3.346 1.844-5.094 5.044-5.032 9.626 0 5.288 1.222 9.392 3.74 12.614 2.552 3.1 6.334 5.594 11.020 7.448 4.664 1.582 10.404 2.886 17.030 3.822 5.89 0.74 17.528 2.078 19.018 2.086 1.496 0.016 2.486 0.84 1.818-3.136-0.292-1.722-3.656-15.522-5.192-21.798-0.454-1.882-2.96-4.618-4.104-5.356zM481.946 526.226c-5.53 0-12.784-4.48-16.222-9.89 0 0-37.012-63.452-40.646-69.794-1.974-3.412-3.978-1.244-4.318 0.026-0.266 1.542-11.466 69.35-11.466 69.35-1.254 5.464-6.964 10.15-14.086 10.124l-23.086-0.036c-5.566 0-9.034-4.452-7.796-9.844 0 0 17.64-99.998 21.086-123.518 1.712-13.004-0.18-15.308-0.18-15.308l-22.874-39.882c-3.348-5.404-1.518-9.838 4.020-9.838l26.744 0.028c5.542 0 12.88 4.406 16.168 9.82l102.888 174.024c0 0 9.848 14.868 0.774 14.738-6.19-0.090-31.006 0-31.006 0zM157.14 490.854c-7.788-5.694-18.578-8.55-32.588-8.55h-6.334c-5.58 0-9.104 4.426-7.874 9.864l7.774 33.506c1.186 5.396 6.754 9.874 12.334 9.828l8.45 0.046c9.876 0 17.38-1.688 22.446-5.050 4.99-3.27 7.524-8.436 7.436-15.384 0.15-10.454-3.816-18.55-11.644-24.26zM212.912 542.494c-3.21 6.264-8.024 11.344-14.162 15.186-6.372 3.932-13.784 6.646-22.42 8.274-8.692 1.556-18.844 2.322-30.49 2.426l-53.916-0.036c-5.604-0.066-11.090-4.462-12.388-9.848l-36.352-158.054c-1.254-5.406 2.248-9.88 7.828-9.88h25.83c5.584 0 11.118 4.358 12.372 9.88l8.904 38.354c1.188 5.364 6.708 9.8 12.306 9.8h7.384c31.59 0.030 56.092 6.494 73.7 19.426 17.582 12.916 26.37 30.024 26.332 51.182 0.040 9.302-1.568 17.072-4.928 23.29zM626.106 490.21c-7.742-5.624-18.604-8.454-32.582-8.454h-6.43c-5.558-0.062-9.15 4.432-7.828 9.816l7.75 33.56c1.15 5.312 6.794 9.822 12.278 9.78l8.488 0.044c9.91-0.044 17.326-1.7 22.446-5 5.030-3.338 7.472-8.504 7.512-15.4 0.022-10.504-3.864-18.586-11.634-24.346zM681.854 541.922c-3.22 6.26-8.076 11.3-14.224 15.226-6.298 3.916-13.79 6.65-22.462 8.244-8.57 1.506-18.758 2.37-30.37 2.392l-54.046-0.020c-5.56-0.1-11.020-4.474-12.306-9.854l-36.336-158.104c-1.324-5.368 2.294-9.848 7.762-9.816l25.926 0.046c5.496-0.046 11.102 4.404 12.406 9.768l8.758 38.372c1.228 5.374 6.822 9.876 12.41 9.8h7.37c31.626 0 56.152 6.494 73.71 19.43 17.52 13.004 26.33 30.054 26.33 51.258-0.054 9.27-1.638 17.068-4.928 23.258zM337.41 519.916c-9.808 5.468-25.142 8.228-46.134 8.228-10.386 0-20.812-0.822-31.286-2.448-7.692-1.172-8.468-1.364-13.246-2.406-9.828-2.146-11.338-11.974-11.338-11.974l-3.154-12.976c-1.784-8.292 2.946-7.952 5.040-7.302 4.28 1.29 6.612 2.572 15.366 4.556 8.348 1.896 17.192 3.312 24.236 3.258 10.342 0 18.194-1.128 23.424-3.308 5.228-2.286 7.806-6.172 7.806-11.722 0.036-1.324 0.058-2.572-0.408-3.656-0.432-1.022-1.27-2-3.738-2.328-14.74-0.89-25.326-2.23-38.096-4.088-12.582-1.768-23.586-4.81-32.796-9.008-9.812-4.354-17.144-10.186-22.198-17.562-4.938-7.412-7.412-16.382-7.422-26.97 0-9.986 3.596-18.142 10.54-24.468 7.038-6.246 16.174-9.342 27.24-9.342 6.918 0.048 12.324 0.552 16.218 1.518 3.834 0.978 8.026 2.348 12.432 4.258 3.312 1.388 6.872 3.392 10.642 5.89 3.764 2.516 6.384 4.298 9.746 6.49l0.104-0.202-0.942-4.15c-0.008-0.044-0.062-0.070-0.062-0.116l0.044-0.066c-1.078-5.022 1.922-9.178 6.884-9.662l0.062-0.092h0.432l0.012-0.038c3.302 0 14.608 0.024 19.876 0.038h3.688c0.248 0 0.286 0.076 0.36 0.13 5.082 0.64 9.914 4.76 11.070 9.692l18.862 81.424c0.428 1.908 0.77 4.12 0.966 6.662 0.25 2.578 0.528 4.692 0.45 6.218 0.054 11.526-4.9 20.044-14.68 25.522zM291.71 422.9c-3.202-2.020-6.584-3.74-10.138-5.22-4.766-1.914-9.306-2.932-13.478-2.932-6.402 0-11.348 0.914-14.692 2.846-3.334 1.844-5.092 5.044-5.038 9.628 0 5.282 1.234 9.396 3.76 12.616 2.548 3.1 6.316 5.594 11.006 7.452 4.678 1.588 10.43 2.874 17.034 3.806 5.888 0.744 17.544 2.084 19.028 2.1 1.48 0.010 2.472 0.834 1.808-3.13-0.286-1.722-3.65-15.54-5.194-21.812-0.464-1.886-2.97-4.626-4.096-5.354z" />
<glyph unicode="&#xe00b;" d="M762.088 508.078c-6.134 0.010-12.184-0.366-18.136-1.042l-27.97 142.566c-6.046 31.132-33.31 52.874-63.846 53.182h-0.282c-4.316 0.026-8.698-0.372-13.096-1.24l-480.82-94.202c-31.094-6.078-52.782-33.262-53.16-63.78v-0.522c-0.018-4.276 0.366-8.62 1.216-12.972l54.822-279.716c6.968-35.596 41.652-58.942 77.278-51.942l386.152 75.678c26.844-48.146 78.21-80.788 137.234-80.88 86.658-0.166 157.066 69.748 157.742 156.232l0.006 1.79c-0.346 86.52-70.476 156.682-157.14 156.848zM165.958 566.464l480.796 94.208c8.852 1.712 17.286-1.828 22.764-8.354l-235.21-172.59-286.27 70.528c2.656 7.97 9.070 14.498 17.92 16.208zM230.098 239.344c-13.082-2.63-25.832 5.918-28.406 19.002l-48.542 247.686 290.084-71.442 238.174 174.858 22.074-112.57c-57.964-23.144-99-79.708-99.102-145.936-0.034-12.874 1.526-25.382 4.422-37.374l-378.704-74.224zM773.126 268.55l-0.028-12.198c0-5.978-5.010-11.008-11.008-10.978-6.692 0-11.73 5.030-11.73 11.006l0.028 11.95c-19.036 1.73-42.23 9.088-49.774 20.728-0.056 0.082-0.126 0.154-0.172 0.236-1.442 2.352-2.38 4.76-2.38 7.664 0.026 8.848 7.434 15.764 15.82 15.764 3.352-0.028 6.448-1.026 9.324-2.908 5.13-3.55 10.952-6.482 17.352-8.66 3.16-1.078 6.416-2.030 9.89-2.676l0.030 10.138 0.080 27.672c-8.14 2.078-16.482 4.49-24.036 7.92-15.342 6.976-27.362 18.242-27.326 40.038 0.016 14.426 6.884 27.496 19.238 36.44 8.372 6.054 19.238 10.238 32.286 11.576l0.034 12.672c0 3.176 1.456 6.052 3.806 8.072 2.060 1.776 4.81 2.896 7.946 2.88 5.976 0 10.952-5.030 10.952-11.008l-0.026-13.168c14.128-1.656 34.402-7.224 41.408-17.566 1.406-2.102 2.348-4.78 2.348-7.378 0-9.078-8.66-15.552-17.064-15.518-1.414 0-2.85 0.226-4.48 0.716-7 1.966-14.824 7.442-22.266 9.128l-0.054-33.746c24.612-6.278 52.134-15.906 52.078-48.402-0.056-26.58-17.346-46.854-52.276-50.394zM773.236 330.506l-0.054-32.058c11.694 2.386 17.728 9.324 17.728 16.712 0.026 7.904-7.386 11.998-17.674 15.346zM733.906 387.042c0-6.942 6.666-10.76 16.704-13.694l0.056 29.264c-10.756-1.468-16.738-7.436-16.76-15.57z" />
<glyph unicode="&#xe00c;" d="M790.704 682.396h-557.404c-40.084 0-72.692-32.506-72.692-72.46v-323.894c0-39.948 32.606-72.44 72.692-72.44h557.404c40.080 0 72.686 32.488 72.686 72.44v323.894c0 39.954-32.606 72.46-72.686 72.46zM827.12 286.042c0-20.044-16.29-36.278-36.416-36.278h-557.404c-20.116 0-36.424 16.232-36.424 36.278v202.624h630.242v-202.624zM827.12 577.938h-630.244v31.998c0 20.066 16.304 36.308 36.424 36.308h557.404c20.124 0 36.416-16.244 36.416-36.308v-31.998zM332.504 314.024c11.218 0 21.46 5.016 28.802 14.262v-0.972c0-6.75 5.416-12.134 12.186-12.134 7.156 0 12.572 5.386 12.572 12.134v106.566c0 6.756-5.416 12.144-12.19 12.144-7.15 0-12.568-5.388-12.568-12.144v-36.418c-7.342 9.442-17.784 14.27-28.802 14.27-23.784 0-41.372-18.504-41.372-48.97 0.002-31.016 17.78-48.738 41.372-48.738zM340.030 389.958c8.318 0 17.224-4.452 21.278-10.616v-32.954c-4.056-6.164-12.962-10.588-21.278-10.588-13.906 0-23.554 10.988-23.554 26.964-0.002 16.206 9.648 27.194 23.554 27.194zM454.376 314.024c12.37 0 36.148 4.422 36.148 15.414 0 5.766-5.22 9.816-10.438 9.816-1.53 0-3.276-0.378-4.812-1.15-5.806-3.088-12.972-4.616-18.186-4.616-15.842 0-25.336 9.818-26.878 21.584h57.624c6.37 0 11.404 5.202 11.404 11.18 0 4.616-1.354 9.818-2.718 14.050-6.562 19.274-22.622 31.43-43.686 31.43-28.428 0-48.332-21.776-48.332-48.77-0.002-29.872 21.466-48.938 49.874-48.938zM452.836 392.266c16.244 0 22.44-11.776 23.002-20.618h-46.006c1.172 9.25 7.734 20.618 23.004 20.618zM529.654 315.18c6.938 0 12.368 5.386 12.368 12.134v0.972c7.344-9.246 17.598-14.262 28.81-14.262 23.564 0 41.372 17.72 41.372 48.738 0 30.466-17.592 48.97-41.372 48.97-11.026 0-21.466-4.828-28.81-14.27v36.634c0 6.54-5.43 11.93-11.988 11.93-7.156 0-12.572-5.388-12.572-11.93v-106.78c0.002-6.75 5.418-12.136 12.192-12.136zM542.024 379.156c4.072 6.164 13.13 10.8 21.066 10.8 14.306 0 23.782-10.988 23.782-27.194 0-16.184-9.478-26.964-23.782-26.964-7.938 0-16.996 4.424-21.066 10.398v32.96zM642.998 419.426c8.126 0 14.696 6.564 14.696 14.668 0 8.072-6.572 14.452-14.696 14.452-7.928 0-14.708-6.38-14.708-14.452 0-8.104 6.78-14.668 14.708-14.668zM643.386 410.57c-7.166 0-12.56-5.404-12.56-11.944v-71.308c0-6.75 5.394-12.134 12.17-12.134 6.952 0 12.38 5.386 12.38 12.134v71.308c0.002 6.54-5.426 11.944-11.99 11.944zM678.582 388.026h5.978v-48.586c0-16.57 9.304-25.418 26.494-25.418 16.058 0 19.722 5.016 19.722 11.18 0 5.946-3.85 10.594-10.824 10.594h-2.12c-3.868 0-8.524 2.896-8.524 10.216v42.012h9.692c5.588 0 10.43 4.8 10.43 10.598 0 5.978-4.844 10.8-10.43 10.8h-9.692v14.454c0 6.728-5.404 12.122-12.16 12.122-7.15 0-12.588-5.394-12.588-12.122v-14.454h-5.978c-5.804 0-10.644-4.824-10.644-10.43 0-6.166 4.842-10.966 10.644-10.966z" />
<glyph unicode="&#xe00d;" d="M816.842 727.632h-468.85c-2.246 0-4.452-0.454-6.474-1.344l-66.608-29.044c-6.028-2.64-9.912-8.614-9.912-15.272v-112.384c0-0.040 0.018-0.040 0.018-0.076v-6.324c-0.108-32.688-2.242-194.926-34.97-287.906-2.612-7.49 0.55-15.322 6.874-19.39 1.032-0.612 1.904-1.436 3.080-1.864 8.566-3.116 17.948 1.428 20.974 10.086 1.406 4.024 2.742 8.304 4.042 12.598 6.768 21.854 12.152 46.224 16.4 71.416 13.614 80.502 16.008 168.566 16.364 204.838h393.702v-65.080c-3.136-94.912-17.728-222.568-63.592-263.122l-420.724 0.002c-9.062 0-16.408-7.452-16.408-16.622 0-9.178 7.344-16.62 16.408-16.62h57.85v-6.536c0-9.18 7.344-16.622 16.4-16.622h426.478c1.39 0 2.798 0.172 4.166 0.552l108.948 29.048c7.216 1.908 12.236 8.53 12.236 16.058v496.986c-0.002 9.17-7.354 16.622-16.402 16.622zM800.43 226.84l-76.136-20.296v272.938c1.154 33.226 0.838 60.952 0.41 77.416l75.728 20.176-0.002-350.234zM452.3 313.68c-31.698-0.302-45.464 9.95-59.404 23.942-2.532 2.332-4.702 3.328-8.14 3.328-7.736-0.13-16.024-5.672-17.242-18.312-0.596-6.098 2.092-11.206 4.674-14.58 18.85-20.866 50.762-30.090 82.484-29.916 55.724-0.564 102.626 24.676 110.406 70.51 5.306 31.344-9.652 49.444-39.536 57.574 30.512 13.382 40.478 32.98 42.386 50.468 1.304 38.746-28.218 61.172-74.618 61.172-14.42 0-32.358-2.164-46.74-7.24-11.984-4.326-30.664-12.070-31.214-27.866-0.322-9.224 4.702-17.232 15.862-17.27 7.764 0.036 13.748 3.724 20.746 7.050 9.526 4.506 22.452 8.318 37.642 8.484 22.628 0.302 37.318-8.998 35.574-28.48-3.224-19.692-18.97-33.288-54.006-33.594l-15.762 0.052c-11.010 0.166-20.664-7.626-23.696-17.448-2.74-8.832 1.562-17.664 12.18-17.746l19.608-0.088c38.644 0.166 57.572-9.996 51.298-33.2-5.502-24.072-30.776-37.32-62.502-36.84z" />
<glyph unicode="&#xe00e;" d="M526.344 895.128l34.34 50.448 28.626-139.024 50.142 73.848 19.010-317.764-35.762 237.302-42.976-74.34zM416.886-30.312c-4.918 5.932-0.64 15.924 9.728 22.616 17.246 11.080 20.104 13.742 23.554 22.088 1.994 4.698 3.274 10.742 2.856 13.488-0.716 4.62-1.61 4.314-12.208-3.76l-11.458-8.788-14.952 31.064c-20.81 43.084-38.464 74.114-65.512 114.982l-23.138 34.978 2.7 18.216c3.010 20.102 9.582 41.464 18.524 59.988 3.154 6.574 4.876 11.944 3.786 11.944-1.082 0-13.41-3.904-27.304-8.712-27.8-9.618-41.848-16.936-50.604-26.292-5.33-5.678-5.516-6.912-2.78-15.516 6.648-20.588 26.408-65.402 46.842-105.974 11.876-23.522 21.568-43.572 21.568-44.518 0.036-0.98-4.322-3.074-9.658-4.652l-9.692-2.934 0.266-14.876c0.11-8.226-0.53-18.404-1.426-22.616-1.618-7.138-2.558-7.7-14.424-8.934-11.014-1.132-13.53-0.564-18.522 4.358l-5.824 5.592-7.024-7.962c-14.238-16.22-25.542-16.714-56.536-2.48-11.194 5.148-14.082 7.588-14.082 12.098 0 9.352 6.384 12.36 26.554 12.36 18.184 0 18.48 0.076 24.082 8.338 3.078 4.588 5.37 8.568 5.030 8.868-0.332 0.308-6.984-0.596-14.722-1.994-7.698-1.424-14.502-2.174-15.030-1.612-0.56 0.606-2.814 16.456-5.028 35.276-2.25 18.854-7.366 57.926-11.422 86.84-3.98 28.892-7.398 63-7.544 75.812-0.494 45.716 10.852 58.488 102.622 115.928 12.472 7.774 22.65 15.586 22.65 17.346 0 1.734-3.87 8.942-8.634 16.002-8.346 12.36-8.492 12.958-4.288 17.62 6.538 7.256 41.516 29.98 83.354 54.354 37.228 21.602 37.494 21.834 47.186 38.354 5.336 9.172 16.308 24.304 24.414 33.656l14.654 17.060-9.242 6.316c-25.164 17.204-62.922 20.236-119.79 9.718-47.184-8.712-43.016-9.122-45.574 4.398-1.204 6.462-3.23 11.646-4.468 11.646-1.28 0-6.572-2.216-11.796-4.876-7.134-3.648-11.602-8.646-17.654-19.948-4.434-8.304-9.132-15.216-10.324-15.33-1.244-0.118-3.462 4.654-4.884 10.622-1.466 5.942-3.87 11.2-5.336 11.686-3.008 0.98-10.478-14.312-12.958-26.554-1.17-5.678-3.198-8.424-6.726-8.944-3.98-0.564-5.9 1.654-9.318 10.52-5.708 14.876-3.572 21.934 10.742 35.794 11.006 10.598 52.404 33.92 60.252 33.92 1.884 0 6.428 3.346 10.032 7.442 7.478 8.338 22.65 13.442 47.252 15.846 38.914 3.838 140.312-12.62 179.368-29.036 8.302-3.496 9.282-3.528 8.040-0.266-0.786 2.028-7.664 23.742-15.286 48.272-7.588 24.492-14.050 44.892-14.348 45.266-0.308 0.338-4.244-16.006-8.788-36.286-5.412-24.348-8.832-35.464-10-32.458-2.438 6.156-44.286 240.6-43.16 241.766 0.494 0.448 11.2-33.738 23.784-76.108 12.618-42.296 23.214-76.708 23.546-76.294 0.34 0.374 6.394 14.462 13.416 31.256 6.984 16.83 13.442 31.362 14.346 32.344 0.904 1.014 8.634-40.57 17.204-92.336 12.958-78.096 16.266-94.060 19.53-94.060 5.524 0.072 26.786 10.514 36.93 18.182l8.568 6.458 1.576-5.634c0.86-3.044 1.688-13.3 1.84-22.69l0.266-17.124 18.934-5.644c10.398-3.078 21.328-6.232 24.226-6.938 4.206-1.058 8.868 2.47 23.214 17.722 9.88 10.442 19.904 21.002 22.274 23.444 2.328 2.438 7.512 4.432 11.536 4.432 5.592 0 7.622-1.316 8.712-5.75 1.352-5.256 2.558-5.672 14.796-4.998 7.322 0.414 14.312 1.318 15.48 2.068 2.294 1.428 5.108-4.134 5.108-10.028 0-1.992 4.4-12.588 9.802-23.626 13.036-26.56 18.404-62.47 12.286-82.416-1.874-6.044-1.874-6.044-5.668 2.44l-3.764 8.532-1.654-9.768c-0.904-5.338-2.514-12.472-3.604-15.854l-1.956-6.124-2.478 6.124-2.48 6.086-1.8-6.904c-1.314-5.114-2.37-6.132-3.87-3.682-1.464 2.25-2.104 1.28-2.142-3.31-0.074-13.186-6.458-10.67-9.956 3.904-1.316 5.558-1.874 6.124-2.066 2.216-0.418-9.462-4.77-8.558-7.846 1.618-1.624 5.404-3.874 9.872-5.040 9.872-8.302 0 12.398-38.464 42.146-78.316 72.54-96.998 100.45-152.176 96.656-191.138-1.61-17.048-8.258-32.066-13.296-30.196-1.984 0.788-6.53-1.464-10.256-4.994-5.9-5.634-7.28-6.018-11.832-3.12-6.154 3.838-6.494 11.646-1.464 32.61 1.958 8.038 3.572 16.784 3.612 19.418 0.036 4.168-0.868 3.874-7.33-2.328-10.742-10.296-13.368-6.198-9.992 15.516 3.574 23.138 3.574 23.17-2.814 21.602-4.552-1.094-7.4 1.27-16.53 13.778-6.052 8.302-30.316 39.332-53.912 68.93-23.59 29.642-49.81 62.93-58.184 74.004-8.414 11.126-16.076 20.178-17.058 20.178-5.030 0-62.282-15.592-82.826-22.54l-23.778-8.006-12.854-22.052c-11.83-20.358-12.802-23.212-12.956-38.16-0.070-8.94 2.102-29.154 4.852-44.966 2.736-15.814 4.696-29.076 4.278-29.452-0.418-0.446-6.792 1.316-14.16 3.87-20.058 6.914-22.010 6.388-33.024-8.976-13.068-18.252-42.59-46.162-66.826-63.142l-19.794-13.906 18.856-23.668c21.038-26.398 51.73-71.148 71.448-104.084l13.032-21.712-5.932-4.544c-3.23-2.48-6.684-4.552-7.742-4.584-4.358-0.156-1.16-4.962 6.462-9.694 8.456-5.178 16.19-17.808 16.19-26.366 0-5.26-15.846-15.33-24.108-15.33-5.182 0-14.884-12.514-18.414-23.662-2.778-8.68-6.498-10.072-32.156-11.878-21.322-1.496-24.97-1.194-27.936 2.378z" />
<glyph unicode="&#xe00f;" d="M477.264 224.43c-8.624-11.856-25.246-14.326-36.94-5.476l-161.326 122.024c-11.692 8.844-14.026 25.654-5.182 37.35l25.652 33.926c8.842 11.694 25.648 14.028 37.342 5.184l105.116-75.866 231.010 315.16c8.616 11.86 25.382 14.512 37.246 5.896l34.412-25.008c11.866-8.62 14.516-25.38 5.896-37.24l-273.226-375.95z" />
<glyph unicode="&#xe010;" d="M528.866 483.042c-70.812 25.336-90.956 37.046-90.956 67.53 0 29.86 31.176 42.84 81.854 42.84 38.274 0 61.056-10.426 93.498-23.372 4.56-1.96 7.76-2.6 14.238-2.6 20.774 0 29.88 15.544 29.88 31.844 0 24.026-35.724 40.894-63.616 48.678-15.586 3.876-31.166 7.156-45.404 8.438v47.352c0 16.266-13.030 29.934-29.886 29.934-16.862 0-29.894-13.67-29.894-29.934v-47.352c-78.562-7.158-125.322-43.48-125.322-105.828 0-64.294 39.004-99.344 139.624-131.796 59.714-19.496 88.88-36.36 88.88-68.81 0-28.618-25.894-47.396-74.57-47.396-50.672 0-77.928 16.868-109.736 35.646-5.194 3.282-11.748 4.556-18.778 4.556-18.864 0-30.536-11.676-30.536-30.454 0-27.894 36.926-48.11 67.462-59.060 22.694-7.194 41.56-11.674 60.424-13.588v-47.472c0-16.228 12.944-29.894 29.808-29.894 16.944 0 29.896 13.666 29.896 29.894v48.030c81.768 11.672 120.12 57.79 120.12 115.574-0.002 70.128-54.5 98.062-136.986 127.24zM512 867.454c-231.262 0-419.446-188.154-419.446-419.464 0-231.276 188.18-419.444 419.446-419.444s419.444 188.168 419.444 419.444c0.002 231.308-188.178 419.464-419.444 419.464zM512 110.392c-186.142 0-337.602 151.458-337.602 337.598 0 186.168 151.46 337.63 337.602 337.63s337.602-151.462 337.602-337.63c0.004-186.14-151.456-337.598-337.602-337.598z" />
<glyph unicode="&#xe011;" d="M909.476 736.74h-789.832c-41.086 0-74.544-33.418-74.544-74.496v-464.402c0-41.006 33.46-74.422 74.544-74.422h789.83c41.086 0 74.544 33.418 74.544 74.504v464.32c0.002 41.078-33.46 74.496-74.542 74.496zM119.644 676.514h789.83c7.848 0 14.308-6.462 14.308-14.266v-70.608l-818.446-0.076v70.68c0 7.806 6.462 14.27 14.308 14.27zM909.476 183.646h-789.832c-7.846 0-14.308 6.39-14.308 14.274v269.524h818.444v-269.52c0.004-7.888-6.456-14.278-14.304-14.278z" />
<glyph unicode="&#xe012;" d="M511.998 875.436c-236.068 0-427.432-191.366-427.432-427.432 0-236.050 191.366-427.438 427.432-427.438 236.052 0 427.438 191.388 427.438 427.438 0 236.066-191.386 427.432-427.438 427.432zM300.208 352.152v-14.228c0-6.976-5.868-12.844-12.844-12.844-7.824 0-13.68 5.868-13.68 12.844v13.962c-22.344 1.954-49.688 10.608-58.342 24.292-1.682 2.77-2.798 5.568-2.798 8.926 0 10.32 8.664 18.412 18.438 18.412 3.904 0 7.522-1.118 10.878-3.344 8.936-6.134 19.53-10.89 31.826-13.118l-0.002 44.102c-28.752 7.25-60.024 17.866-60.024 55.824 0 28.2 22.344 52.204 60.024 56.11v14.794c0 6.978 5.858 12.844 13.68 12.844 6.976 0 12.844-5.864 12.844-12.844v-15.362c16.454-1.956 40.182-8.36 48.276-20.358 1.674-2.532 2.796-5.596 2.796-8.668 0-10.614-10.046-18.138-19.824-18.138-1.682 0-3.338 0.274-5.292 0.842-8.092 2.23-17.316 8.634-25.956 10.594v-39.342c28.746-7.276 60.844-18.43 60.844-56.384-0.002-30.982-20.094-54.71-60.844-58.916zM688.934 301.208c0-90.294-47.608-141.908-134.676-141.908-87.148 0-134.686 51.614-134.686 141.908v293.592c0 90.296 47.54 141.916 134.686 141.916 87.070 0 134.676-51.618 134.676-141.916v-293.592zM300.208 424.456v-37.396c13.66 2.776 20.638 10.89 20.638 19.528-0.002 9.228-8.638 13.948-20.638 17.868zM554.258 656.074c-28.24 0-45.976-15.304-45.976-55.622v-304.894c0-40.326 17.736-55.622 45.976-55.622 28.232 0 45.964 15.296 45.964 55.622v304.898c0 40.318-17.732 55.618-45.964 55.618zM254.134 490.338c0-8.092 7.818-12.572 19.55-15.906v34.042c-12.566-1.682-19.55-8.664-19.55-18.136z" />
<glyph unicode="&#xe013;" d="M682.478 501.396h-3.508c-7.852 0-14.188-1.168-18.228-8.624-4.378-8.11-4.408-17.698-4.408-26.688 0-9-0.104-19.042 4.282-27.184 3.576-6.62 9.26-8.906 16.41-8.906h7.4c7.174 0 12.828 2.286 16.408 8.906 4.428 8.144 4.298 18.192 4.298 27.184 0 8.996-0.054 18.576-4.408 26.688-4.010 7.462-10.382 8.624-18.246 8.624zM523.2 495.644c-4.974-7.416-6.062-14.188-6.062-26.24 0-10.106-0.752-24.592 6.062-33.402 4.482-5.806 9.95-6.004 13.576-6.004h25.072v71.408h-25.072c-5.624-0.004-10.754-1.526-13.576-5.762zM400.112 501.396h-3.48c-7.866-0.006-14.202-1.168-18.24-8.624-4.38-8.11-4.41-17.698-4.41-26.688 0-9-0.116-19.042 4.288-27.184 3.554-6.62 9.25-8.906 16.408-8.906h7.384c7.184 0 12.852 2.286 16.432 8.906 4.418 8.144 4.296 18.192 4.296 27.184 0 8.996-0.040 18.576-4.408 26.688-4.036 7.462-10.394 8.624-18.27 8.624zM868.89 428.574c-7.058 0-11.546-3.176-11.546-8.222 0-5.044 4.9-8.23 11.546-8.23 6.76 0 12.112 3.604 12.112 8.23-0.002 4.47-5.352 8.222-12.112 8.222zM1006.434 310.978l-45.79 274.050c-2.554 15.306-17.36 27.822-32.862 27.822l-886.646-0.004c-15.508 0-26.124-12.516-23.564-27.822l45.788-274.050c2.552-15.308 17.352-27.824 32.858-27.824h886.646c15.516 0.004 26.108 12.52 23.57 27.828zM321.794 410.69c-0.13-2.634-1.428-9.218-10.808-9.406h-20.698c-9.374 0.19-10.66 6.772-10.78 9.406v68.892c0 8.024-0.144 13.784-2.712 16.934-2.96 3.578-7.664 4.876-17.542 4.876h-14.198v-90.7c-0.134-2.634-1.434-9.218-10.806-9.406h-17.664c-9.384 0.19-10.662 6.772-10.806 9.406v68.892c0 8.024-0.274 13.506-3.002 16.934-2.782 3.438-7.774 4.876-17.246 4.876l-14.176 0.002v-90.7c0-2.68-1.434-9.218-10.806-9.406h-20.536c-8.072 0.156-10.672 4.964-10.672 8.046v109.588c0 9.4 6.738 10.79 9.416 10.79l131.672 0.010c11.288 0 20.508-1.874 27.65-5.634 7.148-3.77 13.292-9.244 17.342-15.45 3.536-5.438 5.616-12.664 5.926-17.434 0.282-4.762 0.446-10.75 0.446-17.948l0.008-62.568zM463.724 447.14c-2.414-19.416-14.316-37.55-33.57-43.664-10.074-3.206-19.002-3.016-31.768-3.016s-21.714-0.19-31.802 3.016c-19.234 6.11-31.142 24.24-33.56 43.664-1.314 10.588-1.286 21.516-0.204 32.12 1.004 9.9 3.2 19.792 8.706 28.214 9.826 15.040 26.782 22.236 44.208 22.236h25.25c17.474 0 34.416-7.198 44.258-22.236 5.506-8.422 7.67-18.322 8.678-28.214 1.11-10.604 1.138-21.532-0.196-32.12zM604.16 399.462c0-16.374-2.342-29.076-13.3-40.064-9.84-9.818-24.138-11.75-35.65-11.75h-65.396c-2.186 0-4.066 1.344-4.854 3.256-0.246 0.62-0.396 1.308-0.396 2.010 0 1.36 0.548 2.606 1.392 3.536l14.264 13.33c4.958 5.084 11.876 8.25 19.536 8.25h23.956c7.498 0 13.538 0.814 15.774 4.544 2.216 3.75 2.358 8.45 2.358 18.696h-37.748c-8.262 0-15.674 1.812-22.208 5.468-6.552 3.666-11.738 8.294-15.554 13.916-3.832 4.916-6.65 10.626-8.448 17.096-1.832 6.458-2.734 15.814-2.734 26.278 0 10.472 0.826 18.648 2.426 26.142 1.62 7.482 4.428 13.954 8.46 19.402 4.002 5.286 9.454 9.96 16.314 14.042 6.838 4.088 15.288 6.128 25.37 6.128h65.624c9.388-0.212 10.676-6.772 10.81-9.42l0.004-120.86zM712.52 403.484c-10.084-3.206-19.020-3.016-31.77-3.016-12.764 0-21.72-0.19-31.802 3.016-19.238 6.11-31.132 24.24-33.546 43.664-1.336 10.588-1.304 21.516-0.218 32.12 1 9.9 3.2 19.792 8.698 28.214 9.84 15.040 26.796 22.236 44.242 22.236h25.224c17.474 0 34.42-7.198 44.26-22.236 5.494-8.422 7.67-18.322 8.692-28.214 1.086-10.604 1.116-21.53-0.21-32.12-2.422-19.424-14.32-37.558-33.57-43.664zM754.168 401.314c-5.464 0-9.798 4.47-9.798 9.96 0 5.46 4.34 9.798 9.798 9.798 5.474 0 9.95-4.342 9.95-9.798 0.002-5.49-4.476-9.96-9.95-9.96zM805.176 415.304c6.2 0 10.102 2.878 12.396 4.616 1.594 1.152 3.044 1.734 5.36 1.734 4.008 0 6.75-2.742 6.75-6.64 0-2.456-0.848-4.18-2.432-5.908-4.196-4.616-11.968-8.502-22.22-8.502-20.908 0-34.010 14.566-34.010 33.014 0 18.46 13.1 33.022 34.010 33.022 10.252 0 18.024-3.894 22.22-8.512 1.584-1.734 2.432-3.454 2.432-5.926 0-3.886-2.744-6.622-6.75-6.622-2.316 0-3.76 0.592-5.36 1.736-2.294 1.728-6.192 4.606-12.396 4.606-11.112 0-16.862-8.658-16.862-18.304s5.75-18.314 16.862-18.314zM898.302 409.822c0-4.752-3.474-8.646-8.51-8.646-4.898 0-8.506 3.894-8.506 8.646v0.292c-4.038-6.494-10.652-9.512-18.594-9.512-13.858 0-22.498 8.354-22.498 19.75 0 13.114 10.1 19.75 23.352 19.756 6.626 0 13.288-2.17 17.454-6.64v4.62c0 9.658-3.472 13.834-14.696 13.834-8.238 0-13.288-3.174-17.176-3.174-4.196 0-7.362 3.024-7.362 7.074 0 9.356 19.348 10.81 26.102 10.81 19.612 0 30.436-9.524 30.436-27.4v-29.41z" />
<glyph unicode="&#xe014;" d="M511.998 875.43c-236.068 0-427.432-191.36-427.432-427.43 0-236.044 191.366-427.43 427.432-427.43 236.052 0 427.438 191.386 427.438 427.43 0 236.070-191.386 427.43-427.438 427.43zM750.864 602.186c-0.208-0.99-0.866-2.476-1.46-3.294l-271.058-372.972c-0.596-0.82-1.804-1.9-2.686-2.402l-33.542-4.968c-0.988 0.222-2.458 0.906-3.266 1.518l-158.384 119.8c-0.808 0.612-1.866 1.84-2.352 2.728l-4.708 33.936c0.226 0.99 0.908 2.46 1.52 3.266l23.426 30.986c0.612 0.806 1.838 1.866 2.728 2.356l33.928 4.71c0.988-0.226 2.47-0.896 3.292-1.488l102.126-73.71c0.822-0.592 1.984-0.408 2.586 0.41l228.83 312.186c0.6 0.816 1.81 1.896 2.69 2.402l33.84 5.356c0.994-0.208 2.476-0.862 3.294-1.46l31.432-22.84c0.82-0.596 1.902-1.804 2.404-2.682l5.36-33.838z" />
<glyph unicode="&#xe015;" d="M558.394 231.598v169.538h169.548c24.538 0.006 44.792 20.286 44.792 44.798 0 27.732-20.254 48.006-44.792 48l-169.548-0.006-0.006 168.496c0.010 25.598-20.262 45.854-45.854 45.85-26.654 0-46.932-20.258-46.938-45.854l0.006-168.492h-168.488c-25.598-0.006-45.854-20.272-45.86-45.86 0.006-26.662 20.26-46.938 45.86-46.932h168.492l-0.006-169.544c0-24.55 20.272-44.802 44.798-44.798 27.72-0.008 47.992 20.254 47.996 44.804z" />
<glyph unicode="&#xe016;" d="M814.234 749.778c-166.924 166.924-437.55 166.93-604.48 0-166.914-166.914-166.92-437.55 0.006-604.474 166.914-166.92 437.566-166.924 604.48-0.010 166.928 166.928 166.906 437.572-0.006 604.484zM729.626 401.894c-0.924-0.418-2.508-0.76-3.522-0.76h-165.864c-1.014 0-1.844-0.83-1.844-1.844v-165.852c0-1.014-0.344-2.598-0.76-3.522 0 0-19.518-43.134-47.24-43.124-24.524-0.006-44.038 43.118-44.038 43.118-0.418 0.924-0.76 2.508-0.76 3.522l0.006 165.858c0 1.014-0.83 1.844-1.844 1.844h-164.804c-1.014 0-2.604 0.336-3.53 0.744 0 0-44.168 19.526-44.172 46.188 0.006 25.588 44.172 45.114 44.172 45.114 0.926 0.41 2.516 0.744 3.53 0.744h164.802c1.014 0 1.844 0.83 1.844 1.844l-0.006 164.802c0 1.014 0.336 2.604 0.748 3.53 0 0 19.538 44.168 46.19 44.168 25.592 0.006 45.11-44.162 45.11-44.162 0.41-0.926 0.744-2.516 0.744-3.53l0.006-164.808c0-1.014 0.83-1.844 1.844-1.844l165.864 0.006c1.014 0 2.598-0.344 3.522-0.76 0 0 43.112-19.51 43.112-47.24 0.002-24.51-43.11-44.036-43.11-44.036z" />
<glyph unicode="&#xe017;" d="M939.422 447.542c0 236.066-191.36 427.43-427.43 427.43-236.052 0-427.426-191.366-427.426-427.43-0.002-236.056 191.37-427.438 427.426-427.438 236.074 0 427.43 191.386 427.43 427.438zM633.606 261.378c-0.95 0.358-2.312 1.236-3.028 1.954l-117.284 117.284c-0.716 0.714-1.89 0.714-2.608 0l-117.274-117.276c-0.716-0.714-2.078-1.594-3.028-1.954 0 0-44.3-16.698-63.896 2.91-17.344 17.336-0.65 61.626-0.65 61.626 0.358 0.95 1.236 2.312 1.954 3.028l117.278 117.276c0.716 0.716 0.716 1.89 0 2.608l-116.534 116.534c-0.716 0.716-1.602 2.078-1.968 3.024 0 0-17.426 45.038 1.424 63.896 18.096 18.086 63.138 0.666 63.138 0.666 0.944-0.366 2.304-1.252 3.024-1.968l116.534-116.534c0.716-0.716 1.89-0.716 2.608 0l116.532 116.536c0.714 0.716 2.076 1.602 3.024 1.968 0 0 45.048 17.416 63.896-1.432 18.096-18.092 0.668-63.124 0.668-63.124-0.366-0.944-1.252-2.304-1.968-3.024l-116.534-116.542c-0.714-0.716-0.714-1.89 0-2.608l117.286-117.282c0.714-0.714 1.594-2.078 1.954-3.028 0 0 16.692-44.28-2.918-63.888-17.338-17.328-61.63-0.65-61.63-0.65z" />
<glyph unicode="&#xe018;" d="M392.112 262.032l119.882 119.882 119.89-119.89c17.354-17.346 46.018-17.332 63.35 0.002 19.61 19.61 19.622 48.266 2.268 65.616l-119.892 119.888 119.14 119.148c18.106 18.092 18.096 46.75-0.002 64.844-18.846 18.846-47.512 18.862-65.612 0.766l-119.14-119.144-119.142 119.142c-18.104 18.096-46.76 18.088-64.856 0-18.85-18.856-18.864-47.516-0.758-65.612l119.142-119.142-119.888-119.882c-17.36-17.356-17.344-46.016 0-63.352 19.594-19.614 48.256-19.62 65.618-2.266z" />
<glyph unicode="&#xe019;" d="M511.998 875.43c-236.068 0-427.43-191.362-427.43-427.43 0-236.056 191.362-427.43 427.43-427.43 236.052 0 427.436 191.376 427.436 427.43-0.002 236.068-191.384 427.43-427.436 427.43zM506.344 162.444c-35.538 0-65.436 29.882-65.436 65.438 0 35.54 29.898 65.42 65.436 65.42 35.544 0 65.426-29.88 65.426-65.42 0-35.554-29.882-65.438-65.426-65.438zM541.080 396.7c0-10.504 2.422-13.722 2.422-21.812 0-20.196-15.348-42.814-45.23-42.814-30.7 0-57.364 25.858-57.364 75.134 0 96.12 117.934 107.436 117.934 163.166 0 25.044-18.576 46.042-63.002 46.042-24.23 0-46.842-8.076-66.242-20.998-9.692-6.466-21.812-9.702-33.92-9.702-25.85 0-47.662 17.78-47.662 46.86 0 8.072 1.616 15.336 4.848 21.806 21.814 42.814 103.4 63.81 155.096 63.81 104.198 0 168.020-52.5 168.020-127.628 0.004-117.934-134.9-126.82-134.9-193.864z" />
<glyph unicode="&#xe01a;" d="M511.592 192.168c-32.954 0-59.914 27.74-59.914 59.92 0 32.986 26.96 60.68 59.914 60.68 32.988 0 60.692-27.694 60.692-60.68 0.002-32.178-27.702-59.92-60.692-59.92zM555.056 398.958c-0.74-23.258-19.472-41.214-44.204-41.214-23.212 0-41.948 17.956-42.682 41.214-3.738 83.092-12.008 235.176-12.008 250.174 0 30.71 23.988 54.666 56.208 54.666 30.71 0 53.924-23.954 53.924-54.666 0.002-14.996-7.498-167.082-11.238-250.174zM511.956 20.568c-235.706 0-427.426 191.72-427.426 427.432 0 235.668 191.718 427.432 427.426 427.432s427.51-191.764 427.51-427.432c0-235.712-191.8-427.432-427.51-427.432zM511.956 792.016c-189.68 0-344.012-154.328-344.012-344.016 0-189.722 154.332-344.008 344.012-344.008 189.73 0 344.098 154.286 344.098 344.008 0 189.688-154.366 344.016-344.098 344.016z" />
<glyph unicode="&#xe01b;" d="M944.428 252.544l-21.434 36.874c-71.416 123.7-188.286 325.982-259.704 449.682l-21.446 37.062c-71.418 123.704-188.28 123.664-259.7-0.034l-21.424-37.14c-71.422-123.692-188.288-326.122-259.708-449.82l-21.434-37.12c-71.418-123.704-12.984-224.39 129.85-224.39l42.876 0.502c142.842 0 376.574 0 519.412 0h42.86c142.834 0 201.262 100.684 129.852 224.384zM512.454 723.8c35.956 0 63.134-28.050 63.134-63.998 0-17.548-8.78-195.596-13.156-292.874-0.866-27.226-22.8-48.25-51.75-48.25-27.18 0-49.116 21.026-49.972 48.25-4.372 97.278-14.054 275.322-14.054 292.874 0.002 35.948 28.080 63.998 65.798 63.998zM511.546 124.846c-38.58 0-70.144 32.476-70.144 70.15 0 38.616 31.564 71.032 70.144 71.032 38.616 0 71.050-32.418 71.050-71.032 0.002-37.676-32.434-70.15-71.050-70.15z" />
<glyph unicode="&#xe01c;" d="M858.506 729.926c-0.092 0.968-0.28 1.902-0.41 2.86-0.192 1.374-0.35 2.754-0.624 4.12-0.23 1.124-0.538 2.22-0.816 3.322-0.292 1.182-0.542 2.358-0.898 3.52-0.332 1.082-0.74 2.13-1.124 3.192-0.404 1.162-0.792 2.33-1.27 3.468-0.404 0.968-0.88 1.902-1.318 2.854-0.558 1.188-1.094 2.38-1.708 3.54-0.476 0.876-1.006 1.698-1.516 2.552-0.684 1.18-1.354 2.358-2.12 3.504-0.6 0.886-1.264 1.712-1.902 2.578-0.756 1.026-1.478 2.082-2.292 3.078-1.052 1.278-2.186 2.462-3.312 3.66-0.488 0.52-0.922 1.072-1.434 1.582-0.484 0.484-1.006 0.89-1.496 1.354-1.224 1.154-2.458 2.316-3.76 3.39-0.936 0.77-1.926 1.446-2.9 2.17-0.916 0.678-1.812 1.4-2.776 2.030-1.062 0.714-2.174 1.338-3.258 1.99-0.932 0.552-1.846 1.136-2.804 1.656-1.062 0.568-2.16 1.048-3.246 1.562-1.058 0.494-2.082 1.022-3.164 1.464-1.014 0.422-2.054 0.756-3.078 1.134-1.2 0.432-2.38 0.886-3.604 1.254-0.986 0.292-1.984 0.51-2.978 0.766-1.288 0.328-2.552 0.676-3.866 0.942-1.096 0.212-2.196 0.332-3.302 0.5-1.218 0.186-2.438 0.418-3.676 0.53-1.818 0.182-3.642 0.236-5.47 0.282-0.54 0.010-1.058 0.080-1.592 0.080h-459.486c-39.806 0-72.076-32.272-72.076-72.074s32.272-72.074 72.076-72.074h285.474l-426.538-426.538c-28.15-28.152-28.15-73.782 0-101.934 14.074-14.068 32.522-21.108 50.968-21.108 18.45 0 36.892 7.040 50.972 21.108l426.536 426.534v-285.468c0-39.808 32.266-72.080 72.074-72.080 39.802 0 72.074 32.272 72.074 72.080l0.002 459.438c0.002 2.396-0.124 4.798-0.362 7.182z" />
<glyph unicode="&#xe01d;" d="M127.64 777.324h768.692c34.75 0 62.92-28.136 62.92-62.888 0-34.682-28.17-62.882-62.92-62.882h-768.692c-34.716 0-62.888 28.2-62.888 62.882-0.002 34.748 28.174 62.888 62.888 62.888zM127.64 510.886h768.692c34.75 0 62.92-28.136 62.92-62.888 0-34.682-28.17-62.882-62.92-62.882h-768.692c-34.716 0-62.888 28.2-62.888 62.882-0.002 34.752 28.174 62.888 62.888 62.888zM127.64 246.932h768.692c34.75 0 62.92-28.136 62.92-62.888 0-34.686-28.17-62.884-62.92-62.884h-768.692c-34.716 0-62.888 28.2-62.888 62.884-0.002 34.752 28.174 62.888 62.888 62.888z" />
<glyph unicode="&#xe01e;" d="M107.054 414.9c-0.001-0.13-0.001-0.284-0.001-0.438 0-53.013 42.975-95.988 95.988-95.988 52.551 0 95.238 42.229 95.978 94.604 0.009 1.952 0.010 2.106 0.010 2.26 0 53.013-42.975 95.988-95.988 95.988-52.551 0-95.238-42.229-95.978-94.604zM416.010 414.9c-0.001-0.13-0.001-0.284-0.001-0.438 0-53.013 42.975-95.988 95.988-95.988 52.551 0 95.238 42.229 95.978 94.604 0.009 1.952 0.010 2.106 0.010 2.26 0 53.013-42.975 95.988-95.988 95.988-52.551 0-95.238-42.229-95.978-94.604zM724.968 414.9c0-53.013 42.975-95.988 95.988-95.988s95.988 42.975 95.988 95.988c0 53.013-42.975 95.988-95.988 95.988s-95.988-42.975-95.988-95.988z" />
<glyph unicode="&#xe01f;" d="M704 320c-64-64-64-128-128-128s-128 64-192 128-128 128-128 192 64 64 128 128-128 256-192 256-192-192-192-192c0-128 131.5-387.5 256-512s384-256 512-256c0 0 192 128 192 192s-192 256-256 192z" />
<glyph unicode="&#xe020;" d="M768 960h-576c-35.2 0-64-28.798-64-64v-896c0-35.2 28.798-64 64-64h576c35.2 0 64 28.8 64 64v896c0 35.202-28.8 64-64 64zM480-17.782c-27.492 0-49.782 22.29-49.782 49.782s22.29 49.782 49.782 49.782 49.782-22.29 49.782-49.782-22.29-49.782-49.782-49.782zM768 128h-576v704h576v-704z" />
<glyph unicode="&#xe021;" d="M640 384c105.87 0 201.87-43.066 271.402-112.598l-90.468-90.468c-46.354 46.356-110.356 75.066-180.934 75.066s-134.578-28.71-180.934-75.066l-90.468 90.468c69.532 69.532 165.532 112.598 271.402 112.598zM187.452 452.548c120.88 120.88 281.598 187.452 452.548 187.452s331.668-66.572 452.55-187.452l-90.51-90.508c-96.706 96.704-225.28 149.96-362.040 149.96-136.762 0-265.334-53.256-362.038-149.962l-90.51 90.51zM988.784 825.562c106.702-45.132 202.516-109.728 284.782-191.996v0l-90.508-90.508c-145.056 145.056-337.92 224.942-543.058 224.942-205.14 0-398-79.886-543.058-224.942l-90.51 90.51c82.268 82.266 178.082 146.862 284.784 191.994 110.504 46.738 227.852 70.438 348.784 70.438s238.278-23.7 348.784-70.438zM576 64c0-35.346 28.654-64 64-64s64 28.654 64 64c0 35.346-28.654 64-64 64s-64-28.654-64-64z" horiz-adv-x="1280" />
<glyph unicode="&#xe600;" d="M437.006 141.838c0-75.068-46.39-134.392-177.758-139.176-76.984 43.786-141.49 106.952-186.908 182.866 23.69 58.496 97.692 103.046 182.316 102.114 24.022-0.252 46.41-4.114 66.744-10.7 55.908-38.866 101-63.152 112.324-107.448 2.114-8.964 3.282-18.206 3.282-27.656zM512 960c-147.94 0-281.196-62.77-374.666-163.098 36.934 20.452 80.538 32.638 126.902 32.638 67.068 0 256.438 0 256.438 0l-57.304-60.14h-67.31c47.496-27.212 72.752-83.248 72.752-145.012 0-56.692-31.416-102.38-75.78-137.058-43.28-33.802-51.492-47.966-51.492-76.734 0-24.542 51.722-61.098 75.5-78.936 82.818-62.112 99.578-101.184 99.578-178.87 0-78.726-68.936-157.104-185.866-183.742 56.348-21.338 117.426-33.048 181.248-33.048 282.77 0 512 229.23 512 512s-229.23 512-512 512zM768 576v-128h-64v128h-128v64h128v128h64v-128h128v-64h-128zM365.768 620.528c11.922-90.776-27.846-149.19-96.934-147.134-69.126 2.082-134.806 65.492-146.74 156.242-11.928 90.788 34.418 160.254 103.53 158.196 69.090-2.074 128.22-76.542 140.144-167.304zM220.886 317.932c-74.68 0-138.128-25.768-182.842-63.864-24.502 59.82-38.044 125.29-38.044 193.932 0 56.766 9.256 111.368 26.312 162.396 7.374-99.442 77.352-176.192 192.97-176.192 8.514 0 16.764 0.442 24.874 1.022-7.95-15.23-13.622-32.19-13.622-49.982 0-29.97 16.488-47.070 36.868-66.894-15.402 0-30.27-0.418-46.516-0.418z" />
<glyph unicode="&#xe601;" d="M512.047 950.086c-276.887 0-502.134-225.228-502.134-502.096s225.247-502.096 502.134-502.096c276.868 0 502.115 225.228 502.115 502.096s-225.247 502.096-502.115 502.096zM512.047 46.496c-221.411 0-401.551 180.103-401.551 401.494 0 221.411 180.141 401.532 401.551 401.532 221.392 0 401.532-180.122 401.532-401.532 0-221.392-180.141-401.494-401.532-401.494zM663.054 338.919c-40.282-40.263-93.916-62.446-151.064-62.446-57.109 0-110.724 22.183-151.007 62.465-17.169 17.112-47.082 17.112-64.137-0.019-8.603-8.584-13.332-20.018-13.314-32.135 0-12.117 4.748-23.493 13.314-32.040 57.375-57.394 133.8-89.016 215.2-89.016 81.381 0 157.806 31.603 215.124 88.959 8.603 8.527 13.351 19.923 13.37 32.040 0.019 12.174-4.71 23.588-13.314 32.192-17.112 17.112-46.778 17.226-64.174 0zM344.594 468.236c43.036 0 78.039 35.003 78.039 78.039s-35.003 78.039-78.039 78.039c-43.036 0-78.039-35.003-78.039-78.039 0-43.017 35.003-78.039 78.039-78.039zM679.463 624.333c-43.036 0-78.039-35.003-78.039-78.039s35.022-78.039 78.039-78.039 78.039 35.003 78.039 78.039c0.019 43.017-35.003 78.039-78.039 78.039z" />
<glyph unicode="&#xe602;" d="M512.047 950.086c-276.887 0-502.134-225.228-502.134-502.096s225.247-502.096 502.134-502.096c276.868 0 502.115 225.228 502.115 502.096s-225.247 502.096-502.115 502.096zM512.047 46.496c-221.411 0-401.551 180.103-401.551 401.494 0 221.411 180.141 401.532 401.551 401.532 221.392 0 401.532-180.122 401.532-401.532 0-221.392-180.141-401.494-401.532-401.494zM512.066 364.919c-86.927 0-168.707-28.336-230.204-79.786-9.667-7.996-15.213-19.41-15.251-31.337-0.019-11.946 5.508-23.455 15.194-31.565 17.53-14.643 46.797-14.757 64.687 0 44.024 36.788 102.843 57.033 165.631 57.033s121.55-20.246 165.555-57.052c8.812-7.35 20.303-11.376 32.344-11.376 12.079 0 23.55 4.045 32.325 11.414 9.667 8.091 15.194 19.562 15.194 31.489-0.019 11.908-5.565 23.341-15.194 31.337-61.554 51.488-143.334 79.843-230.28 79.843zM344.594 583.177c43.036 0 78.039 35.003 78.039 78.039s-35.003 78.039-78.039 78.039c-43.036 0-78.039-35.003-78.039-78.039s35.003-78.039 78.039-78.039zM679.463 583.177c43.036 0 78.039 35.003 78.039 78.039s-35.022 78.039-78.039 78.039-78.039-35.003-78.039-78.039c0-43.036 35.022-78.039 78.039-78.039z" />
<glyph unicode="&#xe604;" d="M493.439 13.55c49.308 19.495 97.46 57.951 129.275 109.528 32.393 51.31 47.574 113.071 47.87 171.764 0.563 59.078-12.809 115.176-32.482 165.626-2.402 6.271-5.574 13.357-8.376 19.999l-7.116 15.744-6.167 12.883-4.625 10.822c-5.915 14.336-10.585 28.479-13.98 42.118-6.745 27.382-8.139 52.881-4.714 77.18 3.425 24.224 12.008 47.559 25.41 68.373 6.493 10.555 14.336 20.385 23.112 28.924 8.628 8.851 18.131 16.871 28.271 23.35 10.022 6.909 20.651 12.557 31.518 16.886 10.808 4.818 21.897 7.961 32.852 10.2 21.941 4.803 43.438 4.966 61.747 3.158 18.368-1.764 33.668-5.53 44.060-8.183 10.719-3.084 16.411-4.729 16.411-4.729l-0.608 1.245c-43.779 45.469-96.259 81.894-154.181 107.082-3.009 0.46-5.782 1.201-8.865 1.571-19.169 1.853-39.983 2.076-61.584-0.83-21.467-3.217-43.912-8.806-66.12-17.924-22.030-9.355-44.164-21.6-64.904-37.404-41.392-31.503-77.387-77.595-98.305-132.551-21.23-54.764-26.641-117.074-17.553-175.114 4.255-29.131 12.26-57.136 22.193-83.762 10.333-27.441 22.801-50.183 26.982-61.465 13.18-31.34 21.763-62.088 25.084-90.003 3.291-27.99 1.364-52.896-5.47-74.689-6.834-21.748-18.798-41.125-36.396-57.21-8.702-8.109-18.887-14.959-29.828-21.141-11.074-5.9-23.023-10.378-35.373-14.188-24.773-7.042-50.924-9.369-75.237-8.836-24.328 0.682-46.729 4.062-65.542 7.828-18.739 3.914-33.979 8.006-44.461 10.926-6.864 1.987-11.415 3.291-13.936 4.003 55.046-63.066 126.013-110.907 205.432-138.111 40.324-5.337 87.854-2.342 135.605 16.93z" />
<glyph unicode="&#xe605;" d="M792.414 251.768c0-154.854-125.552-280.44-280.457-280.44-154.854 0-280.406 125.569-280.406 280.44 0 154.905 280.406 672.905 280.406 672.905s280.457-517.999 280.457-672.905z" />
<glyph unicode="&#xe606;" d="M1010.079 447.886l-438.51 438.879-0.030-233.932h-557.617v-409.382h557.561l-0.030-234.217z" />
<glyph unicode="&#xe607;" d="M19.327 195.843v231.201h163.606v-43.333h-114.385v-48.874h111.962v-43.331h-111.962v-95.662h-49.221zM415.851 195.843l-45.411 82.146h-36.051v-82.146h-49.221v231.201h108.146c48.182 0 77.645-31.552 77.645-74.536 0-40.896-25.65-62.738-50.604-68.63l51.993-88.036h-56.497zM420.703 352.509c0 19.421-14.905 31.202-34.665 31.202h-51.647v-62.389h51.647c19.761 0 34.665 11.781 34.665 31.187zM575.408 195.843v231.201h163.607v-43.333h-114.383v-48.874h111.956v-43.331h-111.956v-52.336h114.383v-43.326h-163.607zM848.361 195.843v231.201h163.606v-43.333h-114.382v-48.874h111.954v-43.331h-111.954v-52.336h114.382v-43.326h-163.606zM69.913 51.505v-16.118c0-19.399-9.703-30.487-28.413-30.487-18.715 0-28.416 11.088-28.416 30.487v63.073c0 19.399 9.703 30.487 28.416 30.487 18.71 0 28.413-11.088 28.413-30.487v-11.788h-18.020v12.991c0 8.669-3.808 11.963-9.874 11.963-6.062 0-9.875-3.296-9.875-11.963v-65.479c0-8.669 3.813-11.789 9.875-11.789 6.065 0 9.874 3.121 9.874 11.789v17.321h18.020zM146.442 6.285c-1.039 3.121-1.732 5.023-1.732 14.902v19.056c0 11.262-3.812 15.419-12.474 15.419h-6.582v-49.376h-19.059v121.279h28.759c19.752 0 28.242-9.178 28.242-27.901v-9.527c0-12.465-3.984-20.609-12.474-24.596 9.529-3.989 12.649-13.166 12.649-25.814v-18.715c0-5.891 0.172-10.22 2.078-14.728h-19.407zM125.656 110.242v-37.252h7.451c7.101 0 11.435 3.11 11.435 12.823v11.948c0 8.66-2.945 12.48-9.703 12.48h-9.183zM221.002 76.452h26.161v-17.323h-26.161v-35.524h32.919v-17.323h-51.978v121.279h51.978v-17.323h-32.919v-33.787zM290.689 127.563h30.148c19.056 0 28.413-10.571 28.413-29.97v-61.338c0-19.407-9.357-29.97-28.413-29.97h-30.148v121.279zM309.748 110.242v-86.635h10.742c6.062 0 9.7 3.119 9.7 11.781v63.073c0 8.66-3.638 11.781-9.7 11.781h-10.742zM386.522 127.563h19.061v-121.279h-19.061v121.279zM440.554 127.563h58.908v-17.323h-19.924v-103.958h-19.059v103.958h-19.924v17.323zM612.288 128.947c18.537 0 28.066-11.088 28.066-30.487v-3.82h-18.022v5.023c0 8.669-3.47 11.963-9.527 11.963-6.074 0-9.529-3.296-9.529-11.963 0-24.946 37.245-29.619 37.245-64.276 0-19.399-9.696-30.487-28.416-30.487-18.706 0-28.403 11.088-28.403 30.487v7.457h18.007v-8.66c0-8.669 3.82-11.789 9.877-11.789 6.074 0 9.879 3.121 9.879 11.789 0 24.946-37.245 29.619-37.245 64.276 0.002 19.399 9.529 30.487 28.068 30.487zM732.928 51.505v-16.118c0-19.399-9.696-30.487-28.418-30.487-18.706 0-28.401 11.088-28.401 30.487v63.073c0 19.399 9.695 30.487 28.401 30.487 18.721 0 28.418-11.088 28.418-30.487v-11.788h-18.022v12.991c0 8.669-3.805 11.963-9.865 11.963-6.072 0-9.877-3.296-9.877-11.963v-65.479c0-8.669 3.805-11.789 9.877-11.789 6.059 0 9.865 3.121 9.865 11.789v17.321h18.022zM768.848 98.461c0 19.399 10.228 30.487 28.935 30.487s28.935-11.088 28.935-30.487v-63.073c0-19.399-10.228-30.487-28.935-30.487s-28.935 11.088-28.935 30.487v63.073zM787.904 34.185c0-8.669 3.82-11.963 9.877-11.963s9.877 3.296 9.877 11.963v65.479c0 8.669-3.82 11.963-9.877 11.963s-9.877-3.296-9.877-11.963v-65.479zM903.946 6.285c-1.034 3.121-1.735 5.023-1.735 14.902v19.056c0 11.262-3.803 15.419-12.465 15.419h-6.589v-49.376h-19.058v121.279h28.767c19.742 0 28.234-9.178 28.234-27.901v-9.527c0-12.465-3.987-20.609-12.48-24.596 9.527-3.989 12.649-13.166 12.649-25.814v-18.715c0-5.891 0.182-10.22 2.085-14.728h-19.407zM883.155 110.242v-37.252h7.457c7.093 0 11.431 3.11 11.431 12.823v11.948c0 8.66-2.953 12.48-9.711 12.48h-9.178zM978.512 76.452h26.149v-17.323h-26.149v-35.524h32.907v-17.323h-51.965v121.279h51.965v-17.323h-32.907v-33.787zM272.906 587.371l-23.089 31.384 232.617 171.118 63.18-85.882 229.505 168.823 23.090-31.384-260.889-191.913-63.182 85.882zM788.771 741.575l-38.522 5.866 14.224 93.353-93.356 14.219 5.875 38.524 131.865-20.088zM9.674 529.266h1004.653v-15.586h-1004.653v15.586z" />
<glyph unicode="&#xe608;" d="M206.633 140.199c-2.486 0-4.972 1.003-6.742 2.82-1.817 1.77-2.82 4.209-2.82 6.747 0 2.481 1.003 4.967 2.82 6.738 3.583 3.588 9.897 3.588 13.48 0.052 1.817-1.822 2.82-4.303 2.82-6.785 0-2.538-1.003-4.977-2.82-6.747-1.766-1.822-4.205-2.825-6.738-2.825zM843.724 177.391c-4.162 3.249-4.878 9.276-1.634 13.438v0c3.254 4.158 9.28 4.873 13.438 1.624v0c4.158-3.301 4.873-9.276 1.624-13.438v0c-1.912-2.439-4.68-3.677-7.552-3.677v0c-2.058 0-4.158 0.664-5.876 2.053zM167.671 179.877v0 0c-3.254 4.158-2.538 10.133 1.624 13.386v0c4.162 3.249 10.184 2.533 13.438-1.629v0c3.249-4.158 2.486-10.18-1.671-13.438v0c-1.723-1.332-3.823-2.006-5.834-2.006v0c-2.877 0.005-5.697 1.248-7.557 3.687zM871.928 215.972c-4.492 2.773-5.881 8.649-3.103 13.146v0c2.773 4.492 8.696 5.876 13.193 3.108v0c4.492-2.773 5.876-8.654 3.103-13.146v0c-1.817-2.966-4.972-4.544-8.174-4.544v0c-1.719 0.005-3.442 0.433-5.019 1.436zM139.798 219.988c-2.773 4.497-1.342 10.373 3.155 13.146v0c4.497 2.773 10.377 1.342 13.146-3.155v0c2.773-4.492 1.342-10.373-3.15-13.151v0c-1.577-0.956-3.301-1.384-4.972-1.384v0c-3.258 0-6.361 1.624-8.179 4.544zM895.686 257.42c-4.784 2.298-6.837 7.981-4.539 12.765v0c2.246 4.784 7.938 6.785 12.717 4.544v0c4.784-2.246 6.832-7.981 4.539-12.717v0c-1.629-3.484-5.066-5.499-8.654-5.499v0c-1.337 0-2.726 0.287-4.063 0.909zM116.561 262.966c0 0 0 0 0.047 0v0c-2.293 4.784-0.235 10.472 4.544 12.717v0c4.784 2.251 10.519 0.193 12.765-4.591v0c2.246-4.784 0.141-10.472-4.638-12.717v0c-1.29-0.622-2.679-0.909-4.016-0.909v0c-3.635 0-7.072 2.058-8.701 5.499zM914.666 301.312c-5.014 1.719-7.698 7.124-5.975 12.143v0c1.714 5.014 7.124 7.651 12.143 5.975v0c4.972-1.714 7.646-7.166 5.975-12.143v0c-1.384-3.969-5.113-6.498-9.083-6.498v0c-1.003-0.005-2.053 0.184-3.060 0.523zM98.349 308.29c-1.723 4.972 0.956 10.424 5.975 12.091v0c4.972 1.723 10.42-0.956 12.096-5.975v0c1.719-5.019-0.956-10.424-5.975-12.143v0c-1.003-0.334-2.058-0.48-3.060-0.48v0c-3.974 0.005-7.698 2.486-9.035 6.507zM928.579 347.059c-5.165 1.102-8.466 6.215-7.317 11.38v0c1.149 5.165 6.262 8.409 11.427 7.27v0c5.165-1.102 8.414-6.22 7.27-11.385v0c-1.008-4.44-4.925-7.505-9.323-7.505v0c-0.669 0.005-1.389 0.099-2.058 0.24zM85.298 355.331v0 0c-1.149 5.16 2.152 10.278 7.265 11.38v0c5.165 1.144 10.283-2.152 11.427-7.317v0c1.097-5.165-2.152-10.231-7.312-11.38v0c-0.716-0.141-1.384-0.188-2.058-0.188v0c-4.398 0-8.372 3.060-9.323 7.505zM937.233 394.058c-5.259 0.574-9.035 5.255-8.513 10.519v0c0.574 5.255 5.259 9.031 10.514 8.508v0c5.264-0.57 9.087-5.259 8.513-10.514v0c-0.523-4.925-4.633-8.555-9.469-8.555v0c-0.325-0.005-0.664-0.005-1.045 0.042zM77.595 403.569v0 0c-0.523 5.259 3.301 9.944 8.513 10.472v0c5.259 0.574 9.944-3.249 10.519-8.508v0c0.527-5.264-3.301-9.944-8.56-10.519v0c-0.334 0-0.669-0.052-0.956-0.052v0c-4.873 0-8.984 3.682-9.516 8.607zM931.065 451.232c-0.047 5.306 4.209 9.61 9.473 9.657v0c5.302 0 9.605-4.256 9.652-9.516v0c0-5.306-4.252-9.61-9.516-9.61v0c-0.047 0-0.047 0-0.094 0v0c-5.208 0.005-9.516 4.214-9.516 9.469zM84.77 442.724c-5.259 0.047-9.516 4.351-9.469 9.615v0c0.052 5.306 4.351 9.563 9.657 9.511v0c5.259-0.047 9.516-4.398 9.464-9.657v0c-0.047-5.259-4.303-9.469-9.563-9.469v0c-0.042 0-0.042 0-0.089 0zM928.198 497.846c-0.622 5.259 3.155 9.991 8.367 10.613v0c5.255 0.622 9.987-3.108 10.613-8.367v0c0.622-5.255-3.159-9.991-8.367-10.613v0c-0.381-0.047-0.767-0.047-1.149-0.047v0c-4.784 0-8.889 3.588-9.464 8.414zM86.729 490.435c-5.212 0.622-8.941 5.401-8.367 10.665v0c0 0 0 0 0.047 0v0c0.622 5.208 5.353 8.937 10.613 8.32v0c5.208-0.622 8.988-5.358 8.367-10.613v0c-0.574-4.873-4.732-8.414-9.516-8.414v0c-0.377-0.005-0.763-0.005-1.144 0.042zM920.165 543.889v0c-1.196 5.113 2.006 10.278 7.166 11.474v0c5.118 1.196 10.283-2.006 11.479-7.171v0 0 0c1.196-5.113-2.010-10.278-7.171-11.474v0c-0.716-0.141-1.431-0.235-2.152-0.235v0c-4.351-0.005-8.268 2.957-9.323 7.406zM93.994 537.674c-5.113 1.196-8.32 6.361-7.124 11.521v0c1.191 5.113 6.356 8.32 11.474 7.072v0c5.16-1.196 8.367-6.309 7.124-11.474v0c-1.003-4.398-4.92-7.364-9.276-7.364v0c-0.716 0-1.478 0.052-2.199 0.245zM907.067 588.685c-1.766 4.972 0.862 10.42 5.834 12.19v0c4.972 1.77 10.42-0.81 12.19-5.787v0c1.77-4.972-0.862-10.42-5.829-12.19v0c-1.055-0.386-2.105-0.574-3.206-0.574v0c-3.922 0-7.599 2.439-8.988 6.361zM106.476 583.807c-4.972 1.766-7.552 7.265-5.787 12.237v0c1.817 4.972 7.265 7.552 12.242 5.787v0c4.972-1.766 7.552-7.265 5.787-12.237v0c-1.384-3.922-5.066-6.361-8.988-6.361v0c-1.102 0-2.156 0.193-3.254 0.574zM888.996 631.758c-2.298 4.732-0.334 10.472 4.398 12.765v0c4.784 2.345 10.476 0.334 12.816-4.402v0c2.293-4.732 0.334-10.472-4.445-12.812v0c-1.337-0.622-2.773-0.956-4.162-0.956v0c-3.541 0.005-6.935 2.010-8.607 5.405zM124.114 628.264c-4.784 2.293-6.742 8.033-4.398 12.765v0c2.345 4.784 8.033 6.695 12.812 4.402v0c4.732-2.345 6.691-8.080 4.351-12.812v0c-1.624-3.395-5.066-5.353-8.607-5.353v0c-1.384 0-2.816 0.334-4.158 0.998zM866.24 672.49c-2.825 4.492-1.53 10.373 2.966 13.193v0c4.44 2.82 10.321 1.53 13.193-2.915v0c2.825-4.497 1.478-10.377-2.966-13.198v0c-1.577-1.055-3.348-1.53-5.113-1.53v0c-3.159 0.005-6.262 1.582-8.080 4.449zM146.587 670.433c-4.497 2.867-5.787 8.748-2.966 13.193v0c0 0 0 0 0.052 0v0c2.82 4.445 8.744 5.787 13.193 2.915v0c4.449-2.82 5.74-8.744 2.919-13.193v0c-1.817-2.867-4.925-4.398-8.080-4.398v0c-1.775 0.005-3.541 0.48-5.118 1.483zM839.082 710.496h-0.052c-3.291 4.11-2.627 10.137 1.483 13.433v0c4.11 3.301 10.133 2.632 13.438-1.478v0 0 0c3.296-4.11 2.67-10.137-1.436-13.438v0c-1.77-1.431-3.875-2.105-5.98-2.105v0c-2.811 0.005-5.584 1.243-7.453 3.588zM173.599 709.828c-4.11 3.348-4.732 9.37-1.436 13.485v0c3.301 4.11 9.323 4.732 13.438 1.436v0c4.11-3.348 4.779-9.37 1.431-13.48v0c-1.865-2.345-4.638-3.536-7.411-3.536v0c-2.152-0.009-4.256 0.706-6.022 2.095zM807.818 745.202c-3.729 3.729-3.729 9.803 0 13.532v0c3.729 3.729 9.751 3.776 13.527 0.047v0c3.729-3.729 3.729-9.803 0-13.532v0c-1.865-1.865-4.299-2.82-6.785-2.82v0c-2.439 0.005-4.878 0.913-6.742 2.773zM204.816 746.021c-3.682 3.729-3.682 9.798 0.094 13.527v0c3.729 3.682 9.803 3.682 13.532-0.099v0c3.682-3.729 3.682-9.798-0.099-13.48v0c-1.865-1.865-4.303-2.773-6.691-2.773v0c-2.486 0-4.925 0.909-6.837 2.825zM772.966 776.278c-4.158 3.301-4.826 9.323-1.526 13.438v0c3.249 4.158 9.271 4.826 13.433 1.53v0c4.115-3.301 4.826-9.276 1.53-13.438v0c-1.912-2.392-4.685-3.583-7.51-3.583v0c-2.105 0-4.162 0.669-5.928 2.053zM239.908 778.481c-3.296 4.158-2.632 10.184 1.53 13.433v0c4.162 3.301 10.184 2.58 13.438-1.573v0c3.301-4.115 2.58-10.137-1.577-13.386v-0.047c-1.719-1.384-3.823-2.058-5.881-2.058v0c-2.825-0.005-5.645 1.238-7.51 3.63zM734.814 803.295c-4.44 2.82-5.829 8.701-3.013 13.193v0c2.825 4.445 8.701 5.787 13.198 3.013v0 0 0c4.44-2.82 5.829-8.748 3.013-13.193v0c-1.817-2.915-4.93-4.497-8.131-4.497v0c-1.719 0-3.489 0.476-5.066 1.483zM278.296 806.878c-2.773 4.492-1.431 10.373 3.060 13.146v0c4.497 2.82 10.377 1.436 13.193-3.013v0c2.773-4.492 1.436-10.373-3.056-13.193v0c-1.577-0.956-3.348-1.436-5.066-1.436v0c-3.159 0-6.314 1.577-8.131 4.497zM693.94 825.857v0c-4.784 2.293-6.747 8.033-4.449 12.765v0c2.251 4.779 7.981 6.785 12.717 4.492v0c4.784-2.293 6.785-8.033 4.497-12.765v0c-1.676-3.442-5.071-5.401-8.607-5.401v0c-1.436 0-2.82 0.287-4.158 0.909zM319.65 830.782c-2.293 4.779-0.235 10.514 4.497 12.765v0c4.784 2.293 10.472 0.287 12.765-4.497v0c2.293-4.779 0.24-10.467-4.492-12.765v0c-1.342-0.622-2.726-0.909-4.115-0.909v0c-3.588 0-7.030 2.010-8.654 5.405zM650.769 843.74v0c-4.977 1.723-7.604 7.218-5.886 12.19v0c1.77 4.972 7.223 7.599 12.195 5.881v0c4.977-1.766 7.599-7.218 5.881-12.19v0c-1.389-3.969-5.066-6.408-9.035-6.408v0c-1.050 0-2.105 0.146-3.155 0.527zM363.442 849.95c-1.77 5.019 0.909 10.472 5.881 12.19v0c4.972 1.723 10.42-0.909 12.19-5.928v0c1.719-4.972-0.909-10.424-5.928-12.143v0c-1.003-0.386-2.105-0.527-3.108-0.527v0c-3.969 0.005-7.694 2.491-9.035 6.408zM605.879 856.646c-5.165 1.149-8.367 6.314-7.223 11.427v0c1.196 5.165 6.314 8.414 11.479 7.218v0c5.165-1.196 8.362-6.309 7.213-11.423v0c-1.050-4.445-4.972-7.458-9.318-7.458v0c-0.72 0-1.436 0.094-2.152 0.235zM409.048 864.104c-1.144 5.118 2.105 10.231 7.265 11.427v0 0 0c5.165 1.144 10.231-2.105 11.427-7.265v0c1.149-5.113-2.105-10.231-7.218-11.427v0c-0.716-0.141-1.436-0.24-2.105-0.24v0c-4.393 0-8.362 3.060-9.37 7.505zM559.835 864.443v0c-5.255 0.57-9.035 5.306-8.414 10.566v0c0.574 5.259 5.311 9.035 10.566 8.414v0c5.208-0.574 8.988-5.306 8.419-10.566v0c-0.527-4.878-4.69-8.461-9.469-8.461v0c-0.386-0.005-0.72-0.005-1.102 0.047zM455.996 872.993c-0.57 5.259 3.254 9.996 8.461 10.57v0 0 0c5.259 0.57 9.996-3.254 10.566-8.461v0c0.574-5.259-3.202-9.996-8.461-10.57v0c-0.334-0.047-0.72-0.047-1.055-0.047v0c-4.826 0-8.984 3.635-9.511 8.508zM503.664 876.628c0 5.259 4.256 9.563 9.563 9.563v0c5.259 0 9.558-4.303 9.558-9.61v0c0-5.259-4.299-9.516-9.558-9.516v0c-5.306 0.005-9.563 4.261-9.563 9.563zM817.668 139.003c-2.533 0-4.972 1.003-6.785 2.82-1.77 1.77-2.773 4.252-2.773 6.747 0 2.481 1.003 4.967 2.773 6.785 3.588 3.536 9.991 3.536 13.527 0 1.77-1.822 2.825-4.303 2.825-6.785 0-2.491-1.055-4.977-2.825-6.747-1.775-1.817-4.261-2.82-6.742-2.82zM512.732-49.178c-274.552 0-497.915 223.358-497.915 497.91 0 274.548 223.362 497.91 497.915 497.91s497.915-223.362 497.915-497.91c0-274.548-223.362-497.91-497.915-497.91zM512.732 927.521c-264.005 0-478.789-214.784-478.789-478.789 0-264.001 214.784-478.789 478.789-478.789 264.001 0 478.789 214.788 478.789 478.789 0 264.005-214.788 478.789-478.789 478.789zM240.572 115.805c8.941 12.204 23.876 13.169 35.158 4.901 8.037-5.886 10.104-13.626 9.648-20.312l-9.539 1.3c0.264 3.988-1.342 8.715-5.448 11.724-6.997 5.132-16.032 3.48-21.371-3.809-5.344-7.293-4.19-16.395 2.806-21.527 3.409-2.495 7.75-3.371 10.373-3.065l3.39 4.628-10.18 7.458 5.259 7.176 18.396-13.485-10.848-14.803c-7.157-1.516-14.775-0.391-21.772 4.741-11.286 8.277-14.775 22.925-5.871 35.073zM301.63 68.763l12.75 25.779 9.257-4.581-12.59-25.454c-2.957-5.98-1.516-11.809 5.104-15.081 6.62-3.277 12.063-0.848 15.015 5.132l12.59 25.454 9.318-4.61-12.717-25.717c-5.283-10.669-15.171-14.817-28.218-8.357-13.047 6.451-15.726 16.894-10.509 27.436zM394.141 11.094l-0.466 8.602-19.629 5.947-5.231-6.888-11.121 3.367 31.565 40.422 12.214-3.696 3.79-51.115-11.121 3.362zM392.418 50.947l-13.104-17.539 14.276-4.322-1.172 21.861zM462.037-1.75l-7.091 18.071-7.392 0.975-2.222-16.842-10.1 1.332 6.257 47.418 22.181-2.924c9.883-1.3 15.072-8.569 13.904-17.388-1.106-8.386-6.954-12.181-12.232-12.708l8.277-19.46-11.583 1.526zM467.272 30.248c0.523 3.988-2.208 6.799-6.262 7.34l-10.594 1.398-1.69-12.797 10.594-1.398c4.054-0.532 7.425 1.474 7.953 5.457zM539.311-3.535l-3.173 8.023-20.5-0.574-2.787-8.188-11.611-0.32 17.157 48.327 12.765 0.363 19.757-47.305-11.606-0.325zM525.063 33.733l-6.879-20.783 14.912 0.419-8.033 20.364zM613.525 6.725l-28.462 26.136 6.097-30.591-9.987-1.996-9.341 46.91 10.26 2.048 27.605-25.138-5.871 29.47 9.987 1.987 9.346-46.901-9.633-1.926zM667.465 22.908l-13.669 36.382-13.089-4.916-3.15 8.386 35.713 13.419 3.15-8.381-13.023-4.892 13.669-36.391-9.6-3.607zM719.427 45.457l-23.325 41.759 29.541 16.503 4.374-7.83-20.661-11.536 4.934-8.828 20.223 11.295 4.374-7.821-20.223-11.3 5.278-9.45 20.656 11.536 4.374-7.83-29.545-16.498zM777.128 80.774l-29.277 37.827 26.763 20.712 5.485-7.091-18.711-14.478 6.187-8 18.316 14.172 5.495-7.086-18.325-14.177 6.625-8.56 18.716 14.483 5.485-7.086-26.758-20.717zM512.737 75.322c-205.899 0-373.41 167.511-373.41 373.41s167.511 373.405 373.41 373.405c205.894 0 373.405-167.507 373.405-373.405s-167.511-373.41-373.405-373.41zM512.737 812.575c-200.626 0-363.847-163.222-363.847-363.843 0-200.626 163.222-363.843 363.847-363.843 200.621 0 363.838 163.217 363.838 363.843 0 200.621-163.217 363.843-363.838 363.843zM322.267 638.128c23.001 0 28.147 11.088 32.738 23.81h20.015v-189.382h-29.757v144.468h-23.001v21.103zM462.682 616.488c0 30.294 15.962 47.616 45.182 47.616s45.182-17.322 45.182-47.616v-98.486c0-30.299-15.966-47.616-45.182-47.616-29.22 0-45.182 17.318-45.182 47.616v98.486zM492.439 516.11c0-13.532 5.951-18.664 15.42-18.664s15.425 5.132 15.425 18.664v102.271c0 13.527-5.956 18.664-15.425 18.664s-15.42-5.137-15.42-18.664v-102.271zM623.921 616.488c0 30.294 15.962 47.616 45.187 47.616 29.211 0 45.187-17.322 45.187-47.616v-98.486c0-30.299-15.976-47.616-45.187-47.616-29.225 0-45.187 17.318-45.187 47.616v98.486zM653.683 516.11c0-13.532 5.956-18.664 15.425-18.664 9.464 0 15.415 5.132 15.415 18.664v102.271c0 13.527-5.956 18.664-15.415 18.664-9.473 0-15.425-5.137-15.425-18.664v-102.271zM307.521 422.751h47.079c29.767 0 44.363-16.508 44.363-46.811v-95.774c0-30.303-14.601-46.802-44.363-46.802h-47.079v189.387zM337.283 395.687v-135.268h16.781c9.464 0 15.152 4.869 15.152 18.396v98.486c0 13.523-5.688 18.386-15.152 18.386h-16.781zM568.061 233.365h-30.040l-5.142 34.362h-36.523l-5.142-34.362h-27.328l30.308 189.391h43.558l30.308-189.391zM500.151 293.43h28.674l-14.342 95.779-14.332-95.779zM650.576 296.137l-37.606 126.614h31.104l22.732-86.31 22.728 86.31h28.411l-37.606-126.614v-62.773h-29.762z" />
<glyph unicode="&#xe609;" d="M898.496 960l67.244-571.56-75.48-8.88-60.052 510.44h-636.416l-60.052-510.44-75.48 8.88 67.242 571.56zM256 832h512v-64h-512zM256 704h512v-64h-512zM256 576h512v-64h-512zM256 448h512v-64h-512zM992 320h-960c-17.6 0-27.446-13.66-21.88-30.358l107.76-323.284c5.566-16.698 24.52-30.358 42.12-30.358h704c17.6 0 36.552 13.66 42.12 30.358l107.762 323.286c5.566 16.696-4.282 30.356-21.882 30.356zM640 192h-256v64h256v-64z" />
<glyph unicode="&#xe60a;" d="M96 512c-73 0-32 192 32 192-32 0 0 160 64 160 0 64 64 96 128 96 270.352 0 175.264-67.65 448-96v-512c-240.922-72.268-480-253.424-480-416-53 0-192 64 0 384 0 0-160 0-192 0-96 0-64 192 0 192zM832 352v512h-64v32h128c35.2 0 64-43.2 64-96v-384c0-52.8-28.8-96-64-96h-128v32h64z" />
<glyph unicode="&#xe60b;" d="M0 448c0-282.77 229.23-512 512-512 282.772 0 512 229.23 512 512s-229.228 512-512 512c-282.77 0-512-229.23-512-512zM896 448c0-73.236-20.512-141.68-56.088-199.912l-527.822 527.824c58.23 35.578 126.674 56.088 199.91 56.088 212.076 0 384-171.922 384-384zM128 448c0 73.236 20.512 141.678 56.090 199.912l527.822-527.824c-58.234-35.578-126.676-56.088-199.912-56.088-212.076 0-384 171.922-384 384z" />
<glyph unicode="&#xe60c;" d="M448 245.334c0-29.44 23.894-53.334 53.334-53.334s53.334 23.894 53.334 53.334-23.894 53.332-53.334 53.332-53.334-23.892-53.334-53.332zM85.334 960c-47.148 0-85.334-38.186-85.334-85.334v-853.334c0-47.146 38.186-85.334 85.334-85.334h853.334c47.146 0 85.334 38.186 85.334 85.334l-0.002 727.042c0 28.586-11.286 53.974-29.44 72.32l-108.374 107.946c-19.178 19.414-46.080 31.36-75.52 31.36h-725.332zM153.6 853.334h59.734v-166.4c0-26.026 20.906-46.934 46.934-46.934h55.466c26.026 0 46.934 20.906 46.934 46.934l-0.002 166.4h401.066c26.028 0 46.934-20.908 46.934-46.934v-204.8c0-26.026-20.906-46.934-46.934-46.934h-610.132c-26.026 0-46.934 20.908-46.934 46.934v204.8c0 26.026 20.908 46.934 46.934 46.934zM362.666 245.334c0 76.586 62.080 138.666 138.666 138.666s138.666-62.080 138.666-138.666-62.078-138.668-138.664-138.668-138.668 62.080-138.668 138.668z" />
<glyph unicode="&#xe60d;" d="M896.319 846.59c21.526-20.756 37.287-40.363 47.281-58.813 9.993-18.451 16.913-34.214 20.756-47.28 3.845-13.070 5.576-23.644 5.19-31.713-0.386-8.073-0.577-11.727-0.577-10.957l-638.88-640.080-281.383-58.813 58.813 280.23 640.034 641.234c0-0.77 3.652-0.77 10.955 0s17.683-0.959 31.136-5.19c13.455-4.231 29.215-11.341 47.281-21.333 18.067-9.998 37.864-25.757 59.392-47.283zM312.791 92.343l27.679 26.523c0 0.766-0.386 4.036-1.154 9.8-0.77 5.767-3.075 14.034-6.921 24.796-3.843 10.764-9.801 22.68-17.876 35.75-8.071 13.066-19.412 27.29-34.021 42.667-14.607 13.839-28.636 24.987-42.092 33.444-13.454 8.457-25.37 14.416-35.75 17.877-10.378 3.456-18.452 5.763-24.216 6.917-5.767 1.154-8.649 1.347-8.649 0.577l-27.677-26.523-20.758-96.87c3.845-1.536 8.073-3.843 12.687-6.921 4.611-3.074 9.225-6.151 13.838-9.223 4.611-3.077 9.225-6.726 13.838-10.957 4.613-4.227 9.225-8.649 13.838-13.261 5.381-5.383 10.187-10.38 14.415-14.993s7.88-9.226 10.955-13.839c3.077-4.61 5.958-9.033 8.649-13.261 2.69-4.231 5.19-8.649 7.496-13.263l95.718 20.76z" />
<glyph unicode="&#xe60e;" d="M788.466 843.18c10.293-0.643 19.459-2.574 27.503-5.791 8.040-3.217 15.276-8.042 21.711-14.474s11.261-13.67 14.476-21.712 5.147-17.208 5.791-27.501l-0.966-750.797c0.643-9.648-0.963-18.495-4.823-26.537s-8.687-15.44-14.476-22.195c-5.791-6.753-13.027-11.74-21.711-14.957-8.687-3.217-17.529-5.147-26.537-5.791l-554.866 0.964c-9.006-0.643-17.852 0.964-26.537 4.825s-15.921 8.847-21.712 14.957c-5.791 6.112-10.615 13.51-14.474 22.195s-5.468 17.21-4.825 25.571l-0.964 752.727c0.643 9.006 2.574 17.852 5.791 26.537s8.042 15.921 14.474 21.712 13.67 10.615 21.712 14.474 17.208 5.468 27.501 4.825l58.865-146.676 435.205-0.964 58.863 148.608zM690.039 743.786l-356.079 0.964-43.423 97.463 106.146 0.964 36.669 98.429 157.293 0.964 36.669-100.359 106.146 0.964-43.423-99.389z" />
<glyph unicode="&#xe60f;" d="M918.113 803.535c14.544 0 27.769-2.645 39.668-7.933 11.902-5.291 22.646-12.561 32.232-21.818s16.86-20 21.818-32.232 7.769-25.288 8.429-39.173l-0.992-507.767c0.662-13.884-1.818-27.107-7.438-39.666-5.62-12.563-12.892-23.306-21.818-32.234-8.924-8.924-19.668-16.196-32.232-21.816-12.561-5.62-25.453-8.429-38.676-8.429h-814.21c-13.223 0-26.117 2.809-38.678 8.429s-23.305 12.894-32.232 21.816c-8.924 8.926-16.198 19.669-21.818 32.234-5.618 12.559-8.098 25.783-7.436 39.666l-0.993 507.767c0.66 13.885 3.47 26.941 8.428 39.173 4.96 12.232 12.232 22.975 21.818 32.232s20.332 16.529 32.232 21.818c11.902 5.289 25.124 7.933 39.67 7.933h812.228zM918.113 651.8l0.992 50.579h-814.21l0.992-50.579h812.227zM919.105 194.611l-0.992 304.463h-812.227l-0.992-304.463h814.21zM267.539 331.472l0.992-30.744h-61.488l0.993 30.744h29.752l0.992 30.744h28.761l0.992 29.754h60.495l0.992-29.754h-31.735l0.992-30.744h-31.735zM208.036 391.968h29.752l0.992-29.754h-31.737l0.993 29.754zM358.777 300.728h-59.503l-0.992 30.744h61.486l-0.992-30.744zM390.513 362.214l-0.992-30.744h-29.754l-0.992 60.496h62.479l-0.992-29.754h-29.751zM389.521 331.472h31.735l-0.992 30.744h31.735l-0.992 29.754h61.486l-0.992-29.754h-29.752l-0.992-30.744h-28.761l-0.992-30.744h-60.495l-0.992 30.744zM512.495 300.728h-31.735l0.992 30.744h29.752l0.992-30.744z" />
<glyph unicode="&#xe610;" d="M899.738 842.295c15.887 0 30.507-2.886 43.863-8.663 13.36-5.777 25.093-13.72 35.2-23.828 10.11-10.109 18.053-21.842 23.83-35.2 5.774-13.356 8.663-27.617 8.663-42.779v-666.086c0-15.164-2.889-29.423-8.663-42.779-5.777-13.358-13.72-25.137-23.83-35.244-10.107-10.11-21.84-18.051-35.2-23.828-13.356-5.777-27.977-8.665-43.863-8.665h-775.473c-15.886 0-30.507 2.888-43.865 8.665-13.356 5.777-25.090 13.718-35.2 23.828s-18.050 21.886-23.827 35.244c-5.777 13.356-8.665 27.617-8.665 42.779v666.086c0 15.164 2.888 29.423 8.665 42.779 5.777 13.358 13.718 25.091 23.827 35.2s21.844 18.051 35.2 23.828c13.358 5.777 27.981 8.663 43.865 8.663h49.819v-110.471h177.623v110.471h320.589v-110.471h177.623v110.471h49.819zM899.738 65.737v444.058h-775.473v-444.058h775.473zM300.803 953.851v-188.454h-76.899v188.454h76.899zM800.096 953.851v-188.454h-76.897v188.454h76.897z" />
<glyph unicode="&#xe611;" d="M918.11 853.821c14.544 0 27.769-2.645 39.668-7.933 11.901-5.291 22.644-12.561 32.23-21.818 9.586-9.255 16.858-19.999 21.816-32.23 4.96-12.23 7.769-25.288 8.429-39.171l-0.992-608.944c0.662-14.544-1.818-27.933-7.438-40.163-5.618-12.232-12.892-22.975-21.816-32.232-8.924-9.255-19.668-16.529-32.23-21.816s-25.453-7.933-38.676-7.933h-814.182c-13.223 0-26.115 2.645-38.676 7.933s-23.305 12.561-32.23 21.816c-8.924 9.257-16.198 20-21.818 32.232-5.618 12.23-8.098 25.619-7.436 40.163l-0.993 608.944c0.66 13.884 3.47 26.941 8.428 39.171 4.96 12.232 12.232 22.975 21.818 32.23 9.586 9.257 20.33 16.529 32.23 21.818s25.124 7.933 39.668 7.933h812.201zM919.101 143.725l-0.992 608.944h-812.199l-0.992-608.944h814.182zM460.937 645.565l0.992-91.237h-254.865l0.992 91.237h252.882zM461.928 493.834l-0.992-91.237h-252.882l-0.992 91.237h254.865zM460.937 341.072l0.992-91.235h-254.865l0.992 91.235h252.882zM811.006 321.239c1.983 0 3.14-3.802 3.471-11.406 0.329-7.601 0.826-15.701 1.487-24.296 0.662-8.593 0.826-16.693 0.497-24.296-0.331-7.601-0.166-11.404 0.495-11.404h-254.865c0.662 0 0.826 3.802 0.497 11.404s-0.166 15.703 0.495 24.296c0.662 8.595 1.159 16.695 1.488 24.296 0.329 7.603 1.487 11.406 3.47 11.406-0.66 0 3.802 1.321 13.389 3.966s19.504 6.777 29.752 12.397c10.247 5.62 19.999 12.727 29.256 21.321 9.255 8.595 13.553 18.222 12.892 28.8 0.662 10.578-1.983 20.164-7.933 28.761s-12.232 18.016-18.842 28.264c-6.612 10.247-13.058 22.313-19.338 36.197-6.282 13.884-9.091 31.735-8.429 53.552-0.662 17.19 0.662 32.727 3.966 46.611 3.308 13.884 8.265 25.619 14.875 35.205 6.612 9.586 16.034 16.858 28.264 21.816 12.232 4.958 26.612 7.438 43.139 7.438 18.512 0 33.386-2.48 44.626-7.438 11.238-4.958 20.495-12.23 27.767-21.816 7.274-9.586 12.232-21.321 14.875-35.205 2.645-13.884 4.299-29.42 4.96-46.611-0.662-21.816-3.637-39.668-8.926-53.552s-11.569-25.95-18.842-36.197c-7.272-10.249-13.718-19.668-19.338-28.264s-8.76-18.181-9.423-28.761c0.662-10.578 5.291-20.205 13.885-28.8s18.512-15.701 29.751-21.321c11.24-5.62 21.156-9.752 29.752-12.397s13.222-3.966 13.884-3.966h-0.998z" />
<glyph unicode="&#xe800;" d="M757.904 317.952h92.16v-198.656c0-33.792-26.624-60.416-60.416-60.416h-730.112c-33.792 0-61.44 26.624-61.44 60.416v515.072c0 34.816 28.672 61.44 61.44 61.44h234.496v-92.16h-203.776v-451.584h666.624v166.912zM288.912 289.28s1.024 395.264 290.816 395.264l-34.816 151.552 338.944-238.592-338.944-241.664 36.864 169.984s-254.976-1.024-254.976-236.544h-38.912z" horiz-adv-x="884" />
<glyph unicode="&#xe802;" d="M1206 483.802q0-128.886-80.81-239.358t-219.924-173.894-302.778-63.42q-124.794 0-239.358 39.894l2.046-3.068-365.176-109.45q45.008 60.352 72.626 129.908t32.732 108.428l4.092 38.87q-108.428 122.748-108.428 272.092 0 128.886 80.81 238.336t219.924 172.87 302.778 63.42 302.778-63.42 219.924-172.87 80.81-238.336z" horiz-adv-x="1206" />
<glyph unicode="&#xe803;" d="M763.904 303.616l260.096-261.12-107.52-107.52-260.096 260.096q-108.544-73.728-237.568-73.728-173.056 0-295.936 122.88t-122.88 295.936 122.88 295.936 295.936 122.88 295.936-122.88 122.88-295.936q0-130.048-73.728-236.544zM697.344 540.16q0 115.712-81.92 197.632t-197.632 81.92-197.632-81.92-81.92-197.632 81.92-197.632 197.632-81.92 197.632 81.92 81.92 197.632z" />
<glyph unicode="&#xe80c;" d="M584.132 557.568q0-15.36-11.264-25.6l-256-256q-11.264-11.264-25.6-11.264t-25.6 11.264l-256 256q-11.264 11.264-11.264 25.6t11.264 25.6 25.6 11.264h512q15.36 0 25.6-11.264t11.264-25.6z" horiz-adv-x="584" />
<glyph unicode="&#xe80d;" d="M584.132 264.704q0-15.36-11.264-25.6t-25.6-11.264h-512q-15.36 0-25.6 11.264t-11.264 25.6 11.264 25.6l256 256q11.264 11.264 25.6 11.264t25.6-11.264l256-256q11.264-11.264 11.264-25.6z" horiz-adv-x="584" />
<glyph unicode="&#xe80e;" d="M364.71 704v-512q0-15.36-11.264-25.6t-25.6-11.264-25.6 11.264l-256 256q-11.264 11.264-11.264 25.6t11.264 25.6l256 256q11.264 11.264 25.6 11.264t25.6-11.264 11.264-25.6z" horiz-adv-x="364" />
<glyph unicode="&#xe80f;" d="M327.846 448q0-15.36-11.264-25.6l-256-256q-11.264-11.264-25.6-11.264t-25.6 11.264-11.264 25.6v512q0 15.36 11.264 25.6t25.6 11.264 25.6-11.264l256-256q11.264-11.264 11.264-25.6z" horiz-adv-x="364" />
<glyph unicode="&#xe810;" d="M29.92 689.664q-32.768 18.432-28.672 40.96 2.048 14.336 26.624 14.336h866.304q38.912 0 20.48-32.768-8.192-14.336-24.576-22.528-14.336-6.144-196.608-104.448t-186.368-100.352q-16.384-10.24-47.104-10.24-28.672 0-47.104 10.24-4.096 2.048-186.368 100.352t-196.608 104.448zM900.32 587.264q20.48 10.24 20.48-10.24v-376.832q0-16.384-17.408-32.768t-33.792-16.384h-819.2q-16.384 0-33.792 16.384t-17.408 32.768v376.832q0 20.48 20.48 10.24l393.216-204.8q18.432-10.24 47.104-10.24t47.104 10.24z" horiz-adv-x="920" />
<glyph unicode="&#xe811;" d="M654.96 577.024q20.48 0 40.96-19.456t20.48-41.984v-399.36q0-49.152-49.152-67.584l-61.44-18.432q-43.008-16.384-98.304-16.384h-296.96q-57.344 0-100.352 16.384l-61.44 18.432q-49.152 18.432-49.152 67.584v399.36q0 22.528 15.36 41.984t35.84 19.456h102.4v71.68q0 112.64 52.224 174.080t152.576 61.44 152.576-61.44 52.224-174.080v-71.68h92.16zM255.6 669.184v-92.16h204.8v92.16q0 53.248-27.648 82.944t-74.752 29.696-74.752-29.696-27.648-82.944z" horiz-adv-x="716" />
<glyph unicode="&#xe812;" d="M654.96 550.4q20.48 0 40.96-20.48t20.48-40.96v-399.36q0-20.48-14.336-39.936t-34.816-25.6l-61.44-20.48q-53.248-16.384-98.304-16.384h-296.96q-47.104 0-100.352 16.384l-61.44 20.48q-20.48 6.144-34.816 25.6t-14.336 39.936v399.36q0 22.528 15.36 41.984t35.84 19.456h409.6v143.36q0 112.64-102.4 112.64t-102.4-112.64v-40.96h-102.4v20.48q0 112.64 52.224 174.080t152.576 61.44q204.8 0 204.8-235.52v-122.88h92.16z" horiz-adv-x="716" />
<glyph unicode="&#xe813;" d="M450 898.56l122.88-344.064h327.68l-268.288-200.704 96.256-356.352-278.528 212.992-278.528-212.992 96.256 356.352-268.288 200.704h327.68z" horiz-adv-x="900" />
<glyph unicode="&#xe814;" d="M900.56 554.496l-268.288-200.704 96.256-356.352-278.528 212.992-278.528-212.992 96.256 356.352-268.288 200.704h327.68l122.88 344.064 122.88-344.064h327.68zM450 310.784l153.6-126.976-63.488 182.272 147.456 116.736-180.224-4.096-57.344 206.848-55.296-206.848-180.224 4.096 145.408-116.736-63.488-182.272z" horiz-adv-x="900" />
<glyph unicode="&#xe815;" d="M753.384 220.672q208.896-73.728 208.896-124.928v-108.544h-962.56v108.544q0 51.2 208.896 124.928 96.256 34.816 131.072 70.656t34.816 97.28q0 22.528-22.528 50.176t-32.768 74.752q-2.048 12.288-9.216 18.432t-14.336 8.192-14.336 17.408-9.216 44.032q0 16.384 5.12 26.624t9.216 12.288l4.096 4.096q-8.192 51.2-12.288 90.112-4.096 55.296 41.984 114.688t160.768 59.392 161.792-59.392 40.96-114.688l-12.288-90.112q18.432-8.192 18.432-43.008-2.048-28.672-9.216-44.032t-14.336-17.408-14.336-8.192-9.216-18.432q-8.192-49.152-31.744-75.776t-23.552-49.152q0-61.44 35.84-97.28t130.048-70.656z" horiz-adv-x="962" />
<glyph unicode="&#xe816;" d="M665.2 499.2q22.528 0 36.864-15.36t14.336-35.84-15.36-35.84-35.84-15.36h-614.4q-20.48 0-35.84 15.36t-15.36 35.84 14.336 35.84 36.864 15.36h614.4zM50.8 601.6q-20.48 0-35.84 15.36t-15.36 35.84 14.336 35.84 36.864 15.36h614.4q22.528 0 36.864-15.36t14.336-35.84-15.36-35.84-35.84-15.36h-614.4zM665.2 294.4q22.528 0 36.864-15.36t14.336-35.84-15.36-35.84-35.84-15.36h-614.4q-20.48 0-35.84 15.36t-15.36 35.84 14.336 35.84 36.864 15.36h614.4z" horiz-adv-x="716" />
<glyph unicode="&#xe817;" d="M767.4 908.8q22.528 0 36.864-15.36t14.336-35.84v-870.4h-204.8v870.4q0 51.2 40.96 51.2h112.64zM460.2 601.6q22.528 0 36.864-15.36t14.336-35.84v-563.2h-204.8v563.2q0 51.2 40.96 51.2h112.64zM153 294.4q22.528 0 36.864-15.36t14.336-35.84v-256h-204.8v256q0 51.2 40.96 51.2h112.64z" horiz-adv-x="818" />
<glyph unicode="&#xe818;" d="M512 749.056h-145.408q-14.336 0-25.6-15.36t-11.264-37.888v-104.448h182.272v-151.552h-182.272v-452.608h-174.080v452.608h-155.648v151.552h155.648v88.064q0 96.256 60.416 162.816t150.528 66.56h145.408v-159.744z" horiz-adv-x="512" />
<glyph unicode="&#xe819;" d="M942.040 740.864q-36.864-55.296-96.256-100.352v-24.576q0-133.12-61.44-256t-190.464-207.872-296.96-84.992q-163.84 0-296.96 86.016 14.336-2.048 47.104-2.048 135.168 0 239.616 81.92-63.488 2.048-112.64 38.912t-67.584 96.256q10.24-4.096 34.816-4.096 26.624 0 51.2 6.144-67.584 14.336-110.592 67.584t-43.008 122.88v2.048q36.864-20.48 86.016-24.576-86.016 59.392-86.016 161.792 0 49.152 26.624 96.256 157.696-192.512 399.36-200.704-6.144 18.432-6.144 43.008 0 79.872 56.32 136.192t138.24 56.32q83.968 0 139.264-59.392 61.44 12.288 122.88 45.056-20.48-67.584-83.968-106.496 57.344 8.192 110.592 30.72z" horiz-adv-x="942" />
<glyph unicode="&#xe81a;" d="M327.344 284.16q-26.624-133.12-59.392-216.064t-98.304-132.096q-6.144 75.776-7.168 122.88t11.264 112.64 22.528 106.496 26.624 101.376 24.576 101.376q-24.576 53.248-19.456 118.784t49.152 108.544 101.376 20.48q40.96-16.384 45.056-60.416t-13.312-97.28-32.768-105.472-4.096-92.16 64.512-50.176q69.632-14.336 123.904 38.912t75.776 134.144 11.264 166.912-55.296 131.072q-63.488 65.536-154.624 71.68t-166.912-33.792-122.88-119.808-32.768-174.080q4.096-22.528 22.528-53.248t21.504-48.128-17.408-68.608q-149.504 34.816-143.36 235.52 4.096 141.312 107.52 239.616t238.592 114.688q167.936 18.432 296.96-58.368t147.456-224.256q26.624-180.224-67.584-324.608t-258.048-132.096q-22.528 2.048-43.008 9.216t-30.72 13.312-31.744 21.504-31.744 21.504z" horiz-adv-x="796" />
<glyph unicode="&#xe81b;" d="M706.24 448q0 26.624-6.144 51.2h180.224v-352.256q0-57.344-39.936-98.304t-97.28-40.96h-606.208q-57.344 0-97.28 40.96t-39.936 98.304v352.256h178.176q-4.096-32.768-4.096-51.2 0-108.544 77.824-187.392t188.416-78.848q108.544 0 187.392 78.848t78.848 187.392zM743.104 888.32q57.344 0 97.28-39.936t39.936-97.28v-149.504h-223.232q-79.872 112.64-217.088 112.64-141.312 0-217.088-112.64h-223.232v149.504q0 57.344 39.936 97.28t97.28 39.936h606.208zM808.64 718.336v73.728q0 24.576-24.576 24.576h-73.728q-24.576 0-24.576-24.576v-73.728q0-8.192 7.168-16.384t17.408-8.192h73.728q24.576 0 24.576 24.576zM603.84 448q0-67.584-48.128-115.712t-115.712-48.128-115.712 48.128-48.128 115.712q0 69.632 48.128 116.736t115.712 47.104 115.712-47.104 48.128-116.736z" horiz-adv-x="880" />
<glyph unicode="&#xe81c;" d="M466.512 588.288q0 97.28-68.608 164.864t-165.888 67.584-164.864-67.584-67.584-164.864q0-141.312 93.184-234.496 36.864-36.864 131.072-106.496t167.936-120.832l75.776-51.2q287.744 194.56 372.736 279.552 93.184 93.184 93.184 234.496 0 97.28-67.584 164.864t-164.864 67.584-164.864-67.584-67.584-164.864z" horiz-adv-x="932" />
<glyph unicode="&#xe81d;" d="M519.512 22.574q-16.362 0-29.658 9.204-26.59 18.408-85.904 59.314t-157.49 115.56-137.036 111.47q-108.402 108.402-108.402 269.982 0 118.628 83.858 202.486t202.486 83.858q146.24 0 233.166-120.674 39.884 56.246 101.244 87.948t131.924 31.702q118.628 0 202.486-83.858t82.836-202.486q0-161.58-108.402-269.982-38.862-38.862-136.014-111.47t-158.512-115.56-85.904-59.314q-13.294-9.204-30.68-9.204zM286.346 768.094q-74.654 0-126.81-52.156t-53.178-127.832q0-116.584 77.722-194.306 80.79-80.79 335.432-253.62 254.642 172.83 335.432 253.62 77.722 77.722 77.722 194.306 0 75.676-52.156 127.832t-126.81 52.156q-75.676 0-127.832-52.156t-52.156-127.832q0-21.476-16.362-36.816t-37.838-15.34-36.816 15.34-15.34 36.816q0 75.676-53.178 127.832t-126.81 52.156z" horiz-adv-x="1038" />
<glyph unicode="&#xe81e;" d="M908.512 433.664q16.384-16.384 11.264-27.648t-27.648-11.264h-86.016v-317.44q0-14.336-1.024-21.504t-8.192-13.312-23.552-6.144h-208.896v317.44h-208.896v-317.44h-198.656q-28.672 0-35.84 10.24t-7.168 30.72v317.44h-86.016q-22.528 0-27.648 11.264t11.264 27.648l409.6 411.648q16.384 16.384 38.912 16.384t38.912-16.384z" horiz-adv-x="920" />
<glyph unicode="&#xe81f;" d="M767.8 642.56q40.96 0 71.68-29.696t30.72-72.704v-296.96q0-40.96-30.72-71.68t-71.68-30.72h-706.56v143.36h665.6v215.040h-512v-112.64l-215.040 184.32 215.040 184.32v-112.64h552.96z" horiz-adv-x="870" />
<glyph unicode="&#xe820;" d="M932.728 905.728l-399.36-456.704 171.008-114.688-686.080-343.040 400.384 343.040-172.032 114.688z" horiz-adv-x="950" />
<glyph unicode="&#xe821;" d="M648.056 905.728q118.784 0 201.728-83.968t83.968-201.728-83.968-202.752-202.752-83.968q-28.672 0-52.224 5.12l-5.12-5.12v-114.688h-114.688v-113.664h-113.664v-114.688h-343.040v228.352l348.16 348.16q-5.12 23.552-5.12 53.248 0 117.76 83.968 201.728t202.752 83.968zM648.056 562.688q23.552 0 39.936 17.408t17.408 41.984-17.408 40.96-40.96 16.384q-24.576 0-40.96-17.408t-16.384-39.936q0-24.576 17.408-41.984t40.96-17.408z" horiz-adv-x="950" />
<glyph unicode="&#xe822;" d="M932.728 391.68l-136.192-57.344q-8.192-22.528-12.288-31.744l56.32-136.192-80.896-79.872-138.24 53.248q-9.216-4.096-31.744-12.288l-56.32-136.192h-114.688l-57.344 135.168q-11.264 4.096-33.792 13.312l-135.168-55.296-79.872 79.872 54.272 137.216q-1.024 3.072-5.12 10.24t-6.144 12.288-4.096 11.264l-134.144 56.32v114.688l134.144 57.344 14.336 33.792-55.296 135.168 79.872 80.896 136.192-55.296q22.528 9.216 33.792 13.312l56.32 135.168h114.688l57.344-135.168q14.336-5.12 31.744-13.312l136.192 56.32 81.92-80.896-55.296-138.24q6.144-12.288 12.288-30.72l136.192-57.344v-114.688zM473.976 278.016q71.68 0 121.856 50.176t50.176 120.832-50.176 121.856-121.856 51.2-121.856-51.2-50.176-121.856 50.176-120.832 121.856-50.176z" horiz-adv-x="950" />
<glyph unicode="&#xe823;" d="M921.464 744.96q11.264-37.888 11.264-67.584 0-95.232-67.584-161.792t-161.792-66.56q-52.224 0-98.304 22.528l-457.728-457.728q-21.504-22.528-54.272-22.528-30.72 0-53.248 22.528t-22.528 54.272 22.528 54.272l457.728 457.728q-23.552 46.080-23.552 98.304 0 94.208 67.584 161.792t162.816 67.584q31.744 0 64.512-10.24l-141.312-142.336v-152.576h150.528z" horiz-adv-x="950" />
<glyph unicode="&#xe824;" d="M505.856 960c-272.384 0-493.568-215.040-505.856-484.352-1.024-18.432 13.312-19.456 13.312-19.456h86.016c16.384 0 19.456 9.216 20.48 18.432 9.216 203.776 179.2 366.592 386.048 366.592 110.592 0 209.92-46.080 280.576-120.832l-60.416-58.368c-10.24-12.288-10.24-27.648 5.12-32.768l252.928-51.2c21.504-5.12 47.104 11.264 38.912 45.056l-59.392 233.472c-1.024 9.216-16.384 22.528-29.696 12.288l-65.536-61.44c-92.16 94.208-220.16 151.552-361.472 151.552zM925.696 438.784c-16.384 0-19.456-9.216-20.48-18.432-9.216-203.776-179.2-366.592-386.048-366.592-110.592 0-209.92 46.080-280.576 120.832l60.416 58.368c10.24 12.288 10.24 27.648-5.12 32.768l-252.928 51.2c-21.504 5.12-47.104-11.264-38.912-45.056l59.392-233.472c1.024-9.216 16.384-22.528 29.696-12.288l65.536 61.44c92.16-94.208 220.16-151.552 361.472-151.552 272.384 0 493.568 215.040 505.856 484.352 1.024 18.432-13.312 19.456-13.312 19.456h-86.016z" />
<glyph unicode="&#xf000;" d="M0 960l1024-1024h-1024z" />
</font>
</defs>
</svg>
